Ayanna-sinhala-1.ufo
<glyph name="anusvara" format="1">
  <advance width="391"/>
  <unicode hex="0D82"/>
  <outline>
    <contour>
      <point x="185" y="168.389" type="curve" smooth="yes"/>
      <point x="222.832" y="168.389"/>
      <point x="236.979" y="211.906"/>
      <point x="236.979" y="265.544" type="curve" smooth="yes"/>
      <point x="236.979" y="319.182"/>
      <point x="222.832" y="362.698"/>
      <point x="185" y="362.698" type="curve" smooth="yes"/>
      <point x="147.168" y="362.698"/>
      <point x="133.021" y="319.182"/>
      <point x="133.021" y="265.544" type="curve" smooth="yes"/>
      <point x="133.021" y="211.906"/>
      <point x="147.168" y="168.389"/>
    </contour>
    <contour>
      <point x="185" y="464.087" type="curve" smooth="yes"/>
      <point x="283.403" y="464.087"/>
      <point x="334.497" y="375.155"/>
      <point x="334.497" y="265.544" type="curve" smooth="yes"/>
      <point x="334.497" y="155.931"/>
      <point x="293.811" y="67"/>
      <point x="185" y="67" type="curve" smooth="yes"/>
      <point x="76.1895" y="67"/>
      <point x="35.5029" y="155.931"/>
      <point x="35.5029" y="265.544" type="curve" smooth="yes"/>
      <point x="35.5029" y="375.155"/>
      <point x="86.5967" y="464.087"/>
    </contour>
  </outline>
</glyph>
<glyph name="visarga" format="1">
  <advance width="559"/>
  <unicode hex="0D83"/>
  <outline>
    <contour>
      <point x="45.9629" y="141.037" type="curve" smooth="yes"/>
      <point x="45.9629" y="201.428"/>
      <point x="94.6104" y="250.075"/>
      <point x="155" y="250.075" type="curve" smooth="yes"/>
      <point x="215.39" y="250.075"/>
      <point x="264.037" y="201.428"/>
      <point x="264.037" y="141.037" type="curve" smooth="yes"/>
      <point x="264.037" y="80.6475"/>
      <point x="215.39" y="32"/>
      <point x="155" y="32" type="curve" smooth="yes"/>
      <point x="94.6104" y="32"/>
      <point x="45.9629" y="80.6475"/>
    </contour>
    <contour>
      <point x="126.482" y="141.037" type="curve" smooth="yes"/>
      <point x="126.482" y="125.94"/>
      <point x="139.902" y="112.52"/>
      <point x="155" y="112.52" type="curve" smooth="yes"/>
      <point x="170.098" y="112.52"/>
      <point x="183.518" y="125.94"/>
      <point x="183.518" y="141.037" type="curve" smooth="yes"/>
      <point x="183.518" y="156.135"/>
      <point x="170.098" y="169.555"/>
      <point x="155" y="169.555" type="curve" smooth="yes"/>
      <point x="139.902" y="169.555"/>
      <point x="126.482" y="156.135"/>
    </contour>
    <contour>
      <point x="42.9629" y="418.037" type="curve" smooth="yes"/>
      <point x="42.9629" y="478.428"/>
      <point x="91.6104" y="527.075"/>
      <point x="152" y="527.075" type="curve" smooth="yes"/>
      <point x="212.39" y="527.075"/>
      <point x="261.037" y="478.428"/>
      <point x="261.037" y="418.037" type="curve" smooth="yes"/>
      <point x="261.037" y="357.647"/>
      <point x="212.39" y="309"/>
      <point x="152" y="309" type="curve" smooth="yes"/>
      <point x="91.6104" y="309"/>
      <point x="42.9629" y="357.647"/>
    </contour>
    <contour>
      <point x="123.482" y="418.037" type="curve" smooth="yes"/>
      <point x="123.482" y="402.94"/>
      <point x="136.902" y="389.52"/>
      <point x="152" y="389.52" type="curve" smooth="yes"/>
      <point x="167.098" y="389.52"/>
      <point x="180.518" y="402.94"/>
      <point x="180.518" y="418.037" type="curve" smooth="yes"/>
      <point x="180.518" y="433.135"/>
      <point x="167.098" y="446.555"/>
      <point x="152" y="446.555" type="curve" smooth="yes"/>
      <point x="136.902" y="446.555"/>
      <point x="123.482" y="433.135"/>
    </contour>
  </outline>
</glyph>
<glyph name="si_I" format="1">
  <advance width="524"/>
  <unicode hex="0D89"/>
  <outline>
    <contour>
      <point x="80.0547" y="-109.563" type="curve"/>
      <point x="157.055" y="-57.5635" type="line"/>
      <point x="179.74" y="-88.1526"/>
      <point x="204.052" y="-99.9253"/>
      <point x="224.94" y="-99.9253" type="curve" smooth="yes"/>
      <point x="255.566" y="-99.9253"/>
      <point x="278.834" y="-74.6194"/>
      <point x="278.834" y="-46.2051" type="curve" smooth="yes"/>
      <point x="278.834" y="-22.3094"/>
      <point x="268.856" y="12.5682"/>
      <point x="209.506" y="12.5682" type="curve" smooth="yes"/>
      <point x="201.286" y="12.5682"/>
      <point x="192.12" y="11.8992"/>
      <point x="181.901" y="10.4395" type="curve"/>
      <point x="195" y="69" type="line"/>
      <point x="305" y="54" type="line"/>
      <point x="356" y="47.9863"/>
      <point x="385.675" y="2.67841e-15"/>
      <point x="385.675" y="-50.583" type="curve" smooth="yes"/>
      <point x="385.675" y="-144.59"/>
      <point x="314.849" y="-203.817"/>
      <point x="235.823" y="-203.817" type="curve" smooth="yes"/>
      <point x="180.838" y="-203.817"/>
      <point x="121.883" y="-175.144"/>
    </contour>
    <contour>
      <point x="22.4985" y="354.123" type="curve" smooth="yes"/>
      <point x="22.4985" y="475.952"/>
      <point x="105.065" y="594"/>
      <point x="246.099" y="594" type="curve" smooth="yes"/>
      <point x="386.48" y="594"/>
      <point x="502" y="496"/>
      <point x="502" y="297.078" type="curve" smooth="yes"/>
      <point x="502" y="130"/>
      <point x="397.426" y="44.4568"/>
      <point x="319" y="34" type="curve" smooth="yes"/>
      <point x="254.856" y="25.4475"/>
      <point x="231" y="20"/>
      <point x="181.901" y="10.4395" type="curve"/>
      <point x="180" y="106" type="line"/>
      <point x="268" y="106"/>
      <point x="387" y="129"/>
      <point x="387" y="297.078" type="curve" smooth="yes"/>
      <point x="387" y="416"/>
      <point x="323.38" y="482"/>
      <point x="246.099" y="482" type="curve" smooth="yes"/>
      <point x="159.623" y="482"/>
      <point x="118.004" y="430"/>
      <point x="118.004" y="375" type="curve" smooth="yes"/>
      <point x="118.004" y="374.667"/>
      <point x="128" y="298.333"/>
      <point x="128" y="298" type="curve"/>
      <point x="126" y="212" type="line"/>
      <point x="53" y="232" type="line"/>
      <point x="32.34" y="270.127"/>
      <point x="22.4985" y="312.345"/>
    </contour>
    <contour>
      <point x="139.141" y="294.859" type="curve" smooth="yes"/>
      <point x="139.141" y="270.492"/>
      <point x="158.634" y="251"/>
      <point x="183" y="251" type="curve" smooth="yes"/>
      <point x="207.367" y="251"/>
      <point x="226.861" y="270.492"/>
      <point x="226.861" y="294.859" type="curve" smooth="yes"/>
      <point x="226.861" y="319.227"/>
      <point x="207.367" y="338.721"/>
      <point x="183" y="338.721" type="curve" smooth="yes"/>
      <point x="158.634" y="338.721"/>
      <point x="139.141" y="319.227"/>
    </contour>
    <contour>
      <point x="37.1133" y="298.488" type="curve" smooth="yes"/>
      <point x="37.1133" y="335.546"/>
      <point x="67.4238" y="359.979"/>
      <point x="111" y="387" type="curve"/>
      <point x="131.46" y="419.225"/>
      <point x="167.861" y="433.397"/>
      <point x="204.148" y="433.397" type="curve" smooth="yes"/>
      <point x="238.803" y="433.397"/>
      <point x="273.354" y="420.471"/>
      <point x="293.816" y="398" type="curve" smooth="yes"/>
      <point x="317.64" y="371.839"/>
      <point x="332.099" y="336.971"/>
      <point x="332.099" y="298.488" type="curve" smooth="yes"/>
      <point x="332.099" y="216.55"/>
      <point x="266.543" y="151"/>
      <point x="184.602" y="151" type="curve" smooth="yes"/>
      <point x="112.419" y="151"/>
      <point x="52.9551" y="201.87"/>
      <point x="39.8181" y="270" type="curve" smooth="yes"/>
      <point x="38.0426" y="279.208"/>
      <point x="37.1133" y="288.732"/>
    </contour>
  </outline>
</glyph>
<glyph name="si_Ii" format="1">
  <advance width="502"/>
  <unicode hex="0D8A"/>
  <outline>
    <contour>
      <point x="110" y="731" type="curve" smooth="yes"/>
      <point x="110" y="763"/>
      <point x="136" y="789"/>
      <point x="168" y="789" type="curve" smooth="yes"/>
      <point x="200" y="789"/>
      <point x="226" y="763"/>
      <point x="226" y="731" type="curve" smooth="yes"/>
      <point x="226" y="699"/>
      <point x="200" y="673"/>
      <point x="168" y="673" type="curve" smooth="yes"/>
      <point x="136" y="673"/>
      <point x="110" y="699"/>
    </contour>
    <contour>
      <point x="413" y="659" type="curve" smooth="yes"/>
      <point x="413" y="691"/>
      <point x="439" y="717"/>
      <point x="471" y="717" type="curve" smooth="yes"/>
      <point x="503" y="717"/>
      <point x="529" y="691"/>
      <point x="529" y="659" type="curve" smooth="yes"/>
      <point x="529" y="627"/>
      <point x="503" y="601"/>
      <point x="471" y="601" type="curve" smooth="yes"/>
      <point x="439" y="601"/>
      <point x="413" y="627"/>
    </contour>
    <component base="si_Ra"/>
  </outline>
</glyph>
<glyph name="si_U" format="1">
  <advance width="553"/>
  <unicode hex="0D8B"/>
  <outline>
    <contour>
      <point x="30" y="135" type="curve" smooth="yes"/>
      <point x="30" y="295.02"/>
      <point x="112.569" y="423.352"/>
      <point x="319.035" y="423.352" type="curve" smooth="yes"/>
      <point x="337.865" y="423.352"/>
      <point x="350.035" y="422"/>
      <point x="367.842" y="420.437" type="curve"/>
      <point x="368.903" y="426.679"/>
      <point x="369.406" y="432.648"/>
      <point x="369.406" y="438.312" type="curve" smooth="yes"/>
      <point x="369.406" y="475.944"/>
      <point x="347.177" y="500"/>
      <point x="318.65" y="500" type="curve" smooth="yes"/>
      <point x="289.295" y="500"/>
      <point x="273.467" y="479"/>
      <point x="273.467" y="455.164" type="curve" smooth="yes"/>
      <point x="273.467" y="442.756"/>
      <point x="276.983" y="429.391"/>
      <point x="284.815" y="420" type="curve"/>
      <point x="207.035" y="381" type="line"/>
      <point x="187.726" y="406.207"/>
      <point x="179.991" y="432.604"/>
      <point x="179.991" y="460.407" type="curve" smooth="yes"/>
      <point x="179.991" y="536.137"/>
      <point x="232.091" y="598"/>
      <point x="318.65" y="598" type="curve" smooth="yes"/>
      <point x="395.641" y="598"/>
      <point x="467.035" y="541.336"/>
      <point x="467.035" y="432" type="curve" smooth="yes"/>
      <point x="467.035" y="400.735"/>
      <point x="460.035" y="359"/>
      <point x="448.035" y="320" type="curve"/>
      <point x="448.035" y="320"/>
      <point x="367.566" y="320"/>
      <point x="319.035" y="320" type="curve" smooth="yes"/>
      <point x="201" y="320"/>
      <point x="147" y="242.906"/>
      <point x="147" y="135" type="curve" smooth="yes"/>
      <point x="147" y="42.4601"/>
      <point x="195.21" y="-36"/>
      <point x="301" y="-36" type="curve" smooth="yes"/>
      <point x="376.148" y="-36"/>
      <point x="428.736" y="11.9961"/>
      <point x="437.563" y="75" type="curve"/>
      <point x="551" y="59" type="line"/>
      <point x="538.665" y="-55.1006"/>
      <point x="448.084" y="-152"/>
      <point x="301" y="-152" type="curve" smooth="yes"/>
      <point x="114.838" y="-152"/>
      <point x="30" y="-20.3154"/>
    </contour>
  </outline>
</glyph>
<glyph name="si_vocalicR" format="1">
  <advance width="896"/>
  <unicode hex="0D8D"/>
  <outline>
    <contour>
      <point x="589" y="143" type="curve" smooth="yes"/>
      <point x="589" y="256.62"/>
      <point x="650.615" y="292.603"/>
      <point x="703.138" y="292.603" type="curve" smooth="yes"/>
      <point x="730.63" y="292.603"/>
      <point x="755.631" y="282.743"/>
      <point x="768" y="269" type="curve"/>
      <point x="754" y="192" type="line"/>
      <point x="746.439" y="197.021"/>
      <point x="733.178" y="201.976"/>
      <point x="719.95" y="201.976" type="curve" smooth="yes"/>
      <point x="699.937" y="201.976"/>
      <point x="680" y="190.632"/>
      <point x="680" y="151" type="curve" smooth="yes"/>
      <point x="680" y="101.738"/>
      <point x="701.509" y="89.7637"/>
      <point x="722.705" y="89.7637" type="curve" smooth="yes"/>
      <point x="730.548" y="89.7637"/>
      <point x="738.348" y="91.4033"/>
      <point x="745" y="93.4004" type="curve" smooth="yes"/>
      <point x="751.382" y="95.3154"/>
      <point x="756.707" y="97.5596"/>
      <point x="760" y="99" type="curve"/>
      <point x="807" y="0" type="line"/>
      <point x="795.371" y="13.0381"/>
      <point x="783.494" y="17.2598"/>
      <point x="770.888" y="17.2598" type="curve" smooth="yes"/>
      <point x="747.719" y="17.2598"/>
      <point x="722.086" y="3"/>
      <point x="691" y="3" type="curve" smooth="yes"/>
      <point x="615" y="3"/>
      <point x="589" y="90"/>
    </contour>
    <contour>
      <point x="597" y="367" type="line" smooth="yes"/>
      <point x="596.001" y="379.28"/>
      <point x="595.504" y="390.916"/>
      <point x="595.504" y="401.917" type="curve" smooth="yes"/>
      <point x="595.504" y="505.582"/>
      <point x="639.639" y="552.93"/>
      <point x="724" y="552.93" type="curve" smooth="yes"/>
      <point x="809.813" y="552.93"/>
      <point x="851.965" y="509.858"/>
      <point x="851.965" y="397.941" type="curve" smooth="yes"/>
      <point x="851.965" y="322.785"/>
      <point x="837.709" y="247.06"/>
      <point x="837.709" y="183.678" type="curve" smooth="yes"/>
      <point x="837.709" y="131.896"/>
      <point x="845.827" y="84.9717"/>
      <point x="874" y="43" type="curve"/>
      <point x="807" y="0" type="line"/>
      <point x="755.742" y="63.6494"/>
      <point x="740.678" y="113.988"/>
      <point x="740.678" y="178.513" type="curve" smooth="yes"/>
      <point x="740.678" y="232.04"/>
      <point x="760.059" y="319.246"/>
      <point x="760.059" y="400.967" type="curve" smooth="yes"/>
      <point x="760.059" y="435.521"/>
      <point x="751.098" y="455"/>
      <point x="724" y="455" type="curve" smooth="yes"/>
      <point x="696.976" y="455"/>
      <point x="687.837" y="435.611"/>
      <point x="687.837" y="401.237" type="curve" smooth="yes"/>
      <point x="687.837" y="391.093"/>
      <point x="688.633" y="379.643"/>
      <point x="690" y="367" type="curve" smooth="yes"/>
    </contour>
    <contour>
      <point x="254.374" y="467.354" type="curve" smooth="yes"/>
      <point x="254.374" y="473.071"/>
      <point x="254.938" y="478.329"/>
      <point x="256.189" y="483" type="curve" smooth="yes"/>
      <point x="275.815" y="556.277"/>
      <point x="334.908" y="594"/>
      <point x="397.727" y="594" type="curve" smooth="yes"/>
      <point x="484.286" y="594"/>
      <point x="536.386" y="532.137"/>
      <point x="536.386" y="456.407" type="curve" smooth="yes"/>
      <point x="536.386" y="428.149"/>
      <point x="525.138" y="394.649"/>
      <point x="505" y="369.03" type="curve"/>
      <point x="428.291" y="410.437" type="line"/>
      <point x="436.274" y="419.561"/>
      <point x="442.91" y="439.108"/>
      <point x="442.91" y="451.164" type="curve" smooth="yes"/>
      <point x="442.91" y="475"/>
      <point x="428.697" y="496"/>
      <point x="393.554" y="496" type="curve" smooth="yes"/>
      <point x="370.815" y="496"/>
      <point x="341.989" y="481.03"/>
      <point x="341.989" y="434.342" type="curve" smooth="yes"/>
      <point x="341.989" y="428.679"/>
      <point x="342.492" y="422.242"/>
      <point x="343.554" y="416" type="curve"/>
      <point x="297.054" y="318.437" type="line"/>
      <point x="284.442" y="359.423"/>
      <point x="254.374" y="425.625"/>
    </contour>
    <contour>
      <point x="139.334" y="207" type="curve" smooth="yes"/>
      <point x="139.334" y="157.265"/>
      <point x="153.522" y="115"/>
      <point x="188.816" y="115" type="curve" smooth="yes"/>
      <point x="235.517" y="115"/>
      <point x="251.447" y="176.75"/>
      <point x="251.447" y="249.5" type="curve"/>
      <point x="342.66" y="249.5" type="line"/>
      <point x="342.66" y="176.75"/>
      <point x="358.591" y="115"/>
      <point x="405.291" y="115" type="curve" smooth="yes"/>
      <point x="440.585" y="115"/>
      <point x="454.773" y="157.265"/>
      <point x="454.773" y="207" type="curve" smooth="yes"/>
      <point x="454.773" y="258.726"/>
      <point x="435" y="318"/>
      <point x="394.535" y="318" type="curve" smooth="yes"/>
      <point x="199.572" y="318" type="line" smooth="yes"/>
      <point x="159" y="318"/>
      <point x="139.334" y="258.726"/>
    </contour>
    <contour>
      <point x="32.334" y="207" type="curve" smooth="yes"/>
      <point x="32.334" y="278.353"/>
      <point x="47.4639" y="332.731"/>
      <point x="81.291" y="368.238" type="curve" smooth="yes"/>
      <point x="105.38" y="393.523"/>
      <point x="141.291" y="416"/>
      <point x="182.291" y="416" type="curve" smooth="yes"/>
      <point x="411.816" y="416" type="line" smooth="yes"/>
      <point x="452.816" y="416"/>
      <point x="488.728" y="393.523"/>
      <point x="512.816" y="368.238" type="curve" smooth="yes"/>
      <point x="546.644" y="332.731"/>
      <point x="561.773" y="278.353"/>
      <point x="561.773" y="207" type="curve" smooth="yes"/>
      <point x="561.773" y="95.0957"/>
      <point x="516.904" y="0"/>
      <point x="405.291" y="0" type="curve" smooth="yes"/>
      <point x="352.611" y="0"/>
      <point x="313.199" y="31.6025"/>
      <point x="297.054" y="79.0303" type="curve"/>
      <point x="280.908" y="31.6025"/>
      <point x="241.496" y="0"/>
      <point x="188.816" y="0" type="curve" smooth="yes"/>
      <point x="77.2031" y="0"/>
      <point x="32.334" y="95.0957"/>
    </contour>
    <contour>
      <point x="57.7217" y="456.407" type="curve" smooth="yes"/>
      <point x="57.7217" y="532.137"/>
      <point x="109.821" y="594"/>
      <point x="196.381" y="594" type="curve" smooth="yes"/>
      <point x="259.199" y="594"/>
      <point x="318.292" y="556.277"/>
      <point x="337.918" y="483" type="curve" smooth="yes"/>
      <point x="339.169" y="478.329"/>
      <point x="339.733" y="473.071"/>
      <point x="339.733" y="467.354" type="curve" smooth="yes"/>
      <point x="339.733" y="425.625"/>
      <point x="309.665" y="359.423"/>
      <point x="297.054" y="318.437" type="curve"/>
      <point x="250.554" y="416" type="line"/>
      <point x="251.615" y="422.242"/>
      <point x="252.118" y="428.679"/>
      <point x="252.118" y="434.342" type="curve" smooth="yes"/>
      <point x="252.118" y="481.787"/>
      <point x="223.292" y="497"/>
      <point x="200.554" y="497" type="curve" smooth="yes"/>
      <point x="165.41" y="497"/>
      <point x="151.197" y="476"/>
      <point x="151.197" y="452.164" type="curve" smooth="yes"/>
      <point x="151.197" y="439.812"/>
      <point x="157.833" y="419.784"/>
      <point x="165.816" y="410.437" type="curve"/>
      <point x="89.1074" y="369.03" type="line"/>
      <point x="68.9697" y="394.649"/>
      <point x="57.7217" y="428.149"/>
    </contour>
  </outline>
</glyph>
<glyph name="si_vocalicL" format="1">
  <advance width="940"/>
  <unicode hex="0D8F"/>
  <outline>
    <contour>
      <point x="703.525" y="129.615" type="curve" smooth="yes"/>
      <point x="703.525" y="107.364"/>
      <point x="721.158" y="89.4404"/>
      <point x="743.047" y="89.4404" type="curve" smooth="yes"/>
      <point x="764.936" y="89.4404"/>
      <point x="782.568" y="107.364"/>
      <point x="782.568" y="129.615" type="curve" smooth="yes"/>
      <point x="782.568" y="151.865"/>
      <point x="764.936" y="169.79"/>
      <point x="743.047" y="169.79" type="curve" smooth="yes"/>
      <point x="721.158" y="169.79"/>
      <point x="703.525" y="151.865"/>
    </contour>
    <contour>
      <point x="614.044" y="130" type="curve" smooth="yes"/>
      <point x="614.044" y="202"/>
      <point x="672.044" y="260"/>
      <point x="735.525" y="260" type="curve" smooth="yes"/>
      <point x="819.525" y="260"/>
      <point x="850.525" y="176"/>
      <point x="850.525" y="130" type="curve" smooth="yes"/>
      <point x="850.525" y="58"/>
      <point x="803.019" y="0"/>
      <point x="744.044" y="0" type="curve" smooth="yes"/>
      <point x="672.044" y="0"/>
      <point x="614.044" y="58"/>
    </contour>
    <contour>
      <point x="801.527" y="280.156" type="curve" smooth="yes"/>
      <point x="801.527" y="424.594"/>
      <point x="768.111" y="480"/>
      <point x="731.435" y="480" type="curve" smooth="yes"/>
      <point x="692.933" y="480"/>
      <point x="679.223" y="442.586"/>
      <point x="674.435" y="426" type="curve"/>
      <point x="620.435" y="487" type="line"/>
      <point x="628.913" y="527.58"/>
      <point x="666.743" y="584"/>
      <point x="736.062" y="584" type="curve" smooth="yes"/>
      <point x="827.562" y="584"/>
      <point x="902.435" y="506.574"/>
      <point x="902.435" y="284" type="curve" smooth="yes"/>
      <point x="902.435" y="46.2764"/>
      <point x="813.127" y="0.15625"/>
      <point x="744.046" y="0" type="curve" smooth="yes"/>
      <point x="744.046" y="82.1562" type="line" smooth="yes"/>
      <point x="773.16" y="82.1562"/>
      <point x="795.644" y="97"/>
      <point x="795.644" y="145" type="curve"/>
      <point x="799.992" y="174.938"/>
      <point x="801.527" y="218.229"/>
    </contour>
    <contour>
      <point x="419.084" y="467.354" type="curve" smooth="yes"/>
      <point x="419.084" y="473.071"/>
      <point x="419.648" y="478.329"/>
      <point x="420.899" y="483" type="curve" smooth="yes"/>
      <point x="440.525" y="556.277"/>
      <point x="499.618" y="594"/>
      <point x="562.437" y="594" type="curve" smooth="yes"/>
      <point x="648.996" y="594"/>
      <point x="701.096" y="532.137"/>
      <point x="701.096" y="456.407" type="curve" smooth="yes"/>
      <point x="701.096" y="428.149"/>
      <point x="689.848" y="394.649"/>
      <point x="669.71" y="369.03" type="curve"/>
      <point x="593.001" y="410.437" type="line"/>
      <point x="600.984" y="419.561"/>
      <point x="607.62" y="439.108"/>
      <point x="607.62" y="451.164" type="curve" smooth="yes"/>
      <point x="607.62" y="475"/>
      <point x="593.407" y="496"/>
      <point x="558.264" y="496" type="curve" smooth="yes"/>
      <point x="535.525" y="496"/>
      <point x="506.699" y="481.03"/>
      <point x="506.699" y="434.342" type="curve" smooth="yes"/>
      <point x="506.699" y="428.679"/>
      <point x="507.202" y="422.242"/>
      <point x="508.264" y="416" type="curve" smooth="yes"/>
      <point x="461.764" y="318.437" type="line"/>
      <point x="449.152" y="359.423"/>
      <point x="419.084" y="425.625"/>
    </contour>
    <contour>
      <point x="304.043" y="224" type="curve" smooth="yes"/>
      <point x="304.043" y="144.037"/>
      <point x="382.755" y="104.167"/>
      <point x="461.54" y="104.167" type="curve" smooth="yes"/>
      <point x="540.474" y="104.167"/>
      <point x="619.482" y="144.187"/>
      <point x="619.482" y="224" type="curve" smooth="yes"/>
      <point x="619.482" y="275.726"/>
      <point x="592.043" y="318"/>
      <point x="537.043" y="318" type="curve" smooth="yes"/>
      <point x="386.482" y="318" type="line" smooth="yes"/>
      <point x="331.482" y="318"/>
      <point x="304.043" y="275.726"/>
    </contour>
    <contour>
      <point x="197.043" y="224" type="curve" smooth="yes"/>
      <point x="197.043" y="329.652"/>
      <point x="258.1" y="416"/>
      <point x="380.482" y="416" type="curve" smooth="yes"/>
      <point x="543.043" y="416" type="line" smooth="yes"/>
      <point x="665.426" y="416"/>
      <point x="726.484" y="329.652"/>
      <point x="726.484" y="224" type="curve" smooth="yes"/>
      <point x="726.484" y="202.666"/>
      <point x="724.056" y="182.776"/>
      <point x="719.527" y="164.332" type="curve"/>
      <point x="705.402" y="154.654"/>
      <point x="700.514" y="140.255"/>
      <point x="700.514" y="126.901" type="curve" smooth="yes"/>
      <point x="700.514" y="123.239"/>
      <point x="700.882" y="119.655"/>
      <point x="701.527" y="116.269" type="curve"/>
      <point x="657.01" y="30.5908"/>
      <point x="559.387" y="-12.249"/>
      <point x="461.764" y="-12.249" type="curve" smooth="yes"/>
      <point x="364.141" y="-12.249"/>
      <point x="266.518" y="30.5908"/>
      <point x="222" y="116.269" type="curve"/>
      <point x="222.646" y="119.655"/>
      <point x="223.014" y="123.239"/>
      <point x="223.014" y="126.901" type="curve" smooth="yes"/>
      <point x="223.014" y="140.255"/>
      <point x="218.125" y="154.654"/>
      <point x="204" y="164.332" type="curve"/>
      <point x="199.472" y="182.776"/>
      <point x="197.043" y="202.666"/>
    </contour>
    <contour>
      <point x="222.432" y="456.407" type="curve" smooth="yes"/>
      <point x="222.432" y="532.137"/>
      <point x="274.531" y="594"/>
      <point x="361.091" y="594" type="curve" smooth="yes"/>
      <point x="423.909" y="594"/>
      <point x="483.002" y="556.277"/>
      <point x="502.628" y="483" type="curve" smooth="yes"/>
      <point x="503.879" y="478.329"/>
      <point x="504.443" y="473.071"/>
      <point x="504.443" y="467.354" type="curve" smooth="yes"/>
      <point x="504.443" y="425.625"/>
      <point x="474.375" y="359.423"/>
      <point x="461.764" y="318.437" type="curve"/>
      <point x="415.264" y="416" type="line" smooth="yes"/>
      <point x="416.325" y="422.242"/>
      <point x="416.828" y="428.679"/>
      <point x="416.828" y="434.342" type="curve" smooth="yes"/>
      <point x="416.828" y="481.03"/>
      <point x="388.002" y="496"/>
      <point x="365.264" y="496" type="curve" smooth="yes"/>
      <point x="330.12" y="496"/>
      <point x="315.907" y="475"/>
      <point x="315.907" y="451.164" type="curve" smooth="yes"/>
      <point x="315.907" y="439.108"/>
      <point x="322.543" y="419.561"/>
      <point x="330.526" y="410.437" type="curve"/>
      <point x="253.817" y="369.03" type="line"/>
      <point x="233.68" y="394.649"/>
      <point x="222.432" y="428.149"/>
    </contour>
    <contour>
      <point x="21.0928" y="284" type="curve" smooth="yes"/>
      <point x="21.0928" y="506.574"/>
      <point x="95.9646" y="584"/>
      <point x="187.465" y="584" type="curve" smooth="yes"/>
      <point x="256.784" y="584"/>
      <point x="294.614" y="527.58"/>
      <point x="303.093" y="487" type="curve"/>
      <point x="249.093" y="426" type="line"/>
      <point x="244.305" y="442.586"/>
      <point x="230.595" y="480"/>
      <point x="192.093" y="480" type="curve" smooth="yes"/>
      <point x="155.416" y="480"/>
      <point x="122" y="424.594"/>
      <point x="122" y="280.156" type="curve" smooth="yes"/>
      <point x="122" y="218.23"/>
      <point x="123.536" y="174.938"/>
      <point x="127.884" y="145" type="curve"/>
      <point x="127.884" y="97"/>
      <point x="150.367" y="82.1562"/>
      <point x="179.481" y="82.1562" type="curve" smooth="yes"/>
      <point x="179.481" y="0" type="line" smooth="yes"/>
      <point x="110.4" y="0.15625"/>
      <point x="21.0928" y="46.2764"/>
    </contour>
    <contour>
      <point x="140.957" y="129.615" type="curve" smooth="yes"/>
      <point x="140.957" y="107.364"/>
      <point x="158.59" y="89.4404"/>
      <point x="180.479" y="89.4404" type="curve" smooth="yes"/>
      <point x="202.367" y="89.4404"/>
      <point x="220" y="107.364"/>
      <point x="220" y="129.615" type="curve" smooth="yes"/>
      <point x="220" y="151.865"/>
      <point x="202.367" y="169.79"/>
      <point x="180.479" y="169.79" type="curve" smooth="yes"/>
      <point x="158.59" y="169.79"/>
      <point x="140.957" y="151.865"/>
    </contour>
    <contour>
      <point x="73" y="130" type="curve" smooth="yes"/>
      <point x="73" y="176"/>
      <point x="104" y="260"/>
      <point x="188" y="260" type="curve" smooth="yes"/>
      <point x="251.481" y="260"/>
      <point x="309.481" y="202"/>
      <point x="309.481" y="130" type="curve" smooth="yes"/>
      <point x="309.481" y="58"/>
      <point x="251.481" y="0"/>
      <point x="179.481" y="0" type="curve" smooth="yes"/>
      <point x="120.507" y="0"/>
      <point x="73" y="58"/>
    </contour>
  </outline>
</glyph>
<glyph name="si_E" format="1">
  <advance width="542"/>
  <unicode hex="0D91"/>
  <outline>
    <contour>
      <point x="221.616" y="601" type="curve" smooth="yes"/>
      <point x="221.616" y="667.849"/>
      <point x="272.94" y="685.932"/>
      <point x="272.94" y="709.823" type="curve" smooth="yes"/>
      <point x="272.94" y="716.953"/>
      <point x="268.479" y="724.23"/>
      <point x="256.616" y="733" type="curve"/>
      <point x="362.942" y="755" type="line"/>
      <point x="351.616" y="643" type="line"/>
      <point x="334.607" y="636.649"/>
      <point x="324.616" y="619.604"/>
      <point x="324.616" y="605" type="curve" smooth="yes"/>
      <point x="324.616" y="584.662"/>
      <point x="339.837" y="558"/>
      <point x="376.479" y="558" type="curve" smooth="yes"/>
      <point x="380.108" y="558"/>
      <point x="383.946" y="558.641"/>
      <point x="388" y="560" type="curve"/>
      <point x="474.942" y="524" type="line"/>
      <point x="413" y="461.236" type="line"/>
      <point x="405.844" y="460.402"/>
      <point x="398.758" y="460"/>
      <point x="391.768" y="460" type="curve" smooth="yes"/>
      <point x="298.145" y="460"/>
      <point x="221.616" y="529.569"/>
    </contour>
    <contour>
      <point x="28.1204" y="200.596" type="curve" smooth="yes"/>
      <point x="28.1204" y="243.27"/>
      <point x="40.4984" y="281.649"/>
      <point x="58.7617" y="306" type="curve"/>
      <point x="22" y="306" type="line"/>
      <point x="22" y="393" type="line"/>
      <point x="286.866" y="390" type="line"/>
      <point x="320.706" y="306" type="line"/>
      <point x="213.762" y="306" type="line" smooth="yes"/>
      <point x="156.977" y="306"/>
      <point x="136.743" y="261.911"/>
      <point x="136.743" y="214.068" type="curve" smooth="yes"/>
      <point x="136.743" y="166.573"/>
      <point x="166.077" y="115"/>
      <point x="246.762" y="115" type="curve" smooth="yes"/>
      <point x="351.214" y="115"/>
      <point x="405.762" y="181.018"/>
      <point x="405.762" y="340" type="curve" smooth="yes"/>
      <point x="405.762" y="415.912"/>
      <point x="404.376" y="484.646"/>
      <point x="388.459" y="545" type="curve"/>
      <point x="382.709" y="578.997"/>
      <point x="364.706" y="627.989"/>
      <point x="342.638" y="648" type="curve"/>
      <point x="321.139" y="682.766"/>
      <point x="291.071" y="712.203"/>
      <point x="256.616" y="733" type="curve"/>
      <point x="328.616" y="817" type="line"/>
      <point x="466.616" y="726"/>
      <point x="520.762" y="555.741"/>
      <point x="520.762" y="340" type="curve" smooth="yes"/>
      <point x="520.762" y="104"/>
      <point x="426.762" y="0"/>
      <point x="246.762" y="0" type="curve" smooth="yes"/>
      <point x="83.1154" y="0"/>
      <point x="28.1204" y="112.89"/>
    </contour>
    <contour>
      <point x="56.2979" y="409.272" type="curve" smooth="yes"/>
      <point x="56.2979" y="481.535"/>
      <point x="105.269" y="531.563"/>
      <point x="179.57" y="531.563" type="curve" smooth="yes"/>
      <point x="256.557" y="531.563"/>
      <point x="327.955" y="474.899"/>
      <point x="327.955" y="365.563" type="curve" smooth="yes"/>
      <point x="327.955" y="351"/>
      <point x="324.762" y="325"/>
      <point x="320.706" y="306" type="curve"/>
      <point x="230.326" y="371.875" type="line"/>
      <point x="231.267" y="376.783"/>
      <point x="231.741" y="381.77"/>
      <point x="231.741" y="386.714" type="curve" smooth="yes"/>
      <point x="231.741" y="416.144"/>
      <point x="214.927" y="444"/>
      <point x="179.57" y="444" type="curve" smooth="yes"/>
      <point x="154.771" y="444"/>
      <point x="145.778" y="426.134"/>
      <point x="145.778" y="404.787" type="curve" smooth="yes"/>
      <point x="145.778" y="386.793"/>
      <point x="158.063" y="370.325"/>
      <point x="166.762" y="356" type="curve"/>
      <point x="86.7617" y="318.563" type="line"/>
      <point x="66.7617" y="351"/>
      <point x="56.2979" y="380.62"/>
    </contour>
  </outline>
</glyph>
<glyph name="si_Oo" format="1">
  <advance width="578"/>
  <unicode hex="0D95"/>
  <outline>
    <contour>
      <point x="557" y="293" type="curve" smooth="yes"/>
      <point x="556.516" y="181.996"/>
      <point x="545.516" y="0"/>
      <point x="387.76" y="0" type="curve" smooth="yes"/>
      <point x="331.84" y="0"/>
      <point x="291.817" y="33.1445"/>
      <point x="276.997" y="79.0303" type="curve"/>
      <point x="260.852" y="31.6025"/>
      <point x="217.68" y="0"/>
      <point x="165" y="0" type="curve" smooth="yes"/>
      <point x="53" y="0"/>
      <point x="22" y="115"/>
      <point x="22" y="253" type="curve" smooth="yes"/>
      <point x="22" y="389"/>
      <point x="66.2871" y="527"/>
      <point x="170.287" y="527" type="curve" smooth="yes"/>
      <point x="234.287" y="527"/>
      <point x="274" y="481"/>
      <point x="275" y="438" type="curve" smooth="yes"/>
      <point x="186.706" y="412.547" type="line" smooth="yes"/>
      <point x="186.361" y="422.935"/>
      <point x="183.195" y="429"/>
      <point x="172.287" y="429" type="curve" smooth="yes"/>
      <point x="140.287" y="429"/>
      <point x="128.673" y="348"/>
      <point x="128.673" y="265.912" type="curve" smooth="yes"/>
      <point x="128.673" y="202"/>
      <point x="133" y="115"/>
      <point x="172.516" y="115" type="curve" smooth="yes"/>
      <point x="219.216" y="115"/>
      <point x="231.391" y="176.75"/>
      <point x="231.391" y="249.5" type="curve"/>
      <point x="327.302" y="249.5" type="line"/>
      <point x="327.302" y="176.75"/>
      <point x="340.645" y="115"/>
      <point x="383.635" y="115" type="curve" smooth="yes"/>
      <point x="435.847" y="115"/>
      <point x="442" y="239.96"/>
      <point x="442" y="293" type="curve" smooth="yes"/>
      <point x="442" y="527"/>
      <point x="350.321" y="581"/>
      <point x="229.81" y="581" type="curve" smooth="yes"/>
      <point x="192.268" y="581"/>
      <point x="140.054" y="564.031"/>
      <point x="110.81" y="538" type="curve"/>
      <point x="47.8096" y="620" type="line"/>
      <point x="115.81" y="684"/>
      <point x="194.81" y="690.976"/>
      <point x="245.81" y="690.976" type="curve" smooth="yes"/>
      <point x="435.099" y="690.976"/>
      <point x="557" y="587"/>
    </contour>
    <contour>
      <point x="387.244" y="565" type="curve"/>
      <point x="354.244" y="607" type="line"/>
      <point x="374.116" y="648" type="line"/>
      <point x="400.244" y="655"/>
      <point x="412.116" y="676.732"/>
      <point x="412.116" y="701" type="curve" smooth="yes"/>
      <point x="412.116" y="733.879"/>
      <point x="376.135" y="771"/>
      <point x="273.571" y="771" type="curve" smooth="yes"/>
      <point x="189.625" y="771"/>
      <point x="165.83" y="747.772"/>
      <point x="165.83" y="724.965" type="curve" smooth="yes"/>
      <point x="165.83" y="705.182"/>
      <point x="174.81" y="697"/>
      <point x="186.81" y="682" type="curve"/>
      <point x="182.81" y="649" type="line"/>
      <point x="99.8096" y="656" type="line"/>
      <point x="72.8096" y="680"/>
      <point x="58.8066" y="713.359"/>
      <point x="58.8066" y="743.688" type="curve" smooth="yes"/>
      <point x="58.8066" y="811.694"/>
      <point x="120.021" y="871"/>
      <point x="273.571" y="871" type="curve" smooth="yes"/>
      <point x="437.505" y="871"/>
      <point x="527.116" y="790.408"/>
      <point x="527.116" y="701" type="curve" smooth="yes"/>
      <point x="527.116" y="607"/>
      <point x="437.896" y="565"/>
    </contour>
    <contour>
      <point x="266" y="440" type="curve"/>
      <point x="230" y="498" type="line"/>
      <point x="242" y="513"/>
      <point x="256" y="526"/>
      <point x="289" y="526" type="curve" smooth="yes"/>
      <point x="349" y="526"/>
      <point x="379" y="469.646"/>
      <point x="379" y="412.095" type="curve" smooth="yes"/>
      <point x="379" y="347.138"/>
      <point x="368" y="275"/>
      <point x="282" y="275" type="curve" smooth="yes"/>
      <point x="194.427" y="275"/>
      <point x="181" y="346"/>
      <point x="186.706" y="412.547" type="curve"/>
      <point x="275" y="438" type="line"/>
      <point x="272" y="399"/>
      <point x="270" y="364"/>
      <point x="288" y="364" type="curve" smooth="yes"/>
      <point x="298.823" y="364"/>
      <point x="305.142" y="382.995"/>
      <point x="305.142" y="404.021" type="curve" smooth="yes"/>
      <point x="305.142" y="425.854"/>
      <point x="302.166" y="446.864"/>
      <point x="285.774" y="446.864" type="curve" smooth="yes"/>
      <point x="280.619" y="446.864"/>
      <point x="272" y="446"/>
    </contour>
  </outline>
</glyph>
<glyph name="si_Ka" format="1">
  <advance width="696"/>
  <unicode hex="0D9A"/>
  <outline>
    <contour>
      <point x="23.6279" y="126" type="curve"/>
      <point x="63" y="214" type="line"/>
      <point x="114.54" y="206" type="line"/>
      <point x="121.877" y="197"/>
      <point x="131" y="191.752"/>
      <point x="131" y="156" type="curve" smooth="yes"/>
      <point x="131" y="138.592"/>
      <point x="132.876" y="109"/>
      <point x="157" y="109" type="curve" smooth="yes"/>
      <point x="172.029" y="109"/>
      <point x="188.372" y="119"/>
      <point x="188.372" y="160" type="curve" smooth="yes"/>
      <point x="188.372" y="227" type="line"/>
      <point x="278.372" y="227" type="line"/>
      <point x="278.372" y="160" type="line" smooth="yes"/>
      <point x="278.372" y="122"/>
      <point x="291" y="109"/>
      <point x="310" y="109" type="curve" smooth="yes"/>
      <point x="345" y="109"/>
      <point x="350.088" y="165.987"/>
      <point x="350.088" y="210" type="curve" smooth="yes"/>
      <point x="350.088" y="313.592"/>
      <point x="295.942" y="350.945"/>
      <point x="248.341" y="350.945" type="curve" smooth="yes"/>
      <point x="238.05" y="350.945"/>
      <point x="228.066" y="349.2"/>
      <point x="219" y="346" type="curve"/>
      <point x="292" y="426" type="line"/>
      <point x="295.703" y="427.815"/>
      <point x="302.678" y="429.167"/>
      <point x="311.745" y="429.167" type="curve" smooth="yes"/>
      <point x="357.63" y="429.167"/>
      <point x="457.088" y="394.536"/>
      <point x="457.088" y="210" type="curve" smooth="yes"/>
      <point x="457.088" y="112.106"/>
      <point x="417.043" y="0"/>
      <point x="320" y="0" type="curve" smooth="yes"/>
      <point x="272.043" y="0"/>
      <point x="244.51" y="29"/>
      <point x="234" y="52" type="curve"/>
      <point x="224.963" y="31"/>
      <point x="198.014" y="0"/>
      <point x="154" y="0" type="curve" smooth="yes"/>
      <point x="76.9216" y="0"/>
      <point x="54.9891" y="46"/>
      <point x="54.9891" y="83" type="curve" smooth="yes"/>
      <point x="54.9891" y="111.4"/>
      <point x="48.8695" y="128.335"/>
      <point x="34.1622" y="128.335" type="curve" smooth="yes"/>
      <point x="31.0445" y="128.335"/>
      <point x="27.5409" y="127.574"/>
    </contour>
    <contour>
      <point x="441.088" y="585" type="curve" smooth="yes"/>
      <point x="558.716" y="585"/>
      <point x="668.716" y="486"/>
      <point x="668.716" y="263" type="curve" smooth="yes"/>
      <point x="668.716" y="58"/>
      <point x="595.6" y="0"/>
      <point x="492" y="0" type="curve" smooth="yes"/>
      <point x="416.086" y="0"/>
      <point x="387.285" y="58.0215"/>
      <point x="378" y="94" type="curve"/>
      <point x="446" y="158" type="line"/>
      <point x="447" y="134"/>
      <point x="450.372" y="103"/>
      <point x="492" y="103" type="curve" smooth="yes"/>
      <point x="535.103" y="103"/>
      <point x="557.716" y="137"/>
      <point x="557.716" y="263" type="curve" smooth="yes"/>
      <point x="557.716" y="399.94"/>
      <point x="505.94" y="473.229"/>
      <point x="431.359" y="473.229" type="curve" smooth="yes"/>
      <point x="378.359" y="473.229"/>
      <point x="350.578" y="457.001"/>
      <point x="311" y="416" type="curve" smooth="yes"/>
      <point x="308.69" y="413.607"/>
      <point x="200.241" y="290.753"/>
      <point x="116.256" y="206" type="curve" smooth="yes"/>
      <point x="70.6416" y="159.969"/>
      <point x="26.6045" y="128.701"/>
      <point x="23.6279" y="126" type="curve"/>
      <point x="19.6279" y="232" type="line"/>
      <point x="83.6377" y="297.921"/>
      <point x="163.552" y="405.911"/>
      <point x="239.088" y="489" type="curve" smooth="yes"/>
      <point x="289.142" y="544.059"/>
      <point x="351.088" y="585"/>
    </contour>
    <contour>
      <point x="151.615" y="594" type="curve" smooth="yes"/>
      <point x="228.605" y="594"/>
      <point x="300" y="537.336"/>
      <point x="300" y="428" type="curve" smooth="yes"/>
      <point x="300" y="396.735"/>
      <point x="289.088" y="389.899"/>
      <point x="264.088" y="369.899" type="curve"/>
      <point x="200.807" y="416.437" type="line" smooth="yes"/>
      <point x="201.868" y="422.679"/>
      <point x="202.371" y="428.648"/>
      <point x="202.371" y="434.312" type="curve" smooth="yes"/>
      <point x="202.371" y="471.944"/>
      <point x="178.526" y="496"/>
      <point x="150" y="496" type="curve" smooth="yes"/>
      <point x="122.166" y="496"/>
      <point x="108.575" y="475.013"/>
      <point x="108.575" y="451.903" type="curve" smooth="yes"/>
      <point x="108.575" y="411.899"/>
      <point x="135.799" y="394.899"/>
      <point x="165.799" y="387.899" type="curve"/>
      <point x="106.088" y="327.899" type="line"/>
      <point x="60.7988" y="344.899"/>
      <point x="16" y="391.899"/>
      <point x="16" y="461.536" type="curve" smooth="yes"/>
      <point x="16" y="532.132"/>
      <point x="64" y="594"/>
    </contour>
  </outline>
</glyph>
<glyph name="si_Kha" format="1">
  <advance width="575"/>
  <unicode hex="0D9B"/>
  <outline>
    <contour>
      <point x="554.24" y="293" type="curve" smooth="yes"/>
      <point x="553.756" y="181.996"/>
      <point x="537.125" y="0"/>
      <point x="396.125" y="0" type="curve" smooth="yes"/>
      <point x="334" y="0"/>
      <point x="306" y="42"/>
      <point x="294" y="74" type="curve"/>
      <point x="272" y="152" type="line"/>
      <point x="332" y="226" type="line"/>
      <point x="332" y="158"/>
      <point x="354" y="131.539"/>
      <point x="381.081" y="131.539" type="curve" smooth="yes"/>
      <point x="408.355" y="131.539"/>
      <point x="439.24" y="171.641"/>
      <point x="439.24" y="293" type="curve" smooth="yes"/>
      <point x="439.24" y="522.797"/>
      <point x="396.24" y="639.885"/>
      <point x="258.24" y="639.885" type="curve" smooth="yes"/>
      <point x="217.137" y="639.885"/>
      <point x="169.478" y="618.96"/>
      <point x="152.422" y="576.855" type="curve"/>
      <point x="43.3896" y="613.029" type="line"/>
      <point x="79.374" y="707.868"/>
      <point x="171.52" y="755"/>
      <point x="258.24" y="755" type="curve" smooth="yes"/>
      <point x="475.24" y="755"/>
      <point x="554.24" y="599.056"/>
    </contour>
    <contour>
      <point x="22" y="220" type="curve" smooth="yes"/>
      <point x="22" y="425.89"/>
      <point x="98" y="488.874"/>
      <point x="202.186" y="488.874" type="curve" smooth="yes"/>
      <point x="309.691" y="488.874"/>
      <point x="371.125" y="430"/>
      <point x="371.125" y="324" type="curve" smooth="yes"/>
      <point x="371.125" y="271.699"/>
      <point x="354.646" y="232.284"/>
      <point x="331" y="191" type="curve" smooth="yes"/>
      <point x="321.642" y="174.66"/>
      <point x="306.269" y="142.715"/>
      <point x="304" y="124" type="curve" smooth="yes"/>
      <point x="300.695" y="96.7317"/>
      <point x="299.273" y="65.6148"/>
      <point x="299.273" y="34.4391" type="curve" smooth="yes"/>
      <point x="299.273" y="-4.38983"/>
      <point x="301.479" y="-43.3101"/>
      <point x="305" y="-75" type="curve"/>
      <point x="198" y="-75" type="line"/>
      <point x="194.287" y="-50.4002"/>
      <point x="191.583" y="-14.6322"/>
      <point x="191.583" y="25.6523" type="curve" smooth="yes"/>
      <point x="191.583" y="72.1603"/>
      <point x="195.187" y="124.688"/>
      <point x="205" y="173" type="curve" smooth="yes"/>
      <point x="218" y="237"/>
      <point x="259.125" y="264"/>
      <point x="259.125" y="324" type="curve" smooth="yes"/>
      <point x="259.125" y="354"/>
      <point x="243.691" y="376.433"/>
      <point x="201" y="376.433" type="curve" smooth="yes"/>
      <point x="161.173" y="376.433"/>
      <point x="129" y="339.788"/>
      <point x="129" y="220" type="curve" smooth="yes"/>
      <point x="129" y="128"/>
      <point x="150" y="106"/>
      <point x="171" y="106" type="curve" smooth="yes"/>
      <point x="191" y="106"/>
      <point x="208" y="120"/>
      <point x="224" y="156" type="curve"/>
      <point x="280" y="73" type="line"/>
      <point x="237.89" y="36.5583"/>
      <point x="194.468" y="3.0619"/>
      <point x="148.724" y="3.0619" type="curve" smooth="yes"/>
      <point x="137.982" y="3.0619"/>
      <point x="127.111" y="4.90936"/>
      <point x="116.099" y="9" type="curve" smooth="yes"/>
      <point x="50.4241" y="33.3967"/>
      <point x="22" y="106.672"/>
    </contour>
  </outline>
</glyph>
<glyph name="si_Gha" format="1">
  <advance width="589"/>
  <unicode hex="0D9D"/>
  <outline>
    <contour>
      <point x="259.601" y="467.354" type="curve" smooth="yes"/>
      <point x="259.601" y="473.071"/>
      <point x="260.165" y="478.329"/>
      <point x="261.416" y="483" type="curve" smooth="yes"/>
      <point x="281.045" y="556.276"/>
      <point x="340.135" y="594"/>
      <point x="402.953" y="594" type="curve" smooth="yes"/>
      <point x="489.513" y="594"/>
      <point x="541.612" y="532.137"/>
      <point x="541.612" y="456.407" type="curve" smooth="yes"/>
      <point x="541.612" y="428.149"/>
      <point x="530.364" y="394.649"/>
      <point x="510.227" y="369.03" type="curve"/>
      <point x="433.518" y="410.437" type="line"/>
      <point x="441.501" y="419.561"/>
      <point x="448.137" y="439.108"/>
      <point x="448.137" y="451.164" type="curve" smooth="yes"/>
      <point x="448.137" y="475"/>
      <point x="433.924" y="496"/>
      <point x="398.78" y="496" type="curve" smooth="yes"/>
      <point x="376.042" y="496"/>
      <point x="347.216" y="481.03"/>
      <point x="347.216" y="434.342" type="curve" smooth="yes"/>
      <point x="347.216" y="428.679"/>
      <point x="347.719" y="422.242"/>
      <point x="348.78" y="416" type="curve" smooth="yes"/>
      <point x="302.28" y="318.437" type="line"/>
      <point x="289.669" y="359.423"/>
      <point x="259.601" y="425.625"/>
    </contour>
    <contour>
      <point x="144.561" y="207" type="curve" smooth="yes"/>
      <point x="144.561" y="157.265"/>
      <point x="151.986" y="115"/>
      <point x="187.28" y="115" type="curve" smooth="yes"/>
      <point x="200.347" y="115"/>
      <point x="203.831" y="123.059"/>
      <point x="203.831" y="135.414" type="curve" smooth="yes"/>
      <point x="203.831" y="149.535"/>
      <point x="194.78" y="169.269"/>
      <point x="194.78" y="189" type="curve" smooth="yes"/>
      <point x="194.78" y="242.559"/>
      <point x="228.178" y="266"/>
      <point x="302.28" y="266" type="curve" smooth="yes"/>
      <point x="376.382" y="266"/>
      <point x="409.78" y="242.559"/>
      <point x="409.78" y="189" type="curve" smooth="yes"/>
      <point x="409.78" y="169.269"/>
      <point x="400.729" y="149.535"/>
      <point x="400.729" y="135.414" type="curve" smooth="yes"/>
      <point x="400.729" y="123.059"/>
      <point x="404.214" y="115"/>
      <point x="417.28" y="115" type="curve" smooth="yes"/>
      <point x="452.574" y="115"/>
      <point x="460" y="157.265"/>
      <point x="460" y="207" type="curve" smooth="yes"/>
      <point x="460" y="258.726"/>
      <point x="440.043" y="318"/>
      <point x="399.762" y="318" type="curve" smooth="yes"/>
      <point x="204.799" y="318" type="line" smooth="yes"/>
      <point x="164.043" y="318"/>
      <point x="144.561" y="258.09"/>
    </contour>
    <contour>
      <point x="37.5605" y="207" type="curve" smooth="yes"/>
      <point x="37.5605" y="248.301"/>
      <point x="49.043" y="294"/>
      <point x="63.043" y="319.563" type="curve"/>
      <point x="22.2266" y="319.667" type="line"/>
      <point x="22.2266" y="416" type="line"/>
      <point x="417.043" y="416" type="line" smooth="yes"/>
      <point x="450.78" y="416"/>
      <point x="482.002" y="400.309"/>
      <point x="505.227" y="380.399" type="curve" smooth="yes"/>
      <point x="547.661" y="344.021"/>
      <point x="567" y="287.785"/>
      <point x="567" y="207" type="curve" smooth="yes"/>
      <point x="567" y="95.0957"/>
      <point x="528.894" y="0"/>
      <point x="417.28" y="0" type="curve" smooth="yes"/>
      <point x="350.806" y="0"/>
      <point x="318.28" y="54"/>
      <point x="318.28" y="94" type="curve" smooth="yes"/>
      <point x="318.28" y="125"/>
      <point x="324.28" y="141.674"/>
      <point x="324.28" y="158" type="curve" smooth="yes"/>
      <point x="324.28" y="171.093"/>
      <point x="319.28" y="180"/>
      <point x="302.28" y="180" type="curve" smooth="yes"/>
      <point x="285.28" y="180"/>
      <point x="280.28" y="171.093"/>
      <point x="280.28" y="158" type="curve" smooth="yes"/>
      <point x="280.28" y="141.674"/>
      <point x="286.28" y="125"/>
      <point x="286.28" y="94" type="curve" smooth="yes"/>
      <point x="286.28" y="54"/>
      <point x="253.755" y="0"/>
      <point x="187.28" y="0" type="curve" smooth="yes"/>
      <point x="75.667" y="0"/>
      <point x="37.5605" y="95.0957"/>
    </contour>
    <contour>
      <point x="65.9922" y="461.536" type="curve" smooth="yes"/>
      <point x="65.9922" y="532.132"/>
      <point x="113.992" y="594"/>
      <point x="201.607" y="594" type="curve" smooth="yes"/>
      <point x="264.426" y="594"/>
      <point x="323.519" y="556.277"/>
      <point x="343.145" y="483" type="curve" smooth="yes"/>
      <point x="344.396" y="478.329"/>
      <point x="344.96" y="473.071"/>
      <point x="344.96" y="467.354" type="curve" smooth="yes"/>
      <point x="344.96" y="425.625"/>
      <point x="314.892" y="359.423"/>
      <point x="302.28" y="318.437" type="curve"/>
      <point x="255.78" y="416" type="line" smooth="yes"/>
      <point x="256.842" y="422.253"/>
      <point x="257.345" y="428.669"/>
      <point x="257.345" y="434.342" type="curve" smooth="yes"/>
      <point x="257.345" y="481.03"/>
      <point x="228.519" y="496"/>
      <point x="205.78" y="496" type="curve" smooth="yes"/>
      <point x="173.738" y="496"/>
      <point x="158.838" y="474.293"/>
      <point x="158.838" y="450.723" type="curve" smooth="yes"/>
      <point x="158.838" y="437.757"/>
      <point x="163.347" y="424.227"/>
      <point x="171.992" y="413.437" type="curve"/>
      <point x="96.2812" y="375.437" type="line"/>
      <point x="75.2549" y="403.236"/>
      <point x="65.9922" y="433.095"/>
    </contour>
  </outline>
</glyph>
<glyph name="si_Nga" format="1">
  <advance width="574"/>
  <unicode hex="0D9E"/>
  <outline>
    <contour>
      <point x="-147.244" y="293" type="curve" smooth="yes"/>
      <point x="-147.244" y="181.996"/>
      <point x="-148.244" y="0"/>
      <point x="-319" y="0" type="curve" smooth="yes"/>
      <point x="-374.92" y="0"/>
      <point x="-412.942" y="33.1445"/>
      <point x="-427.763" y="79.0303" type="curve"/>
      <point x="-443.908" y="31.6025"/>
      <point x="-483.32" y="0"/>
      <point x="-536" y="0" type="curve" smooth="yes"/>
      <point x="-651.8" y="0"/>
      <point x="-680.482" y="105.454"/>
      <point x="-680.482" y="193.437" type="curve" smooth="yes"/>
      <point x="-680.482" y="272.337"/>
      <point x="-643.933" y="331.214"/>
      <point x="-587.475" y="358" type="curve"/>
      <point x="-569" y="349"/>
      <point x="-526" y="351"/>
      <point x="-526" y="373.58" type="curve"/>
      <point x="-521.901" y="373.847"/>
      <point x="-517.75" y="373.981"/>
      <point x="-513.549" y="373.981" type="curve" smooth="yes"/>
      <point x="-471.155" y="373.981"/>
      <point x="-470.047" y="368.651"/>
      <point x="-444.187" y="368.651" type="curve" smooth="yes"/>
      <point x="-427.233" y="368.651"/>
      <point x="-416.697" y="380"/>
      <point x="-416.697" y="400" type="curve" smooth="yes"/>
      <point x="-416.697" y="435.636"/>
      <point x="-451.6" y="442"/>
      <point x="-490.197" y="442" type="curve" smooth="yes"/>
      <point x="-503.26" y="442"/>
      <point x="-516.309" y="427.402"/>
      <point x="-529.197" y="425.293" type="curve"/>
      <point x="-566.197" y="462"/>
      <point x="-612" y="461.825"/>
      <point x="-612" y="401" type="curve"/>
      <point x="-690" y="401" type="line"/>
      <point x="-690" y="495.918"/>
      <point x="-592.743" y="527"/>
      <point x="-499" y="527" type="curve" smooth="yes"/>
      <point x="-421.186" y="527"/>
      <point x="-321.346" y="501.325"/>
      <point x="-321.346" y="401" type="curve" smooth="yes"/>
      <point x="-321.346" y="313.022"/>
      <point x="-363.513" y="290"/>
      <point x="-427" y="290" type="curve" smooth="yes"/>
      <point x="-450.406" y="290"/>
      <point x="-471.357" y="295"/>
      <point x="-495" y="295" type="curve" smooth="yes"/>
      <point x="-541.721" y="295"/>
      <point x="-573.482" y="261.418"/>
      <point x="-573.482" y="193.437" type="curve" smooth="yes"/>
      <point x="-573.482" y="156.328"/>
      <point x="-567.809" y="114.652"/>
      <point x="-530.551" y="114.652" type="curve" smooth="yes"/>
      <point x="-488.375" y="114.652"/>
      <point x="-473.369" y="179.678"/>
      <point x="-473.369" y="249.5" type="curve"/>
      <point x="-377.458" y="249.5" type="line"/>
      <point x="-377.458" y="176.75"/>
      <point x="-361.99" y="115"/>
      <point x="-319" y="115" type="curve" smooth="yes"/>
      <point x="-262.244" y="115"/>
      <point x="-262.244" y="239.958"/>
      <point x="-262.244" y="293" type="curve" smooth="yes"/>
      <point x="-262.244" y="522.797"/>
      <point x="-305.244" y="639.885"/>
      <point x="-443.244" y="639.885" type="curve" smooth="yes"/>
      <point x="-484.348" y="639.885"/>
      <point x="-532.007" y="618.96"/>
      <point x="-549.062" y="576.855" type="curve"/>
      <point x="-658.095" y="613.029" type="line"/>
      <point x="-622.11" y="707.868"/>
      <point x="-529.965" y="755"/>
      <point x="-443.244" y="755" type="curve" smooth="yes"/>
      <point x="-226.244" y="755"/>
      <point x="-147.244" y="599.056"/>
    </contour>
    <contour>
      <point x="-689.65" y="397.65" type="curve" smooth="yes"/>
      <point x="-689.65" y="462.81"/>
      <point x="-637.16" y="515.3"/>
      <point x="-572" y="515.3" type="curve" smooth="yes"/>
      <point x="-506.841" y="515.3"/>
      <point x="-454.351" y="462.81"/>
      <point x="-454.351" y="397.65" type="curve" smooth="yes"/>
      <point x="-454.351" y="332.49"/>
      <point x="-506.841" y="280"/>
      <point x="-572" y="280" type="curve" smooth="yes"/>
      <point x="-637.16" y="280"/>
      <point x="-689.65" y="332.49"/>
    </contour>
    <contour>
      <point x="-610.665" y="397.302" type="curve" smooth="yes"/>
      <point x="-610.665" y="375.051"/>
      <point x="-593.032" y="357.127"/>
      <point x="-571.144" y="357.127" type="curve" smooth="yes"/>
      <point x="-549.255" y="357.127"/>
      <point x="-531.622" y="375.051"/>
      <point x="-531.622" y="397.302" type="curve" smooth="yes"/>
      <point x="-531.622" y="419.552"/>
      <point x="-549.255" y="437.477"/>
      <point x="-571.144" y="437.477" type="curve" smooth="yes"/>
      <point x="-593.032" y="437.477"/>
      <point x="-610.665" y="419.552"/>
    </contour>
    <contour>
      <point x="132.518" y="193.437" type="curve" smooth="yes"/>
      <point x="132.518" y="156.328"/>
      <point x="138.191" y="114.652"/>
      <point x="175.449" y="114.652" type="curve" smooth="yes"/>
      <point x="217.625" y="114.652"/>
      <point x="232.631" y="179.678"/>
      <point x="232.631" y="249.5" type="curve"/>
      <point x="328.542" y="249.5" type="line"/>
      <point x="328.542" y="176.75"/>
      <point x="344.01" y="115"/>
      <point x="387" y="115" type="curve" smooth="yes"/>
      <point x="443.756" y="115"/>
      <point x="443.756" y="239.958"/>
      <point x="443.756" y="293" type="curve" smooth="yes"/>
      <point x="443.756" y="522.797"/>
      <point x="400.756" y="639.885"/>
      <point x="262.756" y="639.885" type="curve" smooth="yes"/>
      <point x="221.652" y="639.885"/>
      <point x="173.993" y="618.96"/>
      <point x="156.938" y="576.855" type="curve"/>
      <point x="47.9053" y="613.029" type="line"/>
      <point x="83.8896" y="707.868"/>
      <point x="176.035" y="755"/>
      <point x="262.756" y="755" type="curve" smooth="yes"/>
      <point x="479.756" y="755"/>
      <point x="558.756" y="599.056"/>
      <point x="558.756" y="293" type="curve" smooth="yes"/>
      <point x="558.756" y="181.996"/>
      <point x="557.756" y="0"/>
      <point x="387" y="0" type="curve" smooth="yes"/>
      <point x="331.08" y="0"/>
      <point x="293.058" y="33.1445"/>
      <point x="278.237" y="79.0303" type="curve"/>
      <point x="262.092" y="31.6025"/>
      <point x="222.68" y="0"/>
      <point x="170" y="0" type="curve" smooth="yes"/>
      <point x="54.2002" y="0"/>
      <point x="25.5176" y="105.454"/>
      <point x="25.5176" y="193.437" type="curve" smooth="yes"/>
      <point x="25.5176" y="265.169"/>
      <point x="51.874" y="310.636"/>
      <point x="86.333" y="338" type="curve"/>
      <point x="111" y="334"/>
      <point x="132" y="346"/>
      <point x="142" y="366.545" type="curve"/>
      <point x="159.655" y="371.775"/>
      <point x="177.083" y="373.981"/>
      <point x="192.451" y="373.981" type="curve" smooth="yes"/>
      <point x="234.845" y="373.981"/>
      <point x="244.15" y="368.651"/>
      <point x="270.011" y="368.651" type="curve" smooth="yes"/>
      <point x="286.964" y="368.651"/>
      <point x="297.5" y="382.262"/>
      <point x="297.5" y="394.651" type="curve" smooth="yes"/>
      <point x="297.5" y="420.045"/>
      <point x="263.073" y="428.651"/>
      <point x="224.476" y="428.651" type="curve" smooth="yes"/>
      <point x="211.413" y="428.651"/>
      <point x="197.889" y="427.402"/>
      <point x="185" y="425.293" type="curve"/>
      <point x="128" y="439"/>
      <point x="59.3496" y="442"/>
      <point x="59.3496" y="381.175" type="curve"/>
      <point x="-18.6504" y="381.175" type="line"/>
      <point x="-18.6504" y="493"/>
      <point x="90.1514" y="517"/>
      <point x="173" y="517" type="curve" smooth="yes"/>
      <point x="260.536" y="517"/>
      <point x="392.852" y="506.105"/>
      <point x="392.852" y="389.293" type="curve" smooth="yes"/>
      <point x="392.852" y="336.646"/>
      <point x="350.685" y="290"/>
      <point x="287.197" y="290" type="curve" smooth="yes"/>
      <point x="263.791" y="290"/>
      <point x="234.643" y="295"/>
      <point x="211" y="295" type="curve" smooth="yes"/>
      <point x="164.279" y="295"/>
      <point x="132.518" y="261.418"/>
    </contour>
    <contour>
      <point x="-18.6504" y="381.175" type="curve" smooth="yes"/>
      <point x="-18.6504" y="446.334"/>
      <point x="33.8398" y="498.824"/>
      <point x="99" y="498.824" type="curve" smooth="yes"/>
      <point x="164.159" y="498.824"/>
      <point x="216.649" y="446.334"/>
      <point x="216.649" y="381.175" type="curve" smooth="yes"/>
      <point x="216.649" y="316.015"/>
      <point x="164.159" y="263.524"/>
      <point x="99" y="263.524" type="curve" smooth="yes"/>
      <point x="33.8398" y="263.524"/>
      <point x="-18.6504" y="316.015"/>
    </contour>
    <contour>
      <point x="60.335" y="380.826" type="curve" smooth="yes"/>
      <point x="60.335" y="358.575"/>
      <point x="77.9678" y="340.651"/>
      <point x="99.8564" y="340.651" type="curve" smooth="yes"/>
      <point x="121.745" y="340.651"/>
      <point x="139.378" y="358.575"/>
      <point x="139.378" y="380.826" type="curve" smooth="yes"/>
      <point x="139.378" y="403.076"/>
      <point x="121.745" y="421.001"/>
      <point x="99.8564" y="421.001" type="curve" smooth="yes"/>
      <point x="77.9678" y="421.001"/>
      <point x="60.335" y="403.076"/>
    </contour>
  </outline>
</glyph>
<glyph name="si_Nnga" format="1">
  <advance width="829"/>
  <unicode hex="0D9F"/>
  <outline>
    <contour>
      <point x="387.628" y="301.156" type="line"/>
      <point x="434.854" y="331.127"/>
      <point x="437.022" y="363.443"/>
      <point x="437.022" y="393.096" type="curve" smooth="yes"/>
      <point x="437.022" y="399.567"/>
      <point x="437.217" y="405.869"/>
      <point x="437.596" y="412" type="curve" smooth="yes"/>
      <point x="444.906" y="530.113"/>
      <point x="520.977" y="585.156"/>
      <point x="602" y="585.156" type="curve" smooth="yes"/>
      <point x="708.999" y="585.156"/>
      <point x="807" y="527.531"/>
      <point x="807" y="293.156" type="curve" smooth="yes"/>
      <point x="807" y="70.582"/>
      <point x="722.228" y="1.15625"/>
      <point x="618.628" y="1.15625" type="curve" smooth="yes"/>
      <point x="542.714" y="1.15625"/>
      <point x="501.285" y="51.1777"/>
      <point x="492" y="87.1562" type="curve"/>
      <point x="557" y="159.156" type="line"/>
      <point x="562.177" y="142.57"/>
      <point x="577" y="107.156"/>
      <point x="618.628" y="107.156" type="curve" smooth="yes"/>
      <point x="661.73" y="107.156"/>
      <point x="698" y="151.497"/>
      <point x="698" y="293.156" type="curve" smooth="yes"/>
      <point x="698" y="440.703"/>
      <point x="651.585" y="478.156"/>
      <point x="602" y="478.156" type="curve" smooth="yes"/>
      <point x="556.726" y="478.156"/>
      <point x="542.47" y="448.257"/>
      <point x="539.594" y="390" type="curve" smooth="yes"/>
      <point x="539.178" y="381.59"/>
      <point x="539" y="372.588"/>
      <point x="539" y="363" type="curve" smooth="yes"/>
      <point x="539" y="287.156"/>
      <point x="494" y="255"/>
      <point x="434" y="221" type="curve"/>
    </contour>
    <contour>
      <point x="193" y="293" type="curve" smooth="yes"/>
      <point x="193" y="515.574"/>
      <point x="277.772" y="585"/>
      <point x="381.372" y="585" type="curve" smooth="yes"/>
      <point x="457.286" y="585"/>
      <point x="498.715" y="534.979"/>
      <point x="508" y="499" type="curve"/>
      <point x="443" y="427" type="line"/>
      <point x="437.823" y="443.586"/>
      <point x="423" y="479"/>
      <point x="381.372" y="479" type="curve" smooth="yes"/>
      <point x="338.27" y="479"/>
      <point x="302" y="434.659"/>
      <point x="302" y="293" type="curve" smooth="yes"/>
      <point x="302" y="145.453"/>
      <point x="348.415" y="108"/>
      <point x="398" y="108" type="curve" smooth="yes"/>
      <point x="459" y="108"/>
      <point x="477.628" y="147.156"/>
      <point x="477.628" y="185.156" type="curve" smooth="yes"/>
      <point x="477.628" y="220.156"/>
      <point x="461.891" y="232.251"/>
      <point x="449.628" y="237.156" type="curve"/>
      <point x="512.628" y="307.156" type="line"/>
      <point x="548.628" y="295.449"/>
      <point x="579.628" y="244.156"/>
      <point x="579.628" y="190.156" type="curve" smooth="yes"/>
      <point x="579.628" y="95.7305"/>
      <point x="528.561" y="1"/>
      <point x="398" y="1" type="curve" smooth="yes"/>
      <point x="291.001" y="1"/>
      <point x="193" y="58.625"/>
    </contour>
    <contour>
      <point x="21.0928" y="283.844" type="curve" smooth="yes"/>
      <point x="21.0928" y="506.418"/>
      <point x="106.274" y="583.844"/>
      <point x="210.372" y="583.844" type="curve" smooth="yes"/>
      <point x="279.692" y="583.844"/>
      <point x="317.521" y="527.424"/>
      <point x="326" y="486.844" type="curve"/>
      <point x="272" y="425.844" type="line"/>
      <point x="266.823" y="442.43"/>
      <point x="252" y="479.844"/>
      <point x="210.372" y="479.844" type="curve" smooth="yes"/>
      <point x="166.795" y="479.844"/>
      <point x="127.093" y="425.503"/>
      <point x="127.093" y="283.844" type="curve" smooth="yes"/>
      <point x="127.093" y="131.5"/>
      <point x="150.872" y="101.844"/>
      <point x="184.093" y="101.844" type="curve" smooth="yes"/>
      <point x="184.093" y="-0.15625" type="line" smooth="yes"/>
      <point x="89.0928" y="-0.15625"/>
      <point x="21.0928" y="46.1205"/>
    </contour>
  </outline>
</glyph>
<glyph name="si_Ca" format="1">
  <advance width="531"/>
  <unicode hex="0DA0"/>
  <outline>
    <contour>
      <point x="28.3584" y="200.596" type="curve" smooth="yes"/>
      <point x="28.3584" y="243.271"/>
      <point x="40.7363" y="281.649"/>
      <point x="59" y="306" type="curve"/>
      <point x="22.2383" y="306" type="line"/>
      <point x="22.2383" y="393" type="line"/>
      <point x="287.104" y="390" type="line"/>
      <point x="320.944" y="306" type="line"/>
      <point x="214" y="306" type="line" smooth="yes"/>
      <point x="157.215" y="306"/>
      <point x="136.981" y="261.911"/>
      <point x="136.981" y="214.068" type="curve" smooth="yes"/>
      <point x="136.981" y="166.573"/>
      <point x="166.315" y="115"/>
      <point x="247" y="115" type="curve" smooth="yes"/>
      <point x="351.452" y="115"/>
      <point x="393" y="195.018"/>
      <point x="393" y="354" type="curve" smooth="yes"/>
      <point x="393" y="583"/>
      <point x="321.68" y="640"/>
      <point x="238.854" y="640" type="curve" smooth="yes"/>
      <point x="197.751" y="640"/>
      <point x="157.666" y="618.96"/>
      <point x="140.61" y="576.855" type="curve"/>
      <point x="31.5781" y="613.029" type="line"/>
      <point x="67.5625" y="707.868"/>
      <point x="152.134" y="755"/>
      <point x="238.854" y="755" type="curve" smooth="yes"/>
      <point x="378.326" y="755"/>
      <point x="509" y="675.859"/>
      <point x="509" y="354" type="curve" smooth="yes"/>
      <point x="508" y="118"/>
      <point x="427" y="0"/>
      <point x="247" y="0" type="curve" smooth="yes"/>
      <point x="83.3535" y="0"/>
      <point x="28.3584" y="112.89"/>
    </contour>
    <contour>
      <point x="56.5361" y="409.272" type="curve" smooth="yes"/>
      <point x="56.5361" y="481.535"/>
      <point x="105.507" y="531.563"/>
      <point x="179.809" y="531.563" type="curve" smooth="yes"/>
      <point x="256.795" y="531.563"/>
      <point x="328.193" y="474.899"/>
      <point x="328.193" y="365.563" type="curve" smooth="yes"/>
      <point x="328.193" y="351"/>
      <point x="325" y="325"/>
      <point x="320.944" y="306" type="curve"/>
      <point x="230.564" y="371.875" type="line"/>
      <point x="231.505" y="376.782"/>
      <point x="231.979" y="381.771"/>
      <point x="231.979" y="386.714" type="curve" smooth="yes"/>
      <point x="231.979" y="416.144"/>
      <point x="215.166" y="444"/>
      <point x="179.809" y="444" type="curve" smooth="yes"/>
      <point x="155.009" y="444"/>
      <point x="146.017" y="426.134"/>
      <point x="146.017" y="404.787" type="curve" smooth="yes"/>
      <point x="146.017" y="386.793"/>
      <point x="158.302" y="370.325"/>
      <point x="167" y="356" type="curve"/>
      <point x="87" y="318.563" type="line"/>
      <point x="67" y="351"/>
      <point x="56.5361" y="380.62"/>
    </contour>
  </outline>
</glyph>
<glyph name="si_Cha" format="1">
  <advance width="566"/>
  <unicode hex="0DA1"/>
  <outline>
    <contour>
      <point x="363.039" y="576" type="line" smooth="yes"/>
      <point x="472.748" y="688.385"/>
      <point x="479.176" y="723.753"/>
      <point x="479.176" y="779" type="curve"/>
      <point x="589.176" y="779" type="line"/>
      <point x="589.176" y="681.148"/>
      <point x="538.898" y="617"/>
      <point x="461.176" y="537" type="curve" smooth="yes"/>
    </contour>
    <contour>
      <point x="244.041" y="467.354" type="curve" smooth="yes"/>
      <point x="244.041" y="473.071"/>
      <point x="244.605" y="478.329"/>
      <point x="245.856" y="483" type="curve" smooth="yes"/>
      <point x="265.485" y="556.276"/>
      <point x="324.575" y="594"/>
      <point x="387.394" y="594" type="curve" smooth="yes"/>
      <point x="473.953" y="594"/>
      <point x="536.951" y="538.437"/>
      <point x="536.951" y="408.68" type="curve" smooth="yes"/>
      <point x="536.951" y="262.437"/>
      <point x="458.476" y="191.437"/>
      <point x="360.476" y="191.437" type="curve" smooth="yes"/>
      <point x="287.904" y="191.437"/>
      <point x="253.848" y="239.871"/>
      <point x="253.848" y="282.802" type="curve" smooth="yes"/>
      <point x="253.848" y="296.07"/>
      <point x="257.101" y="308.812"/>
      <point x="263.476" y="319.437" type="curve"/>
      <point x="352.476" y="318.437" type="line"/>
      <point x="342.757" y="315.901"/>
      <point x="337.858" y="308.278"/>
      <point x="337.858" y="300.319" type="curve" smooth="yes"/>
      <point x="337.858" y="289.444"/>
      <point x="347.005" y="277.943"/>
      <point x="365.493" y="277.943" type="curve" smooth="yes"/>
      <point x="406.476" y="277.943"/>
      <point x="443.476" y="302.437"/>
      <point x="443.476" y="403.437" type="curve" smooth="yes"/>
      <point x="443.476" y="474.437"/>
      <point x="414.759" y="496"/>
      <point x="383.221" y="496" type="curve" smooth="yes"/>
      <point x="360.482" y="496"/>
      <point x="331.656" y="481.03"/>
      <point x="331.656" y="434.342" type="curve" smooth="yes"/>
      <point x="331.656" y="428.679"/>
      <point x="332.159" y="422.242"/>
      <point x="333.221" y="416" type="curve" smooth="yes"/>
      <point x="286.721" y="318.437" type="line"/>
      <point x="274.109" y="359.423"/>
      <point x="244.041" y="425.625"/>
    </contour>
    <contour>
      <point x="129" y="224" type="curve" smooth="yes"/>
      <point x="129.001" y="144.037"/>
      <point x="207.712" y="104.167"/>
      <point x="286.497" y="104.167" type="curve" smooth="yes"/>
      <point x="365.431" y="104.167"/>
      <point x="444.439" y="144.187"/>
      <point x="444.439" y="224" type="curve" smooth="yes"/>
      <point x="444.439" y="275.726"/>
      <point x="417" y="318"/>
      <point x="362" y="318" type="curve" smooth="yes"/>
      <point x="211.439" y="318" type="line" smooth="yes"/>
      <point x="156.443" y="318"/>
      <point x="129" y="276.868"/>
    </contour>
    <contour>
      <point x="22" y="224" type="curve" smooth="yes"/>
      <point x="22" y="329.377"/>
      <point x="83.0566" y="416"/>
      <point x="205.439" y="416" type="curve" smooth="yes"/>
      <point x="368" y="416" type="line" smooth="yes"/>
      <point x="490.383" y="416"/>
      <point x="551.439" y="329.652"/>
      <point x="551.439" y="224" type="curve" smooth="yes"/>
      <point x="551.439" y="66.501"/>
      <point x="419.08" y="-12.249"/>
      <point x="286.721" y="-12.249" type="curve" smooth="yes"/>
      <point x="154.36" y="-12.249"/>
      <point x="22" y="66.502"/>
    </contour>
    <contour>
      <point x="47.3887" y="456.407" type="curve" smooth="yes"/>
      <point x="47.3887" y="532.137"/>
      <point x="99.4883" y="594"/>
      <point x="186.048" y="594" type="curve" smooth="yes"/>
      <point x="248.866" y="594"/>
      <point x="307.959" y="556.277"/>
      <point x="327.585" y="483" type="curve" smooth="yes"/>
      <point x="328.836" y="478.329"/>
      <point x="329.4" y="473.071"/>
      <point x="329.4" y="467.354" type="curve" smooth="yes"/>
      <point x="329.4" y="425.625"/>
      <point x="299.332" y="359.423"/>
      <point x="286.721" y="318.437" type="curve"/>
      <point x="240.221" y="416" type="line" smooth="yes"/>
      <point x="241.282" y="422.242"/>
      <point x="241.785" y="428.679"/>
      <point x="241.785" y="434.342" type="curve" smooth="yes"/>
      <point x="241.785" y="481.03"/>
      <point x="212.959" y="496"/>
      <point x="190.221" y="496" type="curve" smooth="yes"/>
      <point x="155.077" y="496"/>
      <point x="140.864" y="475"/>
      <point x="140.864" y="451.164" type="curve" smooth="yes"/>
      <point x="140.864" y="439.108"/>
      <point x="147.5" y="419.561"/>
      <point x="155.483" y="410.437" type="curve"/>
      <point x="78.7744" y="369.03" type="line"/>
      <point x="58.6367" y="394.649"/>
      <point x="47.3887" y="428.149"/>
    </contour>
  </outline>
</glyph>
<glyph name="si_Ja" format="1">
  <advance width="618"/>
  <unicode hex="0DA2"/>
  <outline>
    <contour>
      <point x="254.82" y="467.354" type="curve" smooth="yes"/>
      <point x="254.82" y="473.071"/>
      <point x="255.385" y="478.329"/>
      <point x="256.636" y="483" type="curve" smooth="yes"/>
      <point x="276.262" y="556.277"/>
      <point x="335.354" y="594"/>
      <point x="398.173" y="594" type="curve" smooth="yes"/>
      <point x="484.732" y="594"/>
      <point x="536.832" y="532.137"/>
      <point x="536.832" y="456.407" type="curve" smooth="yes"/>
      <point x="536.832" y="428.149"/>
      <point x="525.584" y="394.649"/>
      <point x="505.446" y="369.03" type="curve"/>
      <point x="428.737" y="410.437" type="line"/>
      <point x="436.721" y="419.561"/>
      <point x="443.356" y="439.108"/>
      <point x="443.356" y="451.164" type="curve" smooth="yes"/>
      <point x="443.356" y="475"/>
      <point x="429.144" y="496"/>
      <point x="394" y="496" type="curve" smooth="yes"/>
      <point x="371.262" y="496"/>
      <point x="342.436" y="481.03"/>
      <point x="342.436" y="434.342" type="curve" smooth="yes"/>
      <point x="342.436" y="428.679"/>
      <point x="342.938" y="422.242"/>
      <point x="344" y="416" type="curve" smooth="yes"/>
      <point x="297.5" y="318.437" type="line"/>
      <point x="284.889" y="359.423"/>
      <point x="254.82" y="425.625"/>
    </contour>
    <contour>
      <point x="58.168" y="456.407" type="curve" smooth="yes"/>
      <point x="58.168" y="532.137"/>
      <point x="110.268" y="594"/>
      <point x="196.827" y="594" type="curve" smooth="yes"/>
      <point x="259.646" y="594"/>
      <point x="318.738" y="556.277"/>
      <point x="338.364" y="483" type="curve" smooth="yes"/>
      <point x="339.615" y="478.329"/>
      <point x="340.18" y="473.071"/>
      <point x="340.18" y="467.354" type="curve" smooth="yes"/>
      <point x="340.18" y="425.625"/>
      <point x="310.111" y="359.422"/>
      <point x="297.5" y="318.437" type="curve"/>
      <point x="251" y="416" type="line" smooth="yes"/>
      <point x="252.062" y="422.242"/>
      <point x="252.564" y="428.679"/>
      <point x="252.564" y="434.342" type="curve" smooth="yes"/>
      <point x="252.564" y="481.03"/>
      <point x="223.738" y="496"/>
      <point x="201" y="496" type="curve" smooth="yes"/>
      <point x="165.856" y="496"/>
      <point x="151.644" y="475"/>
      <point x="151.644" y="451.164" type="curve" smooth="yes"/>
      <point x="151.644" y="439.108"/>
      <point x="158.279" y="419.561"/>
      <point x="166.263" y="410.437" type="curve"/>
      <point x="89.5537" y="369.03" type="line"/>
      <point x="69.4158" y="394.65"/>
      <point x="58.168" y="428.15"/>
    </contour>
    <contour>
      <point x="373.818" y="576" type="line" smooth="yes"/>
      <point x="483.528" y="688.385"/>
      <point x="489.955" y="723.753"/>
      <point x="489.955" y="779" type="curve"/>
      <point x="599.955" y="779" type="line"/>
      <point x="599.955" y="681.149"/>
      <point x="549.677" y="617"/>
      <point x="471.955" y="537" type="curve" smooth="yes"/>
    </contour>
    <contour>
      <point x="139.779" y="224" type="curve" smooth="yes"/>
      <point x="139.779" y="144.037"/>
      <point x="218.491" y="104.167"/>
      <point x="297.276" y="104.167" type="curve" smooth="yes"/>
      <point x="376.21" y="104.167"/>
      <point x="455.219" y="144.187"/>
      <point x="455.219" y="224" type="curve" smooth="yes"/>
      <point x="455.219" y="275.726"/>
      <point x="427.779" y="318"/>
      <point x="372.779" y="318" type="curve" smooth="yes"/>
      <point x="222.219" y="318" type="line" smooth="yes"/>
      <point x="167.219" y="318"/>
      <point x="139.779" y="275.726"/>
    </contour>
    <contour>
      <point x="32.7793" y="224" type="curve" smooth="yes"/>
      <point x="32.7793" y="329.377"/>
      <point x="93.8359" y="416"/>
      <point x="216.219" y="416" type="curve" smooth="yes"/>
      <point x="378.779" y="416" type="line" smooth="yes"/>
      <point x="501.162" y="416"/>
      <point x="562.219" y="329.652"/>
      <point x="562.219" y="224" type="curve" smooth="yes"/>
      <point x="562.219" y="66.501"/>
      <point x="429.859" y="-12.249"/>
      <point x="297.5" y="-12.249" type="curve" smooth="yes"/>
      <point x="165.14" y="-12.249"/>
      <point x="32.7793" y="66.502"/>
    </contour>
  </outline>
</glyph>
<glyph name="si_Jha" format="1">
  <advance width="1050"/>
  <unicode hex="0DA3"/>
  <outline>
    <contour>
      <point x="490.655" y="231.204" type="curve" smooth="yes"/>
      <point x="490.655" y="277.471"/>
      <point x="496.916" y="319.595"/>
      <point x="504.783" y="345" type="curve" smooth="yes"/>
      <point x="528.853" y="422.729"/>
      <point x="584.234" y="472"/>
      <point x="656.333" y="472" type="curve" smooth="yes"/>
      <point x="684.1" y="472"/>
      <point x="713.131" y="465.063"/>
      <point x="741.505" y="445.258" type="curve"/>
      <point x="703.64" y="345" type="line"/>
      <point x="689.792" y="352.989"/>
      <point x="677.122" y="356.607"/>
      <point x="665.776" y="356.607" type="curve" smooth="yes"/>
      <point x="638.993" y="356.607"/>
      <point x="618.952" y="336.647"/>
      <point x="609.52" y="306" type="curve" smooth="yes"/>
      <point x="605.088" y="291.601"/>
      <point x="601.603" y="261.724"/>
      <point x="601.603" y="229.771" type="curve" smooth="yes"/>
      <point x="601.603" y="175.234"/>
      <point x="611.756" y="114.652"/>
      <point x="644.693" y="114.652" type="curve" smooth="yes"/>
      <point x="686.869" y="114.652"/>
      <point x="701.875" y="179.678"/>
      <point x="701.875" y="249.5" type="curve"/>
      <point x="797.786" y="249.5" type="line"/>
      <point x="797.786" y="176.75"/>
      <point x="813.254" y="115"/>
      <point x="856.244" y="115" type="curve" smooth="yes"/>
      <point x="913" y="115"/>
      <point x="913" y="239.958"/>
      <point x="913" y="293" type="curve" smooth="yes"/>
      <point x="913" y="522.797"/>
      <point x="870" y="639.885"/>
      <point x="732" y="639.885" type="curve" smooth="yes"/>
      <point x="690.896" y="639.885"/>
      <point x="643.237" y="618.96"/>
      <point x="626.182" y="576.855" type="curve"/>
      <point x="517.149" y="613.029" type="line"/>
      <point x="553.134" y="707.868"/>
      <point x="645.279" y="755"/>
      <point x="732" y="755" type="curve" smooth="yes"/>
      <point x="949" y="755"/>
      <point x="1028" y="599.056"/>
      <point x="1028" y="293" type="curve" smooth="yes"/>
      <point x="1028" y="181.996"/>
      <point x="1027" y="0"/>
      <point x="856.244" y="0" type="curve" smooth="yes"/>
      <point x="800.324" y="0"/>
      <point x="762.302" y="33.1445"/>
      <point x="747.481" y="79.0303" type="curve"/>
      <point x="731.336" y="31.6025"/>
      <point x="691.924" y="0"/>
      <point x="639.244" y="0" type="curve" smooth="yes"/>
      <point x="522.636" y="0"/>
      <point x="490.655" y="126.225"/>
    </contour>
    <contour>
      <point x="22.7412" y="232" type="line"/>
      <point x="242.201" y="489" type="line" smooth="yes"/>
      <point x="290.849" y="545.305"/>
      <point x="343.113" y="585"/>
      <point x="433.113" y="585" type="curve" smooth="yes"/>
      <point x="525.847" y="585"/>
      <point x="607.75" y="536.659"/>
      <point x="647.087" y="428" type="curve"/>
      <point x="544.639" y="383" type="line"/>
      <point x="524.644" y="441.521"/>
      <point x="486.596" y="473"/>
      <point x="433.113" y="473" type="curve" smooth="yes"/>
      <point x="380.113" y="473"/>
      <point x="353.113" y="458"/>
      <point x="314.113" y="416" type="curve" smooth="yes"/>
      <point x="314.113" y="416"/>
      <point x="202.641" y="290.156"/>
      <point x="118.113" y="205" type="curve"/>
      <point x="26.7412" y="126" type="line"/>
    </contour>
    <contour>
      <point x="58.1025" y="83" type="curve" smooth="yes"/>
      <point x="58.1025" y="91.8301"/>
      <point x="58.8291" y="99"/>
      <point x="58.8291" y="106" type="curve" smooth="yes"/>
      <point x="58.8291" y="120.562"/>
      <point x="48.7852" y="128.335"/>
      <point x="37.2754" y="128.335" type="curve" smooth="yes"/>
      <point x="34.1582" y="128.335"/>
      <point x="30.6543" y="127.574"/>
      <point x="26.7412" y="126" type="curve"/>
      <point x="41.1133" y="192" type="line"/>
      <point x="104.829" y="221" type="line"/>
      <point x="109.053" y="216.17"/>
      <point x="112.953" y="211.757"/>
      <point x="117.829" y="207" type="curve" smooth="yes"/>
      <point x="125.259" y="199.927"/>
      <point x="134.297" y="191.219"/>
      <point x="134.297" y="167" type="curve" smooth="yes"/>
      <point x="134.297" y="162"/>
      <point x="134.113" y="159.963"/>
      <point x="134.113" y="156" type="curve" smooth="yes"/>
      <point x="134.113" y="138.592"/>
      <point x="135.989" y="109"/>
      <point x="160.113" y="109" type="curve" smooth="yes"/>
      <point x="175.143" y="109"/>
      <point x="191.485" y="119"/>
      <point x="191.485" y="160" type="curve" smooth="yes"/>
      <point x="191.485" y="227" type="line"/>
      <point x="281.485" y="227" type="line"/>
      <point x="281.485" y="160" type="line" smooth="yes"/>
      <point x="281.485" y="122"/>
      <point x="294.113" y="109"/>
      <point x="313.113" y="109" type="curve" smooth="yes"/>
      <point x="348.113" y="109"/>
      <point x="353.201" y="165.987"/>
      <point x="353.201" y="210" type="curve" smooth="yes"/>
      <point x="353.201" y="307.753"/>
      <point x="318.113" y="343"/>
      <point x="279.113" y="343" type="curve" smooth="yes"/>
      <point x="252.06" y="343"/>
      <point x="239.113" y="330.903"/>
      <point x="229.113" y="322" type="curve"/>
      <point x="180.113" y="358" type="line"/>
      <point x="215.742" y="415.504"/>
      <point x="252.982" y="429.167"/>
      <point x="314.857" y="429.167" type="curve" smooth="yes"/>
      <point x="381.113" y="429.167"/>
      <point x="460.201" y="400"/>
      <point x="460.201" y="210" type="curve" smooth="yes"/>
      <point x="460.201" y="111.981"/>
      <point x="420.156" y="0"/>
      <point x="323.113" y="0" type="curve" smooth="yes"/>
      <point x="275.156" y="0"/>
      <point x="247.623" y="29"/>
      <point x="237.113" y="52" type="curve"/>
      <point x="228.076" y="31"/>
      <point x="201.127" y="0"/>
      <point x="157.113" y="0" type="curve" smooth="yes"/>
      <point x="80.0352" y="0"/>
      <point x="58.1025" y="46"/>
    </contour>
    <contour>
      <point x="19.1133" y="461.536" type="curve" smooth="yes"/>
      <point x="19.1133" y="532.132"/>
      <point x="67.1133" y="594"/>
      <point x="154.729" y="594" type="curve" smooth="yes"/>
      <point x="231.719" y="594"/>
      <point x="303.113" y="537.336"/>
      <point x="303.113" y="428" type="curve"/>
      <point x="205.484" y="375" type="line"/>
      <point x="205.484" y="386"/>
      <point x="205.484" y="428.648"/>
      <point x="205.484" y="434.312" type="curve" smooth="yes"/>
      <point x="205.484" y="471.944"/>
      <point x="181.64" y="496"/>
      <point x="153.113" y="496" type="curve" smooth="yes"/>
      <point x="125.279" y="496"/>
      <point x="111.688" y="475.013"/>
      <point x="111.688" y="451.903" type="curve" smooth="yes"/>
      <point x="111.688" y="411.899"/>
      <point x="138.912" y="394.899"/>
      <point x="168.912" y="387.899" type="curve"/>
      <point x="109.201" y="327.899" type="line"/>
      <point x="63.9121" y="344.899"/>
      <point x="19.1133" y="391.899"/>
    </contour>
  </outline>
</glyph>
<glyph name="si_Nya" format="1">
  <advance width="1058"/>
  <unicode hex="0DA4"/>
  <outline>
    <contour>
      <point x="250.414" y="83" type="curve" smooth="yes"/>
      <point x="250.414" y="91.8296"/>
      <point x="249.823" y="99.5511"/>
      <point x="248.565" y="106" type="curve" smooth="yes"/>
      <point x="245.779" y="120.293"/>
      <point x="239.722" y="128.335"/>
      <point x="229.587" y="128.335" type="curve" smooth="yes"/>
      <point x="226.469" y="128.335"/>
      <point x="222.966" y="127.574"/>
      <point x="219.053" y="126" type="curve"/>
      <point x="258.425" y="214" type="line"/>
      <point x="309.965" y="206" type="line"/>
      <point x="311.089" y="204.621"/>
      <point x="312.256" y="203.329"/>
      <point x="313.425" y="202.003" type="curve" smooth="yes"/>
      <point x="319.192" y="195.46"/>
      <point x="325.026" y="188.06"/>
      <point x="326.208" y="165" type="curve" smooth="yes"/>
      <point x="326.35" y="162.234"/>
      <point x="326.425" y="159.242"/>
      <point x="326.425" y="156" type="curve" smooth="yes"/>
      <point x="326.425" y="138.592"/>
      <point x="328.301" y="109"/>
      <point x="352.425" y="109" type="curve" smooth="yes"/>
      <point x="367.454" y="109"/>
      <point x="383.797" y="119"/>
      <point x="383.797" y="160" type="curve" smooth="yes"/>
      <point x="383.797" y="227" type="line"/>
      <point x="473.797" y="227" type="line"/>
      <point x="473.797" y="160" type="line" smooth="yes"/>
      <point x="473.797" y="122"/>
      <point x="486.425" y="109"/>
      <point x="505.425" y="109" type="curve" smooth="yes"/>
      <point x="540.425" y="109"/>
      <point x="545.513" y="165.987"/>
      <point x="545.513" y="210" type="curve" smooth="yes"/>
      <point x="545.513" y="313.592"/>
      <point x="491.367" y="350.945"/>
      <point x="443.766" y="350.945" type="curve" smooth="yes"/>
      <point x="433.475" y="350.945"/>
      <point x="423.49" y="349.2"/>
      <point x="414.425" y="346" type="curve"/>
      <point x="487.425" y="426" type="line"/>
      <point x="491.127" y="427.815"/>
      <point x="498.102" y="429.167"/>
      <point x="507.169" y="429.167" type="curve" smooth="yes"/>
      <point x="553.054" y="429.167"/>
      <point x="652.513" y="400"/>
      <point x="652.513" y="210" type="curve" smooth="yes"/>
      <point x="652.513" y="111.981"/>
      <point x="612.468" y="0"/>
      <point x="515.425" y="0" type="curve" smooth="yes"/>
      <point x="467.468" y="0"/>
      <point x="439.934" y="29"/>
      <point x="429.425" y="52" type="curve"/>
      <point x="420.388" y="31"/>
      <point x="393.438" y="0"/>
      <point x="349.425" y="0" type="curve" smooth="yes"/>
      <point x="272.347" y="0"/>
      <point x="250.414" y="46"/>
    </contour>
    <contour>
      <point x="347.04" y="594" type="curve" smooth="yes"/>
      <point x="424.03" y="594"/>
      <point x="495.425" y="537.336"/>
      <point x="495.425" y="428" type="curve" smooth="yes"/>
      <point x="495.425" y="396.735"/>
      <point x="484.513" y="389.899"/>
      <point x="459.513" y="369.899" type="curve"/>
      <point x="396.231" y="416.437" type="line" smooth="yes"/>
      <point x="397.293" y="422.679"/>
      <point x="397.796" y="428.648"/>
      <point x="397.796" y="434.312" type="curve" smooth="yes"/>
      <point x="397.796" y="471.944"/>
      <point x="373.951" y="496"/>
      <point x="345.425" y="496" type="curve" smooth="yes"/>
      <point x="317.591" y="496"/>
      <point x="304" y="475.013"/>
      <point x="304" y="451.903" type="curve" smooth="yes"/>
      <point x="304" y="411.899"/>
      <point x="331.224" y="394.899"/>
      <point x="361.224" y="387.899" type="curve"/>
      <point x="301.513" y="327.899" type="line"/>
      <point x="256.224" y="344.899"/>
      <point x="211.425" y="391.899"/>
      <point x="211.425" y="461.536" type="curve" smooth="yes"/>
      <point x="211.425" y="532.132"/>
      <point x="259.425" y="594"/>
    </contour>
    <contour>
      <point x="124" y="290.217" type="curve" smooth="yes"/>
      <point x="124" y="137.873"/>
      <point x="147.779" y="108.217"/>
      <point x="181" y="108.217" type="curve" smooth="yes"/>
      <point x="181" y="6.2168" type="line" smooth="yes"/>
      <point x="86" y="6.2168"/>
      <point x="18" y="52.4932"/>
      <point x="18" y="290.217" type="curve" smooth="yes"/>
      <point x="18" y="512.791"/>
      <point x="92.8718" y="590.217"/>
      <point x="184.372" y="590.217" type="curve" smooth="yes"/>
      <point x="253.691" y="590.217"/>
      <point x="291.521" y="533.797"/>
      <point x="300" y="493.217" type="curve"/>
      <point x="246" y="432.217" type="line"/>
      <point x="241.212" y="448.803"/>
      <point x="227.502" y="486.217"/>
      <point x="189" y="486.217" type="curve" smooth="yes"/>
      <point x="154.988" y="486.217"/>
      <point x="124" y="431.876"/>
    </contour>
    <contour>
      <point x="215.053" y="232" type="line"/>
      <point x="279.062" y="297.921"/>
      <point x="361.099" y="404.03"/>
      <point x="434.513" y="489" type="curve" smooth="yes"/>
      <point x="483.16" y="545.305"/>
      <point x="550" y="585"/>
      <point x="625.425" y="585" type="curve" smooth="yes"/>
      <point x="721.886" y="585"/>
      <point x="810" y="544"/>
      <point x="848" y="402" type="curve" smooth="yes"/>
      <point x="765" y="368" type="line" smooth="yes"/>
      <point x="750" y="447"/>
      <point x="692.359" y="473"/>
      <point x="625.425" y="473" type="curve" smooth="yes"/>
      <point x="586" y="473"/>
      <point x="546.003" y="457.001"/>
      <point x="506.425" y="416" type="curve" smooth="yes"/>
      <point x="504.115" y="413.607"/>
      <point x="395.666" y="290.753"/>
      <point x="311.681" y="206" type="curve" smooth="yes"/>
      <point x="266.066" y="159.969"/>
      <point x="222.029" y="128.701"/>
      <point x="219.053" y="126" type="curve"/>
    </contour>
    <contour>
      <point x="670" y="217" type="curve" smooth="yes"/>
      <point x="670" y="330.947"/>
      <point x="766.68" y="421.352"/>
      <point x="887" y="421.352" type="curve" smooth="yes"/>
      <point x="905.83" y="421.352"/>
      <point x="918" y="420"/>
      <point x="935.807" y="418.437" type="curve"/>
      <point x="936.868" y="424.679"/>
      <point x="937.371" y="430.648"/>
      <point x="937.371" y="436.312" type="curve" smooth="yes"/>
      <point x="937.371" y="473.944"/>
      <point x="915.142" y="498"/>
      <point x="886.615" y="498" type="curve" smooth="yes"/>
      <point x="857.26" y="498"/>
      <point x="841.432" y="477"/>
      <point x="841.432" y="453.164" type="curve" smooth="yes"/>
      <point x="841.432" y="440.756"/>
      <point x="844.948" y="427.391"/>
      <point x="852.78" y="418" type="curve"/>
      <point x="775" y="379" type="line"/>
      <point x="755.69" y="404.207"/>
      <point x="747.956" y="430.604"/>
      <point x="747.956" y="458.407" type="curve" smooth="yes"/>
      <point x="747.956" y="534.137"/>
      <point x="800.056" y="596"/>
      <point x="886.615" y="596" type="curve" smooth="yes"/>
      <point x="963.605" y="596"/>
      <point x="1035" y="539.336"/>
      <point x="1035" y="430" type="curve" smooth="yes"/>
      <point x="1035" y="398.735"/>
      <point x="1028" y="357"/>
      <point x="1016" y="318" type="curve"/>
      <point x="1016" y="318"/>
      <point x="935.531" y="318"/>
      <point x="887" y="318" type="curve" smooth="yes"/>
      <point x="831" y="318"/>
      <point x="782" y="274"/>
      <point x="782" y="217" type="curve" smooth="yes"/>
      <point x="782" y="160"/>
      <point x="828.782" y="116"/>
      <point x="887" y="116" type="curve" smooth="yes"/>
      <point x="922.293" y="116"/>
      <point x="953.569" y="131.386"/>
      <point x="973.662" y="155.437" type="curve"/>
      <point x="1060" y="93.042" type="line"/>
      <point x="1019.89" y="36.2998"/>
      <point x="957.454" y="0"/>
      <point x="887" y="0" type="curve" smooth="yes"/>
      <point x="766.664" y="0"/>
      <point x="670" y="96.6641"/>
    </contour>
    <contour>
      <point x="802.334" y="-57.9707" type="curve" smooth="yes"/>
      <point x="802.334" y="-31.606"/>
      <point x="809.78" y="-4.27525"/>
      <point x="826" y="21.5381" type="curve"/>
      <point x="916" y="44.4365" type="line"/>
      <point x="926" y="4" type="line"/>
      <point x="914.925" y="-8.77364"/>
      <point x="909.221" y="-26.3193"/>
      <point x="909.221" y="-43.2051" type="curve" smooth="yes"/>
      <point x="909.221" y="-70.9962"/>
      <point x="924.672" y="-97"/>
      <point x="957.055" y="-97" type="curve" smooth="yes"/>
      <point x="981.686" y="-97"/>
      <point x="1008.51" y="-85.0557"/>
      <point x="1031" y="-54.5635" type="curve"/>
      <point x="1108" y="-106.563" type="line"/>
      <point x="1062.09" y="-175.431"/>
      <point x="1007.33" y="-202.407"/>
      <point x="957.055" y="-202.407" type="curve" smooth="yes"/>
      <point x="864.628" y="-202.407"/>
      <point x="802.334" y="-134.23"/>
    </contour>
    <contour>
      <point x="347.04" y="594" type="curve" smooth="yes"/>
      <point x="424.03" y="594"/>
      <point x="495.425" y="537.336"/>
      <point x="495.425" y="428" type="curve" smooth="yes"/>
      <point x="495.425" y="396.735"/>
      <point x="484.513" y="389.899"/>
      <point x="459.513" y="369.899" type="curve"/>
      <point x="396.231" y="416.437" type="line" smooth="yes"/>
      <point x="397.293" y="422.679"/>
      <point x="397.796" y="428.648"/>
      <point x="397.796" y="434.312" type="curve" smooth="yes"/>
      <point x="397.796" y="471.944"/>
      <point x="373.951" y="496"/>
      <point x="345.425" y="496" type="curve" smooth="yes"/>
      <point x="317.591" y="496"/>
      <point x="304" y="475.013"/>
      <point x="304" y="451.903" type="curve" smooth="yes"/>
      <point x="304" y="411.899"/>
      <point x="331.224" y="394.899"/>
      <point x="361.224" y="387.899" type="curve"/>
      <point x="301.513" y="327.899" type="line"/>
      <point x="256.224" y="344.899"/>
      <point x="211.425" y="391.899"/>
      <point x="211.425" y="461.536" type="curve" smooth="yes"/>
      <point x="211.425" y="532.132"/>
      <point x="259.425" y="594"/>
    </contour>
  </outline>
</glyph>
<glyph name="si_Jnya" format="1">
  <advance width="998"/>
  <unicode hex="0DA5"/>
  <outline>
    <contour>
      <point x="128" y="284" type="curve" smooth="yes"/>
      <point x="128" y="131.656"/>
      <point x="151.779" y="102"/>
      <point x="185" y="102" type="curve" smooth="yes"/>
      <point x="185" y="0" type="line" smooth="yes"/>
      <point x="90" y="0"/>
      <point x="22" y="46.2764"/>
      <point x="22" y="284" type="curve" smooth="yes"/>
      <point x="22" y="506.574"/>
      <point x="96.8718" y="584"/>
      <point x="188.372" y="584" type="curve" smooth="yes"/>
      <point x="257.691" y="584"/>
      <point x="295.521" y="527.58"/>
      <point x="304" y="487" type="curve"/>
      <point x="250" y="426" type="line"/>
      <point x="245.212" y="442.586"/>
      <point x="231.502" y="480"/>
      <point x="193" y="480" type="curve" smooth="yes"/>
      <point x="158.988" y="480"/>
      <point x="128" y="425.659"/>
    </contour>
    <contour>
      <point x="610" y="217" type="curve" smooth="yes"/>
      <point x="610" y="330.947"/>
      <point x="706.68" y="421.352"/>
      <point x="827" y="421.352" type="curve" smooth="yes"/>
      <point x="845.83" y="421.352"/>
      <point x="858" y="420"/>
      <point x="875.807" y="418.437" type="curve"/>
      <point x="876.868" y="424.679"/>
      <point x="877.371" y="430.648"/>
      <point x="877.371" y="436.312" type="curve" smooth="yes"/>
      <point x="877.371" y="473.944"/>
      <point x="855.142" y="498"/>
      <point x="826.615" y="498" type="curve" smooth="yes"/>
      <point x="797.26" y="498"/>
      <point x="781.432" y="477"/>
      <point x="781.432" y="453.164" type="curve" smooth="yes"/>
      <point x="781.432" y="440.756"/>
      <point x="784.948" y="427.391"/>
      <point x="792.78" y="418" type="curve"/>
      <point x="715" y="379" type="line"/>
      <point x="695.69" y="404.207"/>
      <point x="687.956" y="430.604"/>
      <point x="687.956" y="458.407" type="curve" smooth="yes"/>
      <point x="687.956" y="534.137"/>
      <point x="740.056" y="596"/>
      <point x="826.615" y="596" type="curve" smooth="yes"/>
      <point x="903.605" y="596"/>
      <point x="975" y="539.336"/>
      <point x="975" y="430" type="curve" smooth="yes"/>
      <point x="975" y="398.735"/>
      <point x="968" y="357"/>
      <point x="956" y="318" type="curve"/>
      <point x="956" y="318"/>
      <point x="875.531" y="318"/>
      <point x="827" y="318" type="curve" smooth="yes"/>
      <point x="771" y="318"/>
      <point x="722" y="274"/>
      <point x="722" y="217" type="curve" smooth="yes"/>
      <point x="722" y="160"/>
      <point x="768.782" y="116"/>
      <point x="827" y="116" type="curve" smooth="yes"/>
      <point x="862.293" y="116"/>
      <point x="893.569" y="131.386"/>
      <point x="913.662" y="155.437" type="curve"/>
      <point x="1000" y="93.042" type="line"/>
      <point x="959.89" y="36.2998"/>
      <point x="897.454" y="0"/>
      <point x="827" y="0" type="curve" smooth="yes"/>
      <point x="706.664" y="0"/>
      <point x="610" y="96.6641"/>
    </contour>
    <contour>
      <point x="742.334" y="-57.9707" type="curve" smooth="yes"/>
      <point x="742.334" y="-31.606"/>
      <point x="749.78" y="-4.27525"/>
      <point x="766" y="21.5381" type="curve"/>
      <point x="856" y="44.4365" type="line"/>
      <point x="866" y="4" type="line"/>
      <point x="854.925" y="-8.77364"/>
      <point x="849.221" y="-26.3193"/>
      <point x="849.221" y="-43.2051" type="curve" smooth="yes"/>
      <point x="849.221" y="-70.9962"/>
      <point x="864.672" y="-97"/>
      <point x="897.055" y="-97" type="curve" smooth="yes"/>
      <point x="921.686" y="-97"/>
      <point x="948.509" y="-85.0557"/>
      <point x="971" y="-54.5635" type="curve"/>
      <point x="1048" y="-106.563" type="line"/>
      <point x="1002.09" y="-175.431"/>
      <point x="947.333" y="-202.407"/>
      <point x="897.055" y="-202.407" type="curve" smooth="yes"/>
      <point x="804.628" y="-202.407"/>
      <point x="742.334" y="-134.23"/>
    </contour>
    <contour>
      <point x="400" y="107" type="curve" smooth="yes"/>
      <point x="461" y="107"/>
      <point x="479.628" y="146.156"/>
      <point x="479.628" y="184.156" type="curve" smooth="yes"/>
      <point x="479.628" y="219.156"/>
      <point x="463.891" y="231.251"/>
      <point x="451.628" y="236.156" type="curve"/>
      <point x="514.628" y="306.156" type="line"/>
      <point x="550.628" y="294.449"/>
      <point x="581.628" y="243.156"/>
      <point x="581.628" y="189.156" type="curve" smooth="yes"/>
      <point x="581.628" y="94.7305"/>
      <point x="530.561" y="0"/>
      <point x="400" y="0" type="curve" smooth="yes"/>
      <point x="293.001" y="0"/>
      <point x="195" y="57.625"/>
      <point x="195" y="292" type="curve" smooth="yes"/>
      <point x="195" y="514.574"/>
      <point x="279.772" y="584"/>
      <point x="383.372" y="584" type="curve" smooth="yes"/>
      <point x="459.286" y="584"/>
      <point x="500.715" y="533.979"/>
      <point x="510" y="498" type="curve"/>
      <point x="445" y="426" type="line"/>
      <point x="439.823" y="442.586"/>
      <point x="425" y="478"/>
      <point x="383.372" y="478" type="curve" smooth="yes"/>
      <point x="340.27" y="478"/>
      <point x="304" y="433.659"/>
      <point x="304" y="292" type="curve" smooth="yes"/>
      <point x="304" y="144.453"/>
      <point x="350.415" y="107"/>
    </contour>
    <contour>
      <point x="615" y="584.156" type="curve" smooth="yes"/>
      <point x="679.26" y="584.156"/>
      <point x="729.274" y="563.372"/>
      <point x="767.765" y="496" type="curve" smooth="yes"/>
      <point x="708" y="303" type="line"/>
      <point x="708" y="450.547"/>
      <point x="664.585" y="477.156"/>
      <point x="615" y="477.156" type="curve" smooth="yes"/>
      <point x="563.189" y="477.156"/>
      <point x="541" y="438"/>
      <point x="541" y="362" type="curve" smooth="yes"/>
      <point x="541" y="286.156"/>
      <point x="496" y="254"/>
      <point x="436" y="220" type="curve"/>
      <point x="389.628" y="300.156" type="line"/>
      <point x="441.628" y="333.156"/>
      <point x="439" y="369"/>
      <point x="439" y="401" type="curve" smooth="yes"/>
      <point x="439" y="527"/>
      <point x="535.093" y="584.156"/>
    </contour>
  </outline>
</glyph>
<glyph name="si_Ndja" format="1">
  <advance width="800"/>
  <unicode hex="0DA6"/>
  <outline>
    <contour>
      <point x="555.818" y="576" type="line" smooth="yes"/>
      <point x="665.527" y="688.385"/>
      <point x="671.955" y="723.753"/>
      <point x="671.955" y="779" type="curve"/>
      <point x="781.955" y="779" type="line"/>
      <point x="781.955" y="681.148"/>
      <point x="731.678" y="617"/>
      <point x="653.955" y="537" type="curve" smooth="yes"/>
    </contour>
    <contour>
      <point x="436.82" y="467.354" type="curve" smooth="yes"/>
      <point x="436.82" y="473.071"/>
      <point x="437.385" y="478.329"/>
      <point x="438.636" y="483" type="curve" smooth="yes"/>
      <point x="458.262" y="556.277"/>
      <point x="517.354" y="594"/>
      <point x="580.173" y="594" type="curve" smooth="yes"/>
      <point x="666.732" y="594"/>
      <point x="718.832" y="532.137"/>
      <point x="718.832" y="456.407" type="curve" smooth="yes"/>
      <point x="718.832" y="428.149"/>
      <point x="707.584" y="394.649"/>
      <point x="687.446" y="369.03" type="curve"/>
      <point x="610.737" y="410.437" type="line"/>
      <point x="618.721" y="419.561"/>
      <point x="625.356" y="439.108"/>
      <point x="625.356" y="451.164" type="curve" smooth="yes"/>
      <point x="625.356" y="475"/>
      <point x="611.144" y="496"/>
      <point x="576" y="496" type="curve" smooth="yes"/>
      <point x="553.262" y="496"/>
      <point x="524.436" y="481.03"/>
      <point x="524.436" y="434.342" type="curve" smooth="yes"/>
      <point x="524.436" y="428.679"/>
      <point x="524.938" y="422.242"/>
      <point x="526" y="416" type="curve" smooth="yes"/>
      <point x="479.5" y="318.437" type="line"/>
      <point x="466.889" y="359.423"/>
      <point x="436.82" y="425.625"/>
    </contour>
    <contour>
      <point x="321.779" y="224" type="curve" smooth="yes"/>
      <point x="321.779" y="144.037"/>
      <point x="400.491" y="104.167"/>
      <point x="479.276" y="104.167" type="curve" smooth="yes"/>
      <point x="558.21" y="104.167"/>
      <point x="637.219" y="144.187"/>
      <point x="637.219" y="224" type="curve" smooth="yes"/>
      <point x="637.219" y="275.726"/>
      <point x="609.779" y="318"/>
      <point x="554.779" y="318" type="curve" smooth="yes"/>
      <point x="404.219" y="318" type="line" smooth="yes"/>
      <point x="349.219" y="318"/>
      <point x="321.779" y="275.726"/>
    </contour>
    <contour>
      <point x="214.779" y="224" type="curve" smooth="yes"/>
      <point x="214.779" y="329.377"/>
      <point x="275.836" y="416"/>
      <point x="398.219" y="416" type="curve" smooth="yes"/>
      <point x="560.779" y="416" type="line" smooth="yes"/>
      <point x="683.162" y="416"/>
      <point x="744.219" y="329.652"/>
      <point x="744.219" y="224" type="curve" smooth="yes"/>
      <point x="744.219" y="66.501"/>
      <point x="611.859" y="-12.249"/>
      <point x="479.5" y="-12.249" type="curve" smooth="yes"/>
      <point x="347.14" y="-12.249"/>
      <point x="214.779" y="66.502"/>
    </contour>
    <contour>
      <point x="240.168" y="456.407" type="curve" smooth="yes"/>
      <point x="240.168" y="532.137"/>
      <point x="292.268" y="594"/>
      <point x="378.827" y="594" type="curve" smooth="yes"/>
      <point x="441.646" y="594"/>
      <point x="500.739" y="556.277"/>
      <point x="520.364" y="483" type="curve" smooth="yes"/>
      <point x="521.615" y="478.329"/>
      <point x="522.18" y="473.071"/>
      <point x="522.18" y="467.354" type="curve" smooth="yes"/>
      <point x="522.18" y="425.625"/>
      <point x="492.111" y="359.423"/>
      <point x="479.5" y="318.437" type="curve"/>
      <point x="433" y="416" type="line" smooth="yes"/>
      <point x="434.062" y="422.242"/>
      <point x="434.564" y="428.679"/>
      <point x="434.564" y="434.342" type="curve" smooth="yes"/>
      <point x="434.564" y="481.03"/>
      <point x="405.738" y="496"/>
      <point x="383" y="496" type="curve" smooth="yes"/>
      <point x="347.856" y="496"/>
      <point x="333.644" y="475"/>
      <point x="333.644" y="451.164" type="curve" smooth="yes"/>
      <point x="333.644" y="439.108"/>
      <point x="340.279" y="419.561"/>
      <point x="348.263" y="410.437" type="curve"/>
      <point x="271.554" y="369.03" type="line"/>
      <point x="251.416" y="394.649"/>
      <point x="240.168" y="428.149"/>
    </contour>
    <contour>
      <point x="38.8291" y="284" type="curve" smooth="yes"/>
      <point x="38.8291" y="506.574"/>
      <point x="113.701" y="584"/>
      <point x="205.201" y="584" type="curve" smooth="yes"/>
      <point x="274.521" y="584"/>
      <point x="312.351" y="527.58"/>
      <point x="320.829" y="487" type="curve"/>
      <point x="266.829" y="426" type="line"/>
      <point x="262.041" y="442.586"/>
      <point x="248.331" y="480"/>
      <point x="209.829" y="480" type="curve" smooth="yes"/>
      <point x="175.817" y="480"/>
      <point x="144.829" y="425.659"/>
      <point x="144.829" y="284" type="curve" smooth="yes"/>
      <point x="144.829" y="131.656"/>
      <point x="168.608" y="102"/>
      <point x="201.829" y="102" type="curve" smooth="yes"/>
      <point x="201.829" y="0" type="line" smooth="yes"/>
      <point x="106.829" y="0"/>
      <point x="38.8291" y="46.2764"/>
    </contour>
  </outline>
</glyph>
<glyph name="si_Tta" format="1">
  <advance width="535"/>
  <unicode hex="0DA7"/>
  <outline>
    <contour>
      <point x="21.8545" y="252.396" type="curve" smooth="yes"/>
      <point x="21.8545" y="381.537"/>
      <point x="88.8545" y="472"/>
      <point x="186.548" y="472" type="curve" smooth="yes"/>
      <point x="214.314" y="472"/>
      <point x="243.346" y="465.063"/>
      <point x="271.72" y="445.258" type="curve"/>
      <point x="233.854" y="345" type="line"/>
      <point x="220.007" y="352.989"/>
      <point x="207.337" y="356.607"/>
      <point x="195.991" y="356.607" type="curve" smooth="yes"/>
      <point x="155.475" y="356.607"/>
      <point x="131.854" y="310.459"/>
      <point x="131.854" y="252.396" type="curve" smooth="yes"/>
      <point x="131.854" y="189.243"/>
      <point x="159.08" y="115"/>
      <point x="252" y="115" type="curve" smooth="yes"/>
      <point x="356.452" y="115"/>
      <point x="397" y="195.018"/>
      <point x="397" y="354" type="curve" smooth="yes"/>
      <point x="397" y="583"/>
      <point x="325.68" y="640"/>
      <point x="242.854" y="640" type="curve" smooth="yes"/>
      <point x="201.751" y="640"/>
      <point x="161.666" y="618.96"/>
      <point x="144.61" y="576.855" type="curve"/>
      <point x="35.5781" y="613.029" type="line"/>
      <point x="71.5625" y="707.868"/>
      <point x="156.134" y="755"/>
      <point x="242.854" y="755" type="curve" smooth="yes"/>
      <point x="382.326" y="755"/>
      <point x="513" y="675.859"/>
      <point x="513" y="354" type="curve" smooth="yes"/>
      <point x="513" y="118"/>
      <point x="432" y="0"/>
      <point x="252" y="0" type="curve" smooth="yes"/>
      <point x="74" y="0"/>
      <point x="21.8545" y="136.287"/>
    </contour>
  </outline>
</glyph>
<glyph name="si_Ttha" format="1">
  <advance width="573"/>
  <unicode hex="0DA8"/>
  <outline>
    <contour>
      <point x="272.79" y="611.134" type="curve" smooth="yes"/>
      <point x="272.79" y="667.848"/>
      <point x="313.998" y="688.157"/>
      <point x="313.998" y="709.824" type="curve" smooth="yes"/>
      <point x="313.998" y="716.953"/>
      <point x="309.536" y="724.23"/>
      <point x="297.674" y="733" type="curve"/>
      <point x="404" y="755" type="line"/>
      <point x="384.778" y="647" type="line"/>
      <point x="368.399" y="639.98"/>
      <point x="358.778" y="621.142"/>
      <point x="358.778" y="605" type="curve" smooth="yes"/>
      <point x="358.778" y="585.998"/>
      <point x="376.79" y="559.628"/>
      <point x="418" y="548.855" type="curve" smooth="yes"/>
      <point x="422.334" y="547.722"/>
      <point x="426.925" y="546.761"/>
      <point x="431.778" y="546" type="curve"/>
      <point x="516" y="524" type="line"/>
      <point x="448.674" y="461" type="line"/>
      <point x="434.879" y="461.4"/>
      <point x="420.432" y="463.679"/>
      <point x="406" y="467.641" type="curve" smooth="yes"/>
      <point x="339.23" y="485.97"/>
      <point x="272.79" y="540.308"/>
    </contour>
    <contour>
      <point x="40.6738" y="231.204" type="curve" smooth="yes"/>
      <point x="40.6738" y="277.471"/>
      <point x="46.8848" y="319.61"/>
      <point x="54.8018" y="345" type="curve" smooth="yes"/>
      <point x="78.8711" y="422.729"/>
      <point x="134.253" y="472"/>
      <point x="206.352" y="472" type="curve" smooth="yes"/>
      <point x="234.118" y="472"/>
      <point x="263.149" y="465.063"/>
      <point x="291.523" y="445.258" type="curve"/>
      <point x="253.658" y="345" type="line"/>
      <point x="239.811" y="352.989"/>
      <point x="227.141" y="356.607"/>
      <point x="215.795" y="356.607" type="curve" smooth="yes"/>
      <point x="189.012" y="356.607"/>
      <point x="169.612" y="336.442"/>
      <point x="159.538" y="306" type="curve" smooth="yes"/>
      <point x="155.106" y="291.601"/>
      <point x="151.621" y="261.724"/>
      <point x="151.621" y="229.771" type="curve" smooth="yes"/>
      <point x="151.621" y="175.234"/>
      <point x="161.774" y="114.652"/>
      <point x="194.712" y="114.652" type="curve" smooth="yes"/>
      <point x="236.888" y="114.652"/>
      <point x="251.894" y="179.678"/>
      <point x="251.894" y="249.5" type="curve"/>
      <point x="347.805" y="249.5" type="line"/>
      <point x="347.805" y="176.75"/>
      <point x="363.272" y="115"/>
      <point x="406.263" y="115" type="curve" smooth="yes"/>
      <point x="463.019" y="115"/>
      <point x="463.019" y="239.958"/>
      <point x="463.019" y="293" type="curve" smooth="yes"/>
      <point x="463.019" y="384.548"/>
      <point x="448.156" y="481.404"/>
      <point x="429.517" y="545" type="curve"/>
      <point x="423.778" y="579"/>
      <point x="405.778" y="628"/>
      <point x="383.695" y="648" type="curve"/>
      <point x="360.958" y="683.221"/>
      <point x="332.458" y="712.004"/>
      <point x="297.674" y="733" type="curve"/>
      <point x="369.674" y="817" type="line"/>
      <point x="448.651" y="764.921"/>
      <point x="503.062" y="686.228"/>
      <point x="535.161" y="588" type="curve" smooth="yes"/>
      <point x="559.149" y="514.591"/>
      <point x="578.019" y="410"/>
      <point x="578.019" y="293" type="curve" smooth="yes"/>
      <point x="578.019" y="181.996"/>
      <point x="577.019" y="0"/>
      <point x="406.263" y="0" type="curve" smooth="yes"/>
      <point x="350.343" y="0"/>
      <point x="312.32" y="33.1445"/>
      <point x="297.5" y="79.0303" type="curve"/>
      <point x="281.354" y="31.6025"/>
      <point x="241.942" y="0"/>
      <point x="189.263" y="0" type="curve" smooth="yes"/>
      <point x="72.6543" y="0"/>
      <point x="40.6738" y="126.225"/>
    </contour>
  </outline>
</glyph>
<glyph name="si_Ddha" format="1">
  <advance width="574"/>
  <unicode hex="0DAA"/>
  <outline>
    <contour>
      <point x="272.79" y="611.134" type="curve" smooth="yes"/>
      <point x="272.79" y="667.849"/>
      <point x="313.998" y="688.157"/>
      <point x="313.998" y="709.823" type="curve" smooth="yes"/>
      <point x="313.998" y="716.953"/>
      <point x="309.536" y="724.23"/>
      <point x="297.674" y="733" type="curve"/>
      <point x="404" y="755" type="line"/>
      <point x="384.778" y="647" type="line"/>
      <point x="368.399" y="639.98"/>
      <point x="358.778" y="621.142"/>
      <point x="358.778" y="605" type="curve" smooth="yes"/>
      <point x="358.778" y="585.998"/>
      <point x="376.79" y="559.628"/>
      <point x="418" y="548.854" type="curve" smooth="yes"/>
      <point x="422.334" y="547.722"/>
      <point x="426.925" y="546.762"/>
      <point x="431.778" y="546" type="curve"/>
      <point x="516" y="524" type="line"/>
      <point x="448.674" y="461" type="line"/>
      <point x="434.879" y="461.4"/>
      <point x="420.432" y="463.68"/>
      <point x="406" y="467.641" type="curve" smooth="yes"/>
      <point x="339.229" y="485.97"/>
      <point x="272.79" y="540.309"/>
    </contour>
    <contour>
      <point x="44.7803" y="193.437" type="curve" smooth="yes"/>
      <point x="44.7803" y="234.737"/>
      <point x="56.2627" y="280.437"/>
      <point x="70.2627" y="306" type="curve"/>
      <point x="39.0186" y="306" type="line"/>
      <point x="39.0186" y="391" type="line"/>
      <point x="328.261" y="389.5" type="line"/>
      <point x="361.764" y="306" type="line"/>
      <point x="212.019" y="306" type="line" smooth="yes"/>
      <point x="171.263" y="306"/>
      <point x="151.78" y="245.162"/>
      <point x="151.78" y="193.437" type="curve" smooth="yes"/>
      <point x="151.78" y="156.328"/>
      <point x="157.454" y="114.652"/>
      <point x="194.712" y="114.652" type="curve" smooth="yes"/>
      <point x="236.888" y="114.652"/>
      <point x="251.894" y="179.678"/>
      <point x="251.894" y="249.5" type="curve"/>
      <point x="347.805" y="249.5" type="line"/>
      <point x="347.805" y="176.75"/>
      <point x="363.272" y="115"/>
      <point x="406.263" y="115" type="curve" smooth="yes"/>
      <point x="463.019" y="115"/>
      <point x="463.019" y="239.958"/>
      <point x="463.019" y="293" type="curve" smooth="yes"/>
      <point x="463.019" y="384.548"/>
      <point x="448.156" y="481.404"/>
      <point x="429.517" y="545" type="curve"/>
      <point x="423.778" y="579"/>
      <point x="405.778" y="628"/>
      <point x="383.695" y="648" type="curve"/>
      <point x="360.958" y="683.221"/>
      <point x="332.458" y="712.004"/>
      <point x="297.674" y="733" type="curve"/>
      <point x="369.674" y="817" type="line"/>
      <point x="448.651" y="764.921"/>
      <point x="503.062" y="686.228"/>
      <point x="535.161" y="588" type="curve" smooth="yes"/>
      <point x="559.149" y="514.591"/>
      <point x="578.019" y="410"/>
      <point x="578.019" y="293" type="curve" smooth="yes"/>
      <point x="578.019" y="181.996"/>
      <point x="577.019" y="0"/>
      <point x="406.263" y="0" type="curve" smooth="yes"/>
      <point x="350.343" y="0"/>
      <point x="312.32" y="33.1445"/>
      <point x="297.5" y="79.0303" type="curve"/>
      <point x="281.354" y="31.6025"/>
      <point x="241.942" y="0"/>
      <point x="189.263" y="0" type="curve" smooth="yes"/>
      <point x="73.4629" y="0"/>
      <point x="44.7803" y="105.454"/>
    </contour>
    <contour>
      <point x="97.3555" y="409.272" type="curve" smooth="yes"/>
      <point x="97.3555" y="481.535"/>
      <point x="146.326" y="531.563"/>
      <point x="220.628" y="531.563" type="curve" smooth="yes"/>
      <point x="297.614" y="531.563"/>
      <point x="369.013" y="474.899"/>
      <point x="369.013" y="365.563" type="curve" smooth="yes"/>
      <point x="369.013" y="351"/>
      <point x="365.819" y="325"/>
      <point x="361.764" y="306" type="curve"/>
      <point x="271.384" y="371.875" type="line"/>
      <point x="272.324" y="376.783"/>
      <point x="272.799" y="381.77"/>
      <point x="272.799" y="386.714" type="curve" smooth="yes"/>
      <point x="272.799" y="416.144"/>
      <point x="255.985" y="444"/>
      <point x="220.628" y="444" type="curve" smooth="yes"/>
      <point x="195.828" y="444"/>
      <point x="186.836" y="426.134"/>
      <point x="186.836" y="404.787" type="curve" smooth="yes"/>
      <point x="186.836" y="386.793"/>
      <point x="199.121" y="370.325"/>
      <point x="207.819" y="356" type="curve"/>
      <point x="127.819" y="318.563" type="line"/>
      <point x="107.819" y="351"/>
      <point x="97.3555" y="380.62"/>
    </contour>
  </outline>
</glyph>
<glyph name="si_Nna" format="1">
  <advance width="878"/>
  <unicode hex="0DAB"/>
  <outline>
    <contour>
      <point x="227" y="506" type="curve"/>
      <point x="269" y="496" type="line"/>
      <point x="346" y="464" type="line"/>
      <point x="346" y="464"/>
      <point x="398.779" y="539"/>
      <point x="409" y="550" type="curve" smooth="yes"/>
      <point x="513.999" y="663.001"/>
      <point x="510" y="714"/>
      <point x="510" y="779" type="curve" smooth="yes"/>
      <point x="394" y="779" type="line" smooth="yes"/>
      <point x="394" y="720"/>
      <point x="388.714" y="681.774"/>
      <point x="258" y="552" type="curve" smooth="yes"/>
      <point x="214.241" y="508.556"/>
      <point x="227" y="506"/>
    </contour>
    <contour>
      <point x="517.901" y="297.078" type="curve" smooth="yes"/>
      <point x="517.901" y="496"/>
      <point x="402.382" y="594"/>
      <point x="262" y="594" type="curve" smooth="yes"/>
      <point x="73" y="594"/>
      <point x="-11" y="382"/>
      <point x="68" y="233" type="curve"/>
      <point x="113" y="285" type="line"/>
      <point x="138" y="371" type="line"/>
      <point x="138" y="426.325"/>
      <point x="175" y="480"/>
      <point x="262" y="480" type="curve" smooth="yes"/>
      <point x="339.281" y="480"/>
      <point x="402.901" y="416"/>
      <point x="402.901" y="297.078" type="curve" smooth="yes"/>
      <point x="402.901" y="185.545"/>
      <point x="357.487" y="112.551"/>
      <point x="260.547" y="112.551" type="curve" smooth="yes"/>
      <point x="212" y="112.551"/>
      <point x="173" y="131"/>
      <point x="143" y="115" type="curve" smooth="yes"/>
      <point x="100" y="74" type="line"/>
      <point x="124" y="9" type="line"/>
      <point x="154" y="41"/>
      <point x="201.55" y="8.94727"/>
      <point x="253" y="8.94727" type="curve" smooth="yes"/>
      <point x="416.723" y="8.94727"/>
      <point x="517.901" y="108.526"/>
    </contour>
    <contour>
      <point x="124" y="9" type="line"/>
      <point x="135" y="157"/>
      <point x="170" y="143"/>
      <point x="230" y="185" type="curve"/>
      <point x="144" y="253" type="line"/>
      <point x="64" y="180"/>
      <point x="42" y="183"/>
      <point x="22" y="29" type="curve"/>
    </contour>
    <contour>
      <point x="549.755" y="406" type="curve" smooth="yes"/>
      <point x="576.755" y="406"/>
      <point x="581.957" y="372"/>
      <point x="581.957" y="333" type="curve" smooth="yes"/>
      <point x="581.957" y="267.864"/>
      <point x="581.957" y="238"/>
      <point x="581.957" y="238" type="curve"/>
      <point x="674.957" y="238" type="line"/>
      <point x="674.957" y="238"/>
      <point x="674.957" y="267.864"/>
      <point x="674.957" y="333" type="curve" smooth="yes"/>
      <point x="674.957" y="372"/>
      <point x="680.159" y="406"/>
      <point x="707.159" y="406" type="curve" smooth="yes"/>
      <point x="741" y="406"/>
      <point x="741.841" y="338.391"/>
      <point x="741.841" y="277" type="curve" smooth="yes"/>
      <point x="741.841" y="208.104"/>
      <point x="738.263" y="110"/>
      <point x="654" y="110" type="curve" smooth="yes"/>
      <point x="569" y="110"/>
      <point x="592" y="228"/>
      <point x="491" y="208" type="curve"/>
      <point x="457" y="115" type="line"/>
      <point x="523" y="147"/>
      <point x="503" y="0"/>
      <point x="654" y="0" type="curve" smooth="yes"/>
      <point x="848.578" y="0"/>
      <point x="856.841" y="166"/>
      <point x="856.841" y="277" type="curve" smooth="yes"/>
      <point x="856.841" y="386"/>
      <point x="850.843" y="520"/>
      <point x="715" y="520" type="curve" smooth="yes"/>
      <point x="676" y="520"/>
      <point x="637.943" y="491.13"/>
      <point x="628.457" y="468" type="curve"/>
      <point x="618.971" y="491.13"/>
      <point x="580.914" y="520"/>
      <point x="541.914" y="520" type="curve" smooth="yes"/>
      <point x="463" y="520"/>
      <point x="414.16" y="415"/>
      <point x="430" y="268" type="curve" smooth="yes"/>
      <point x="514" y="235" type="line"/>
      <point x="528" y="292"/>
      <point x="500.795" y="406"/>
    </contour>
    <contour>
      <point x="149.235" y="298.488" type="curve" smooth="yes"/>
      <point x="149.235" y="325.829"/>
      <point x="171.106" y="347.702"/>
      <point x="198.446" y="347.702" type="curve" smooth="yes"/>
      <point x="225.786" y="347.702"/>
      <point x="247.659" y="325.829"/>
      <point x="247.659" y="298.488" type="curve" smooth="yes"/>
      <point x="247.659" y="271.148"/>
      <point x="225.786" y="249.277"/>
      <point x="198.446" y="249.277" type="curve" smooth="yes"/>
      <point x="171.106" y="249.277"/>
      <point x="149.235" y="271.148"/>
    </contour>
    <contour>
      <point x="53.0146" y="298.488" type="curve" smooth="yes"/>
      <point x="53.0146" y="216.55"/>
      <point x="118.564" y="151"/>
      <point x="200.503" y="151" type="curve" smooth="yes"/>
      <point x="282.444" y="151"/>
      <point x="348" y="216.55"/>
      <point x="348" y="298.488" type="curve" smooth="yes"/>
      <point x="348" y="336.971"/>
      <point x="333.541" y="371.839"/>
      <point x="309.718" y="398" type="curve" smooth="yes"/>
      <point x="286.909" y="423.047"/>
      <point x="252.567" y="437"/>
      <point x="219.228" y="437" type="curve" smooth="yes"/>
      <point x="182.886" y="437"/>
      <point x="147.732" y="420.948"/>
      <point x="130" y="398" type="curve"/>
      <point x="86.4238" y="370.979"/>
      <point x="53.0146" y="335.546"/>
    </contour>
  </outline>
</glyph>
<glyph name="si_Nndda" format="1">
  <advance width="747"/>
  <unicode hex="0DAC"/>
  <outline>
    <contour>
      <point x="217.78" y="193.437" type="curve" smooth="yes"/>
      <point x="217.78" y="234.737"/>
      <point x="229.263" y="280.437"/>
      <point x="243.263" y="306" type="curve"/>
      <point x="212.019" y="306" type="line"/>
      <point x="212.019" y="391" type="line"/>
      <point x="501.262" y="389.5" type="line"/>
      <point x="534.764" y="306" type="line"/>
      <point x="385.019" y="306" type="line" smooth="yes"/>
      <point x="344.263" y="306"/>
      <point x="324.78" y="245.162"/>
      <point x="324.78" y="193.437" type="curve" smooth="yes"/>
      <point x="324.78" y="156.328"/>
      <point x="330.454" y="114.652"/>
      <point x="367.712" y="114.652" type="curve" smooth="yes"/>
      <point x="409.888" y="114.652"/>
      <point x="424.894" y="179.678"/>
      <point x="424.894" y="249.5" type="curve"/>
      <point x="520.805" y="249.5" type="line"/>
      <point x="520.805" y="176.75"/>
      <point x="536.272" y="115"/>
      <point x="579.263" y="115" type="curve" smooth="yes"/>
      <point x="636.019" y="115"/>
      <point x="636.019" y="239.958"/>
      <point x="636.019" y="293" type="curve" smooth="yes"/>
      <point x="636.019" y="522.797"/>
      <point x="593.019" y="639.885"/>
      <point x="455.019" y="639.885" type="curve" smooth="yes"/>
      <point x="413.915" y="639.885"/>
      <point x="366.256" y="618.96"/>
      <point x="349.2" y="576.855" type="curve"/>
      <point x="240.168" y="613.029" type="line"/>
      <point x="276.152" y="707.868"/>
      <point x="368.298" y="755"/>
      <point x="455.019" y="755" type="curve" smooth="yes"/>
      <point x="672.019" y="755"/>
      <point x="751.019" y="599.056"/>
      <point x="751.019" y="293" type="curve" smooth="yes"/>
      <point x="751.019" y="181.996"/>
      <point x="750.019" y="0"/>
      <point x="579.263" y="0" type="curve" smooth="yes"/>
      <point x="523.343" y="0"/>
      <point x="485.32" y="33.1445"/>
      <point x="470.5" y="79.0303" type="curve"/>
      <point x="454.354" y="31.6025"/>
      <point x="414.942" y="0"/>
      <point x="362.263" y="0" type="curve" smooth="yes"/>
      <point x="246.463" y="0"/>
      <point x="217.78" y="105.454"/>
    </contour>
    <contour>
      <point x="270.355" y="409.272" type="curve" smooth="yes"/>
      <point x="270.355" y="481.535"/>
      <point x="319.326" y="531.563"/>
      <point x="393.628" y="531.563" type="curve" smooth="yes"/>
      <point x="470.614" y="531.563"/>
      <point x="542.013" y="474.899"/>
      <point x="542.013" y="365.563" type="curve" smooth="yes"/>
      <point x="542.013" y="351"/>
      <point x="538.819" y="325"/>
      <point x="534.764" y="306" type="curve"/>
      <point x="444.384" y="371.875" type="line"/>
      <point x="445.324" y="376.782"/>
      <point x="445.799" y="381.771"/>
      <point x="445.799" y="386.714" type="curve" smooth="yes"/>
      <point x="445.799" y="416.144"/>
      <point x="428.985" y="444"/>
      <point x="393.628" y="444" type="curve" smooth="yes"/>
      <point x="368.828" y="444"/>
      <point x="359.836" y="426.134"/>
      <point x="359.836" y="404.787" type="curve" smooth="yes"/>
      <point x="359.836" y="386.793"/>
      <point x="372.121" y="370.325"/>
      <point x="380.819" y="356" type="curve"/>
      <point x="300.819" y="318.563" type="line"/>
      <point x="280.819" y="351"/>
      <point x="270.355" y="380.62"/>
    </contour>
    <contour>
      <point x="21.0928" y="283.844" type="curve" smooth="yes"/>
      <point x="21.0928" y="487.986"/>
      <point x="106.274" y="559"/>
      <point x="210.372" y="559" type="curve" smooth="yes"/>
      <point x="286.886" y="559"/>
      <point x="328.642" y="502.58"/>
      <point x="338" y="462" type="curve"/>
      <point x="272" y="401" type="line"/>
      <point x="266.823" y="417.586"/>
      <point x="252" y="455"/>
      <point x="210.372" y="455" type="curve" smooth="yes"/>
      <point x="166.795" y="455"/>
      <point x="127.093" y="407.547"/>
      <point x="127.093" y="283.844" type="curve" smooth="yes"/>
      <point x="127.093" y="131.5"/>
      <point x="150.872" y="101.844"/>
      <point x="184.093" y="101.844" type="curve" smooth="yes"/>
      <point x="184.093" y="-0.15625" type="line" smooth="yes"/>
      <point x="89.0928" y="-0.15625"/>
      <point x="21.0928" y="46.1205"/>
    </contour>
  </outline>
</glyph>
<glyph name="si_Ta" format="1">
  <advance width="696"/>
  <unicode hex="0DAD"/>
  <outline>
    <contour>
      <point x="436" y="473" type="curve" smooth="yes"/>
      <point x="383" y="473"/>
      <point x="356.579" y="457"/>
      <point x="317" y="416" type="curve" smooth="yes"/>
      <point x="313.436" y="412.308"/>
      <point x="53.458" y="138.675"/>
      <point x="45" y="131" type="curve"/>
      <point x="42" y="265" type="line"/>
      <point x="109" y="334"/>
      <point x="77.1483" y="298.066"/>
      <point x="137.088" y="364" type="curve" smooth="yes"/>
      <point x="157.088" y="386"/>
      <point x="245.088" y="489"/>
      <point x="245.088" y="489" type="curve" smooth="yes"/>
      <point x="294.088" y="545"/>
      <point x="346" y="585"/>
      <point x="436" y="585" type="curve" smooth="yes"/>
      <point x="566" y="585"/>
      <point x="674.716" y="490"/>
      <point x="674.716" y="267" type="curve" smooth="yes"/>
      <point x="674.716" y="70"/>
      <point x="597.315" y="0"/>
      <point x="493.716" y="0" type="curve" smooth="yes"/>
      <point x="417.802" y="0"/>
      <point x="376.373" y="50.0215"/>
      <point x="367.088" y="86" type="curve"/>
      <point x="432.088" y="158" type="line"/>
      <point x="437.265" y="141.414"/>
      <point x="452.088" y="105"/>
      <point x="493.716" y="105" type="curve" smooth="yes"/>
      <point x="536.818" y="105"/>
      <point x="563.716" y="157"/>
      <point x="563.716" y="267" type="curve" smooth="yes"/>
      <point x="563.716" y="399"/>
      <point x="518" y="473"/>
    </contour>
    <contour>
      <point x="250" y="110" type="curve" smooth="yes"/>
      <point x="327.409" y="110"/>
      <point x="336.088" y="163"/>
      <point x="336.088" y="232" type="curve" smooth="yes"/>
      <point x="336.088" y="316"/>
      <point x="291.088" y="351"/>
      <point x="238.088" y="349" type="curve"/>
      <point x="283" y="418" type="line"/>
      <point x="325" y="432"/>
      <point x="443.088" y="407"/>
      <point x="443.088" y="231" type="curve" smooth="yes"/>
      <point x="443.088" y="69"/>
      <point x="372.168" y="0"/>
      <point x="249.088" y="0" type="curve" smooth="yes"/>
      <point x="43" y="0"/>
      <point x="111" y="143"/>
      <point x="70" y="162" type="curve"/>
      <point x="142" y="235" type="line"/>
      <point x="185" y="206"/>
      <point x="132" y="110"/>
    </contour>
    <contour>
      <point x="157.615" y="592.101" type="curve" smooth="yes"/>
      <point x="234.605" y="592.101"/>
      <point x="306" y="535.437"/>
      <point x="306" y="426.101" type="curve" smooth="yes"/>
      <point x="306" y="394.836"/>
      <point x="295.088" y="388"/>
      <point x="270.088" y="368" type="curve"/>
      <point x="206.807" y="414.537" type="line" smooth="yes"/>
      <point x="207.868" y="420.779"/>
      <point x="208.371" y="426.749"/>
      <point x="208.371" y="432.412" type="curve" smooth="yes"/>
      <point x="208.371" y="470.045"/>
      <point x="184.526" y="494.101"/>
      <point x="156" y="494.101" type="curve" smooth="yes"/>
      <point x="128.166" y="494.101"/>
      <point x="114.575" y="473.113"/>
      <point x="114.575" y="450.004" type="curve" smooth="yes"/>
      <point x="114.575" y="410"/>
      <point x="141.799" y="393"/>
      <point x="171.799" y="386" type="curve"/>
      <point x="112.088" y="326" type="line"/>
      <point x="66.7988" y="343"/>
      <point x="22" y="390"/>
      <point x="22" y="459.637" type="curve" smooth="yes"/>
      <point x="22" y="530.232"/>
      <point x="70" y="592.101"/>
    </contour>
  </outline>
</glyph>
<glyph name="si_Tha" format="1">
  <advance width="548"/>
  <unicode hex="0DAE"/>
  <outline>
    <contour>
      <point x="227.043" y="601" type="curve" smooth="yes"/>
      <point x="227.043" y="667.849"/>
      <point x="278.367" y="685.932"/>
      <point x="278.367" y="709.823" type="curve" smooth="yes"/>
      <point x="278.367" y="716.953"/>
      <point x="273.905" y="724.23"/>
      <point x="262.043" y="733" type="curve"/>
      <point x="368.369" y="755" type="line"/>
      <point x="357.043" y="643" type="line"/>
      <point x="340.034" y="636.649"/>
      <point x="330.043" y="619.604"/>
      <point x="330.043" y="605" type="curve" smooth="yes"/>
      <point x="330.043" y="587.891"/>
      <point x="349.426" y="565.247"/>
      <point x="380" y="558.715" type="curve" smooth="yes"/>
      <point x="384.148" y="557.829"/>
      <point x="388.503" y="557.239"/>
      <point x="393.043" y="557" type="curve"/>
      <point x="480.369" y="524" type="line"/>
      <point x="418.043" y="448" type="line"/>
      <point x="399.759" y="449.147"/>
      <point x="379.843" y="453.068"/>
      <point x="360" y="459.511" type="curve" smooth="yes"/>
      <point x="293.111" y="481.229"/>
      <point x="227.043" y="531.607"/>
    </contour>
    <contour>
      <point x="21.8545" y="252.396" type="curve" smooth="yes"/>
      <point x="21.8545" y="381.537"/>
      <point x="88.8545" y="472"/>
      <point x="186.548" y="472" type="curve" smooth="yes"/>
      <point x="214.314" y="472"/>
      <point x="243.346" y="465.063"/>
      <point x="271.72" y="445.258" type="curve"/>
      <point x="233.854" y="345" type="line"/>
      <point x="220.007" y="352.989"/>
      <point x="207.337" y="356.607"/>
      <point x="195.991" y="356.607" type="curve" smooth="yes"/>
      <point x="155.475" y="356.607"/>
      <point x="131.854" y="310.459"/>
      <point x="131.854" y="252.396" type="curve" smooth="yes"/>
      <point x="131.854" y="189.243"/>
      <point x="159.08" y="115"/>
      <point x="252" y="115" type="curve" smooth="yes"/>
      <point x="356.452" y="115"/>
      <point x="411" y="181.018"/>
      <point x="411" y="340" type="curve" smooth="yes"/>
      <point x="411" y="415.912"/>
      <point x="409.614" y="484.646"/>
      <point x="393.697" y="545" type="curve"/>
      <point x="387.947" y="578.997"/>
      <point x="369.944" y="627.989"/>
      <point x="347.876" y="648" type="curve"/>
      <point x="326.377" y="682.766"/>
      <point x="296.31" y="712.203"/>
      <point x="261.854" y="733" type="curve"/>
      <point x="333.854" y="817" type="line"/>
      <point x="471.854" y="726"/>
      <point x="526" y="555.741"/>
      <point x="526" y="340" type="curve" smooth="yes"/>
      <point x="526" y="104"/>
      <point x="432" y="0"/>
      <point x="252" y="0" type="curve" smooth="yes"/>
      <point x="74" y="0"/>
      <point x="21.8545" y="136.287"/>
    </contour>
  </outline>
</glyph>
<glyph name="si_Dha" format="1">
  <advance width="597"/>
  <unicode hex="0DB0"/>
  <outline>
    <contour>
      <point x="40.6738" y="231.204" type="curve" smooth="yes"/>
      <point x="40.6738" y="277.471"/>
      <point x="46.8848" y="319.61"/>
      <point x="54.8018" y="345" type="curve" smooth="yes"/>
      <point x="78.8711" y="422.729"/>
      <point x="134.253" y="472"/>
      <point x="206.352" y="472" type="curve" smooth="yes"/>
      <point x="234.118" y="472"/>
      <point x="263.149" y="465.063"/>
      <point x="291.523" y="445.258" type="curve"/>
      <point x="253.658" y="345" type="line"/>
      <point x="239.811" y="352.989"/>
      <point x="227.141" y="356.607"/>
      <point x="215.795" y="356.607" type="curve" smooth="yes"/>
      <point x="189.012" y="356.607"/>
      <point x="169.612" y="336.442"/>
      <point x="159.538" y="306" type="curve" smooth="yes"/>
      <point x="155.106" y="291.601"/>
      <point x="151.621" y="261.724"/>
      <point x="151.621" y="229.771" type="curve" smooth="yes"/>
      <point x="151.621" y="175.234"/>
      <point x="161.774" y="114.652"/>
      <point x="194.712" y="114.652" type="curve" smooth="yes"/>
      <point x="236.888" y="114.652"/>
      <point x="251.894" y="179.678"/>
      <point x="251.894" y="249.5" type="curve"/>
      <point x="347.805" y="249.5" type="line"/>
      <point x="347.805" y="176.75"/>
      <point x="363.272" y="115"/>
      <point x="406.263" y="115" type="curve" smooth="yes"/>
      <point x="463.019" y="115"/>
      <point x="463.019" y="239.958"/>
      <point x="463.019" y="293" type="curve" smooth="yes"/>
      <point x="463.019" y="522.797"/>
      <point x="420.019" y="639.885"/>
      <point x="282.019" y="639.885" type="curve" smooth="yes"/>
      <point x="240.915" y="639.885"/>
      <point x="193.256" y="618.96"/>
      <point x="176.2" y="576.855" type="curve"/>
      <point x="67.168" y="613.029" type="line"/>
      <point x="103.152" y="707.868"/>
      <point x="195.298" y="755"/>
      <point x="282.019" y="755" type="curve" smooth="yes"/>
      <point x="499.019" y="755"/>
      <point x="578.019" y="599.056"/>
      <point x="578.019" y="293" type="curve" smooth="yes"/>
      <point x="578.019" y="181.996"/>
      <point x="577.019" y="0"/>
      <point x="406.263" y="0" type="curve" smooth="yes"/>
      <point x="350.343" y="0"/>
      <point x="312.32" y="33.1445"/>
      <point x="297.5" y="79.0303" type="curve"/>
      <point x="281.354" y="31.6025"/>
      <point x="241.942" y="0"/>
      <point x="189.263" y="0" type="curve" smooth="yes"/>
      <point x="72.6543" y="0"/>
      <point x="40.6738" y="126.225"/>
    </contour>
  </outline>
</glyph>
<glyph name="si_Na" format="1">
  <advance width="691"/>
  <unicode hex="0DB1"/>
  <outline>
    <contour>
      <point x="224" y="0" type="curve" smooth="yes"/>
      <point x="117.177" y="0"/>
      <point x="1.37207" y="57"/>
      <point x="28.3721" y="285" type="curve"/>
      <point x="125.372" y="279" type="line"/>
      <point x="114.372" y="155"/>
      <point x="134" y="106"/>
      <point x="224" y="106" type="curve" smooth="yes"/>
      <point x="289" y="106"/>
      <point x="319" y="147"/>
      <point x="319" y="217" type="curve" smooth="yes"/>
      <point x="319" y="308"/>
      <point x="267" y="322"/>
      <point x="216" y="304" type="curve"/>
      <point x="296" y="385" type="line"/>
      <point x="318.441" y="396"/>
      <point x="426" y="382"/>
      <point x="426" y="217" type="curve" smooth="yes"/>
      <point x="426" y="62"/>
      <point x="328" y="0"/>
    </contour>
    <contour>
      <point x="424.644" y="473.229" type="curve" smooth="yes"/>
      <point x="382.672" y="473.229"/>
      <point x="360.372" y="465"/>
      <point x="323.372" y="409" type="curve" smooth="yes"/>
      <point x="281.048" y="344.942"/>
      <point x="248.372" y="129"/>
      <point x="94.3721" y="188" type="curve"/>
      <point x="49.7441" y="206" type="line"/>
      <point x="109.744" y="263" type="line"/>
      <point x="177.372" y="241.557"/>
      <point x="200.075" y="394.865"/>
      <point x="237.372" y="462" type="curve" smooth="yes"/>
      <point x="277.372" y="534"/>
      <point x="344.372" y="585"/>
      <point x="434.372" y="585" type="curve" smooth="yes"/>
      <point x="552" y="585"/>
      <point x="662" y="486"/>
      <point x="662" y="263" type="curve" smooth="yes"/>
      <point x="662" y="58"/>
      <point x="580" y="0"/>
      <point x="468" y="0" type="curve" smooth="yes"/>
      <point x="392.086" y="0"/>
      <point x="351.285" y="58.0215"/>
      <point x="342" y="94" type="curve"/>
      <point x="410" y="158" type="line"/>
      <point x="411" y="134"/>
      <point x="426.372" y="103"/>
      <point x="468" y="103" type="curve" smooth="yes"/>
      <point x="518" y="103"/>
      <point x="551" y="137"/>
      <point x="551" y="263" type="curve" smooth="yes"/>
      <point x="551" y="399.94"/>
      <point x="499.225" y="473.229"/>
    </contour>
    <contour>
      <point x="175.809" y="593.563" type="curve" smooth="yes"/>
      <point x="252.799" y="593.563"/>
      <point x="324.193" y="536.899"/>
      <point x="324.193" y="427.563" type="curve" smooth="yes"/>
      <point x="324.193" y="396.299"/>
      <point x="313.281" y="389.463"/>
      <point x="288.281" y="369.463" type="curve"/>
      <point x="225" y="416" type="line" smooth="yes"/>
      <point x="226.062" y="422.242"/>
      <point x="226.564" y="428.212"/>
      <point x="226.564" y="433.875" type="curve" smooth="yes"/>
      <point x="226.564" y="471.508"/>
      <point x="202.72" y="495.563"/>
      <point x="174.193" y="495.563" type="curve" smooth="yes"/>
      <point x="146.359" y="495.563"/>
      <point x="132.769" y="474.576"/>
      <point x="132.769" y="451.467" type="curve" smooth="yes"/>
      <point x="132.769" y="418.463"/>
      <point x="167.628" y="387.563"/>
      <point x="221.628" y="380.563" type="curve"/>
      <point x="195" y="302.463" type="line"/>
      <point x="93.6279" y="327.563"/>
      <point x="40.1934" y="391.463"/>
      <point x="40.1934" y="461.1" type="curve" smooth="yes"/>
      <point x="40.1934" y="531.695"/>
      <point x="88.1934" y="593.563"/>
    </contour>
  </outline>
</glyph>
<glyph name="si_Nda" format="1">
  <advance width="575"/>
  <unicode hex="0DB3"/>
  <outline>
    <contour>
      <point x="319.334" y="-57.9707" type="curve" smooth="yes"/>
      <point x="319.334" y="-31.606"/>
      <point x="326.78" y="-4.27525"/>
      <point x="343" y="21.5381" type="curve"/>
      <point x="433" y="44.4365" type="line"/>
      <point x="443" y="4" type="line"/>
      <point x="431.925" y="-8.77364"/>
      <point x="426.221" y="-26.3193"/>
      <point x="426.221" y="-43.2051" type="curve" smooth="yes"/>
      <point x="426.221" y="-70.9962"/>
      <point x="441.672" y="-97"/>
      <point x="474.055" y="-97" type="curve" smooth="yes"/>
      <point x="498.686" y="-97"/>
      <point x="525.509" y="-85.0557"/>
      <point x="548" y="-54.5635" type="curve"/>
      <point x="625" y="-106.563" type="line"/>
      <point x="579.089" y="-175.431"/>
      <point x="524.333" y="-202.407"/>
      <point x="474.055" y="-202.407" type="curve" smooth="yes"/>
      <point x="381.628" y="-202.407"/>
      <point x="319.334" y="-134.23"/>
    </contour>
    <contour>
      <point x="187" y="217" type="curve" smooth="yes"/>
      <point x="187" y="330.947"/>
      <point x="283.68" y="421.352"/>
      <point x="404" y="421.352" type="curve" smooth="yes"/>
      <point x="422.83" y="421.352"/>
      <point x="435" y="420"/>
      <point x="452.807" y="418.437" type="curve"/>
      <point x="453.868" y="424.679"/>
      <point x="454.371" y="430.648"/>
      <point x="454.371" y="436.312" type="curve" smooth="yes"/>
      <point x="454.371" y="473.944"/>
      <point x="432.142" y="498"/>
      <point x="403.615" y="498" type="curve" smooth="yes"/>
      <point x="374.26" y="498"/>
      <point x="358.432" y="477"/>
      <point x="358.432" y="453.164" type="curve" smooth="yes"/>
      <point x="358.432" y="440.756"/>
      <point x="361.948" y="427.391"/>
      <point x="369.78" y="418" type="curve"/>
      <point x="292" y="379" type="line"/>
      <point x="272.69" y="404.207"/>
      <point x="264.956" y="430.604"/>
      <point x="264.956" y="458.407" type="curve" smooth="yes"/>
      <point x="264.956" y="534.137"/>
      <point x="317.056" y="596"/>
      <point x="403.615" y="596" type="curve" smooth="yes"/>
      <point x="480.605" y="596"/>
      <point x="552" y="539.336"/>
      <point x="552" y="430" type="curve" smooth="yes"/>
      <point x="552" y="398.735"/>
      <point x="545" y="357"/>
      <point x="533" y="318" type="curve"/>
      <point x="533" y="318"/>
      <point x="452.531" y="318"/>
      <point x="404" y="318" type="curve" smooth="yes"/>
      <point x="348" y="318"/>
      <point x="299" y="274"/>
      <point x="299" y="217" type="curve" smooth="yes"/>
      <point x="299" y="160"/>
      <point x="345.782" y="116"/>
      <point x="404" y="116" type="curve" smooth="yes"/>
      <point x="439.293" y="116"/>
      <point x="470.569" y="131.386"/>
      <point x="490.662" y="155.437" type="curve"/>
      <point x="577" y="93.042" type="line"/>
      <point x="536.89" y="36.2998"/>
      <point x="474.454" y="0"/>
      <point x="404" y="0" type="curve" smooth="yes"/>
      <point x="283.664" y="0"/>
      <point x="187" y="96.6641"/>
    </contour>
    <contour>
      <point x="19" y="284" type="curve" smooth="yes"/>
      <point x="19" y="506.574"/>
      <point x="103.772" y="584"/>
      <point x="207.372" y="584" type="curve" smooth="yes"/>
      <point x="276.692" y="584"/>
      <point x="314.521" y="527.58"/>
      <point x="323" y="487" type="curve"/>
      <point x="269" y="426" type="line"/>
      <point x="263.823" y="442.586"/>
      <point x="249" y="480"/>
      <point x="207.372" y="480" type="curve" smooth="yes"/>
      <point x="164.27" y="480"/>
      <point x="125" y="425.659"/>
      <point x="125" y="284" type="curve" smooth="yes"/>
      <point x="125" y="131.656"/>
      <point x="148.779" y="102"/>
      <point x="182" y="102" type="curve" smooth="yes"/>
      <point x="182" y="0" type="line" smooth="yes"/>
      <point x="87" y="0"/>
      <point x="19" y="46.2768"/>
    </contour>
  </outline>
</glyph>
<glyph name="si_Ba" format="1">
  <advance width="575"/>
  <unicode hex="0DB6"/>
  <outline>
    <contour>
      <point x="22" y="220" type="curve" smooth="yes"/>
      <point x="22" y="425.89"/>
      <point x="98" y="488.874"/>
      <point x="202.186" y="488.874" type="curve" smooth="yes"/>
      <point x="309.691" y="488.874"/>
      <point x="371.125" y="430"/>
      <point x="371.125" y="324" type="curve" smooth="yes"/>
      <point x="371.125" y="251"/>
      <point x="320.483" y="228"/>
      <point x="320.483" y="177" type="curve" smooth="yes"/>
      <point x="320.483" y="142.758"/>
      <point x="333.728" y="115"/>
      <point x="360" y="115" type="curve" smooth="yes"/>
      <point x="412.212" y="115"/>
      <point x="439.24" y="190"/>
      <point x="439.24" y="293" type="curve" smooth="yes"/>
      <point x="439.24" y="522.797"/>
      <point x="396.24" y="639.885"/>
      <point x="258.24" y="639.885" type="curve" smooth="yes"/>
      <point x="217.137" y="639.885"/>
      <point x="169.478" y="618.96"/>
      <point x="152.422" y="576.855" type="curve"/>
      <point x="43.3896" y="613.029" type="line"/>
      <point x="79.374" y="707.868"/>
      <point x="171.52" y="755"/>
      <point x="258.24" y="755" type="curve" smooth="yes"/>
      <point x="475.24" y="755"/>
      <point x="554.24" y="599.056"/>
      <point x="554.24" y="293" type="curve" smooth="yes"/>
      <point x="553.756" y="181.996"/>
      <point x="521.881" y="0"/>
      <point x="364.125" y="0" type="curve" smooth="yes"/>
      <point x="239.822" y="0"/>
      <point x="211.587" y="87.4053"/>
      <point x="211.587" y="177" type="curve" smooth="yes"/>
      <point x="211.587" y="237"/>
      <point x="259.125" y="264"/>
      <point x="259.125" y="324" type="curve" smooth="yes"/>
      <point x="259.125" y="354"/>
      <point x="243.691" y="376.433"/>
      <point x="201" y="376.433" type="curve" smooth="yes"/>
      <point x="161.173" y="376.433"/>
      <point x="132" y="339.788"/>
      <point x="132" y="220" type="curve" smooth="yes"/>
      <point x="132" y="128"/>
      <point x="150" y="110"/>
      <point x="171" y="110" type="curve" smooth="yes"/>
      <point x="191" y="110"/>
      <point x="208" y="120"/>
      <point x="224" y="156" type="curve"/>
      <point x="280" y="73" type="line"/>
      <point x="251" y="28"/>
      <point x="223.479" y="0"/>
      <point x="171" y="0" type="curve" smooth="yes"/>
      <point x="66" y="0"/>
      <point x="22" y="79"/>
    </contour>
  </outline>
</glyph>
<glyph name="si_Bha" format="1">
  <advance width="698"/>
  <unicode hex="0DB7"/>
  <outline>
    <contour>
      <point x="74.3848" y="454" type="curve" smooth="yes"/>
      <point x="74.3848" y="532.132"/>
      <point x="124.447" y="594"/>
      <point x="215.827" y="594" type="curve" smooth="yes"/>
      <point x="280.112" y="594"/>
      <point x="341.007" y="556.409"/>
      <point x="360.668" y="483" type="curve" smooth="yes"/>
      <point x="361.919" y="478.329"/>
      <point x="362.483" y="473.071"/>
      <point x="362.483" y="467.354" type="curve" smooth="yes"/>
      <point x="362.483" y="425.625"/>
      <point x="332.415" y="359.423"/>
      <point x="319.804" y="318.437" type="curve"/>
      <point x="269.454" y="403.03" type="line" smooth="yes"/>
      <point x="270.516" y="409.272"/>
      <point x="274.868" y="420"/>
      <point x="274.868" y="434.342" type="curve" smooth="yes"/>
      <point x="274.868" y="481.03"/>
      <point x="244.195" y="496"/>
      <point x="220" y="496" type="curve" smooth="yes"/>
      <point x="183.981" y="496"/>
      <point x="167.23" y="474.292"/>
      <point x="167.23" y="443" type="curve" smooth="yes"/>
      <point x="167.23" y="414"/>
      <point x="180.755" y="397.281"/>
      <point x="198" y="392" type="curve"/>
      <point x="146.289" y="326.719" type="line"/>
      <point x="111.48" y="347"/>
      <point x="74.3848" y="398"/>
    </contour>
    <contour>
      <point x="246" y="0" type="curve" smooth="yes"/>
      <point x="121.583" y="0"/>
      <point x="46.4245" y="98.4753"/>
      <point x="46.4245" y="210.498" type="curve" smooth="yes"/>
      <point x="46.4245" y="229.742"/>
      <point x="48.6425" y="249.387"/>
      <point x="53.21" y="269" type="curve" smooth="yes"/>
      <point x="57.834" y="288.856"/>
      <point x="64.2227" y="306.742"/>
      <point x="71.2441" y="319.563" type="curve"/>
      <point x="30.4277" y="319.667" type="line"/>
      <point x="30.4277" y="408" type="line"/>
      <point x="133.761" y="408"/>
      <point x="237.095" y="408"/>
      <point x="340.428" y="408" type="curve"/>
      <point x="340.428" y="319" type="line"/>
      <point x="213" y="318" type="line" smooth="yes"/>
      <point x="187.507" y="317.8"/>
      <point x="170.267" y="294.194"/>
      <point x="160.974" y="264" type="curve" smooth="yes"/>
      <point x="156.994" y="251.068"/>
      <point x="154.77" y="235.897"/>
      <point x="154.77" y="220.21" type="curve" smooth="yes"/>
      <point x="154.77" y="167.965"/>
      <point x="179.432" y="110"/>
      <point x="246" y="110" type="curve" smooth="yes"/>
      <point x="317.957" y="110"/>
      <point x="336" y="142.339"/>
      <point x="336" y="170" type="curve" smooth="yes"/>
      <point x="336" y="180.209"/>
      <point x="334.15" y="195.969"/>
      <point x="321.732" y="195.969" type="curve" smooth="yes"/>
      <point x="318.337" y="195.969"/>
      <point x="314.152" y="194.791"/>
      <point x="309" y="192" type="curve"/>
      <point x="367" y="286" type="line"/>
      <point x="426" y="272"/>
      <point x="442" y="217"/>
      <point x="442" y="167" type="curve" smooth="yes"/>
      <point x="442" y="99"/>
      <point x="396" y="0"/>
    </contour>
    <contour>
      <point x="471" y="478" type="curve" smooth="yes"/>
      <point x="339" y="478"/>
      <point x="429" y="256.156"/>
      <point x="292" y="181.156" type="curve"/>
      <point x="233" y="255.156" type="line"/>
      <point x="345" y="331.156"/>
      <point x="234" y="584"/>
      <point x="471" y="584" type="curve" smooth="yes"/>
      <point x="577.999" y="584"/>
      <point x="676" y="526.375"/>
      <point x="676" y="292" type="curve" smooth="yes"/>
      <point x="676" y="69.4258"/>
      <point x="591.228" y="0"/>
      <point x="487.628" y="0" type="curve" smooth="yes"/>
      <point x="411.714" y="0"/>
      <point x="370.285" y="50.0215"/>
      <point x="361" y="86" type="curve"/>
      <point x="426" y="158" type="line"/>
      <point x="431.177" y="141.414"/>
      <point x="446" y="104"/>
      <point x="487.628" y="104" type="curve" smooth="yes"/>
      <point x="530.73" y="104"/>
      <point x="570" y="150.341"/>
      <point x="570" y="292" type="curve" smooth="yes"/>
      <point x="570" y="439.547"/>
      <point x="520.585" y="478"/>
    </contour>
  </outline>
</glyph>
<glyph name="si_Ma" format="1">
  <advance width="552"/>
  <unicode hex="0DB8"/>
  <outline>
    <contour>
      <point x="161" y="433" type="curve" smooth="yes"/>
      <point x="134.531" y="433"/>
      <point x="123.713" y="347.823"/>
      <point x="123.713" y="301" type="curve" smooth="yes"/>
      <point x="123.713" y="191.501"/>
      <point x="166.479" y="115"/>
      <point x="269" y="115" type="curve" smooth="yes"/>
      <point x="373.452" y="115"/>
      <point x="415" y="195.018"/>
      <point x="415" y="354" type="curve" smooth="yes"/>
      <point x="415" y="583"/>
      <point x="342.68" y="639.885"/>
      <point x="259.854" y="639.885" type="curve" smooth="yes"/>
      <point x="218.751" y="639.885"/>
      <point x="178.666" y="618.96"/>
      <point x="161.61" y="576.855" type="curve"/>
      <point x="52.5781" y="613.029" type="line"/>
      <point x="88.5625" y="707.868"/>
      <point x="173.134" y="755"/>
      <point x="259.854" y="755" type="curve" smooth="yes"/>
      <point x="399.326" y="755"/>
      <point x="530" y="675.859"/>
      <point x="530" y="354" type="curve" smooth="yes"/>
      <point x="530" y="118"/>
      <point x="449" y="0"/>
      <point x="269" y="0" type="curve" smooth="yes"/>
      <point x="91.6143" y="0"/>
      <point x="22" y="123.69"/>
      <point x="22" y="301" type="curve" smooth="yes"/>
      <point x="22" y="395.516"/>
      <point x="60" y="527"/>
      <point x="164" y="527" type="curve" smooth="yes"/>
      <point x="204.403" y="527"/>
      <point x="239.785" y="502.523"/>
      <point x="252.744" y="466" type="curve" smooth="yes"/>
      <point x="268.618" y="421.261"/>
      <point x="249" y="373.123"/>
      <point x="249" y="330" type="curve" smooth="yes"/>
      <point x="249" y="313.806"/>
      <point x="253" y="302.395"/>
      <point x="267" y="302.395" type="curve" smooth="yes"/>
      <point x="288.411" y="302.395"/>
      <point x="292" y="345.962"/>
      <point x="292" y="380" type="curve" smooth="yes"/>
      <point x="292" y="416"/>
      <point x="288" y="447.066"/>
      <point x="267.999" y="447.066" type="curve" smooth="yes"/>
      <point x="262.299" y="447.066"/>
      <point x="255" y="443"/>
      <point x="255" y="433" type="curve" smooth="yes"/>
      <point x="213" y="500" type="line" smooth="yes"/>
      <point x="221" y="510"/>
      <point x="243" y="527"/>
      <point x="277" y="527" type="curve" smooth="yes"/>
      <point x="353.674" y="527"/>
      <point x="369" y="457"/>
      <point x="369" y="378.769" type="curve" smooth="yes"/>
      <point x="369" y="332.239"/>
      <point x="361.484" y="287.062"/>
      <point x="346" y="262" type="curve" smooth="yes"/>
      <point x="328.817" y="234.188"/>
      <point x="297.443" y="221.558"/>
      <point x="266" y="221.558" type="curve" smooth="yes"/>
      <point x="234.976" y="221.558"/>
      <point x="203.865" y="233.854"/>
      <point x="189" y="256" type="curve" smooth="yes"/>
      <point x="139.999" y="329"/>
      <point x="205.829" y="433"/>
    </contour>
  </outline>
</glyph>
<glyph name="si_Mba" format="1">
  <advance width="578"/>
  <unicode hex="0DB9"/>
  <outline>
    <contour>
      <point x="172" y="0" type="curve" smooth="yes"/>
      <point x="51" y="0"/>
      <point x="22" y="115"/>
      <point x="22" y="253" type="curve" smooth="yes"/>
      <point x="22" y="389"/>
      <point x="55" y="527"/>
      <point x="170.287" y="527" type="curve" smooth="yes"/>
      <point x="234.287" y="527"/>
      <point x="274" y="481"/>
      <point x="275" y="438" type="curve" smooth="yes"/>
      <point x="193" y="413" type="line" smooth="yes"/>
      <point x="192.655" y="423.388"/>
      <point x="183.195" y="429"/>
      <point x="172.287" y="429" type="curve" smooth="yes"/>
      <point x="140.287" y="429"/>
      <point x="128.673" y="348"/>
      <point x="128.673" y="265.912" type="curve" smooth="yes"/>
      <point x="128.673" y="202"/>
      <point x="133" y="115"/>
      <point x="172" y="115" type="curve" smooth="yes"/>
      <point x="200" y="115"/>
      <point x="184" y="152.004"/>
      <point x="184" y="189" type="curve" smooth="yes"/>
      <point x="184" y="236.994"/>
      <point x="216" y="258"/>
      <point x="287" y="258" type="curve"/>
      <point x="287" y="180" type="line"/>
      <point x="270" y="180"/>
      <point x="265" y="171.093"/>
      <point x="265" y="158" type="curve" smooth="yes"/>
      <point x="265" y="141.674"/>
      <point x="271" y="125"/>
      <point x="271" y="94" type="curve" smooth="yes"/>
      <point x="271" y="54"/>
      <point x="238.475" y="0"/>
    </contour>
    <contour>
      <point x="402" y="0" type="curve" smooth="yes"/>
      <point x="335.525" y="0"/>
      <point x="303" y="54"/>
      <point x="303" y="94" type="curve" smooth="yes"/>
      <point x="303" y="125"/>
      <point x="309" y="141.674"/>
      <point x="309" y="158" type="curve" smooth="yes"/>
      <point x="309" y="171.093"/>
      <point x="304" y="180"/>
      <point x="287" y="180" type="curve"/>
      <point x="287" y="258" type="line"/>
      <point x="358" y="258"/>
      <point x="390" y="236.994"/>
      <point x="390" y="189" type="curve" smooth="yes"/>
      <point x="390" y="152.004"/>
      <point x="374" y="115"/>
      <point x="402" y="115" type="curve" smooth="yes"/>
      <point x="441" y="115"/>
      <point x="442.756" y="239.96"/>
      <point x="442.756" y="293" type="curve" smooth="yes"/>
      <point x="442.756" y="522.797"/>
      <point x="399.756" y="639.885"/>
      <point x="261.756" y="639.885" type="curve" smooth="yes"/>
      <point x="220.652" y="639.885"/>
      <point x="172.993" y="618.96"/>
      <point x="155.938" y="576.855" type="curve"/>
      <point x="46.9053" y="613.029" type="line"/>
      <point x="82.8896" y="707.868"/>
      <point x="175.035" y="755"/>
      <point x="261.756" y="755" type="curve" smooth="yes"/>
      <point x="478.756" y="755"/>
      <point x="557.756" y="599.056"/>
      <point x="557.756" y="293" type="curve" smooth="yes"/>
      <point x="557.756" y="181.996"/>
      <point x="547" y="0"/>
    </contour>
    <contour>
      <point x="271" y="438" type="curve"/>
      <point x="230" y="498" type="line"/>
      <point x="242" y="513"/>
      <point x="260.226" y="526"/>
      <point x="293.226" y="526" type="curve" smooth="yes"/>
      <point x="353.226" y="526"/>
      <point x="384" y="479.905"/>
      <point x="384" y="404" type="curve" smooth="yes"/>
      <point x="384" y="326.905"/>
      <point x="368" y="275"/>
      <point x="287" y="275" type="curve" smooth="yes"/>
      <point x="199.427" y="275"/>
      <point x="182" y="336"/>
      <point x="193" y="413" type="curve"/>
      <point x="275" y="438" type="line"/>
      <point x="270" y="384"/>
      <point x="274" y="364"/>
      <point x="292" y="364" type="curve" smooth="yes"/>
      <point x="302.823" y="364"/>
      <point x="309" y="374"/>
      <point x="309" y="404.021" type="curve" smooth="yes"/>
      <point x="309" y="425.854"/>
      <point x="306.392" y="446.864"/>
      <point x="290" y="446.864" type="curve" smooth="yes"/>
      <point x="283" y="446.864"/>
      <point x="276" y="445"/>
    </contour>
  </outline>
</glyph>
<glyph name="si_Ya" format="1">
  <advance width="582"/>
  <unicode hex="0DBA"/>
  <outline>
    <contour>
      <point x="247.719" y="433.235" type="curve" smooth="yes"/>
      <point x="247.719" y="455.686"/>
      <point x="253.519" y="478.639"/>
      <point x="254.679" y="482.97" type="curve" smooth="yes"/>
      <point x="274.308" y="556.266"/>
      <point x="333.397" y="594"/>
      <point x="396.216" y="594" type="curve" smooth="yes"/>
      <point x="482.775" y="594"/>
      <point x="534.875" y="532.123"/>
      <point x="534.875" y="456.377" type="curve" smooth="yes"/>
      <point x="534.875" y="428.119"/>
      <point x="523.627" y="394.619"/>
      <point x="503.489" y="369" type="curve"/>
      <point x="426.78" y="410.406" type="line"/>
      <point x="434.764" y="419.53"/>
      <point x="441.399" y="439.078"/>
      <point x="441.399" y="451.134" type="curve" smooth="yes"/>
      <point x="441.399" y="474.985"/>
      <point x="427.187" y="496"/>
      <point x="392.043" y="496" type="curve" smooth="yes"/>
      <point x="369.305" y="496"/>
      <point x="340.479" y="481.022"/>
      <point x="340.479" y="434.312" type="curve" smooth="yes"/>
      <point x="340.479" y="428.648"/>
      <point x="340.981" y="422.212"/>
      <point x="342.043" y="415.97" type="curve"/>
      <point x="264.799" y="317.97" type="line"/>
      <point x="251.897" y="359.899"/>
      <point x="247.719" y="389.259"/>
    </contour>
    <contour>
      <point x="22.043" y="255.97" type="curve" smooth="yes"/>
      <point x="22.043" y="410.301"/>
      <point x="104.085" y="491.521"/>
      <point x="203.096" y="491.521" type="curve" smooth="yes"/>
      <point x="235.602" y="491.521"/>
      <point x="269.938" y="482.766"/>
      <point x="303.799" y="464.97" type="curve"/>
      <point x="258.799" y="374.97" type="line"/>
      <point x="241.855" y="383.441"/>
      <point x="226.929" y="387.111"/>
      <point x="213.821" y="387.111" type="curve" smooth="yes"/>
      <point x="149.569" y="387.111"/>
      <point x="129.043" y="298.932"/>
      <point x="129.043" y="255.97" type="curve" smooth="yes"/>
      <point x="129.043" y="206.234"/>
      <point x="129.043" y="114.97"/>
      <point x="187.043" y="114.97" type="curve" smooth="yes"/>
      <point x="233.743" y="114.97"/>
      <point x="249.674" y="176.72"/>
      <point x="249.674" y="249.47" type="curve"/>
      <point x="340.887" y="249.47" type="line"/>
      <point x="340.887" y="176.72"/>
      <point x="356.817" y="114.97"/>
      <point x="403.518" y="114.97" type="curve" smooth="yes"/>
      <point x="438.812" y="114.97"/>
      <point x="453" y="157.234"/>
      <point x="453" y="206.97" type="curve" smooth="yes"/>
      <point x="453" y="258.695"/>
      <point x="432.755" y="317.97"/>
      <point x="392.762" y="317.97" type="curve" smooth="yes"/>
      <point x="264.799" y="317.97" type="line"/>
      <point x="250.799" y="415.97" type="line"/>
      <point x="345.799" y="415.97" type="line"/>
      <point x="410.043" y="415.97" type="line" smooth="yes"/>
      <point x="444" y="415.97"/>
      <point x="475.003" y="400.279"/>
      <point x="498.227" y="380.369" type="curve" smooth="yes"/>
      <point x="540.661" y="343.991"/>
      <point x="560" y="287.755"/>
      <point x="560" y="206.97" type="curve" smooth="yes"/>
      <point x="560" y="95.0654"/>
      <point x="515.131" y="-0.0302734"/>
      <point x="403.518" y="-0.0302734" type="curve" smooth="yes"/>
      <point x="350.838" y="-0.0302734"/>
      <point x="311.426" y="31.5723"/>
      <point x="295.28" y="79" type="curve"/>
      <point x="279.135" y="31.5723"/>
      <point x="239.723" y="-0.0302734"/>
      <point x="187.043" y="-0.0302734" type="curve" smooth="yes"/>
      <point x="41.043" y="-0.0302734"/>
      <point x="22.043" y="124.97"/>
    </contour>
  </outline>
</glyph>
<glyph name="si_Va" format="1">
  <advance width="535"/>
  <unicode hex="0DC0"/>
  <outline>
    <contour>
      <point x="21.8115" y="218.826" type="curve" smooth="yes"/>
      <point x="21.8115" y="279.354"/>
      <point x="41.71" y="335.661"/>
      <point x="72.1895" y="362" type="curve" smooth="yes"/>
      <point x="93.209" y="380.164"/>
      <point x="121.286" y="391"/>
      <point x="157.888" y="391" type="curve" smooth="yes"/>
      <point x="164.888" y="391"/>
      <point x="238.53" y="391"/>
      <point x="252" y="391" type="curve"/>
      <point x="252" y="391"/>
      <point x="325.944" y="306"/>
      <point x="325.944" y="306" type="curve"/>
      <point x="325.944" y="306"/>
      <point x="200.888" y="306"/>
      <point x="200.888" y="306" type="curve" smooth="yes"/>
      <point x="144.888" y="306"/>
      <point x="132.487" y="270.602"/>
      <point x="132.487" y="226.602" type="curve" smooth="yes"/>
      <point x="132.487" y="174"/>
      <point x="159.08" y="115"/>
      <point x="252" y="115" type="curve" smooth="yes"/>
      <point x="356.452" y="115"/>
      <point x="398" y="195.018"/>
      <point x="398" y="354" type="curve" smooth="yes"/>
      <point x="398" y="583"/>
      <point x="326.68" y="640"/>
      <point x="243.854" y="640" type="curve" smooth="yes"/>
      <point x="202.751" y="640"/>
      <point x="162.666" y="618.96"/>
      <point x="145.61" y="576.855" type="curve"/>
      <point x="36.5781" y="613.029" type="line"/>
      <point x="72.5625" y="707.868"/>
      <point x="157.134" y="755"/>
      <point x="243.854" y="755" type="curve" smooth="yes"/>
      <point x="383.326" y="755"/>
      <point x="514" y="675.859"/>
      <point x="514" y="354" type="curve" smooth="yes"/>
      <point x="513" y="118"/>
      <point x="432" y="0"/>
      <point x="252" y="0" type="curve" smooth="yes"/>
      <point x="74" y="0"/>
      <point x="21.8115" y="137"/>
    </contour>
    <contour>
      <point x="61.5361" y="409.272" type="curve" smooth="yes"/>
      <point x="61.5361" y="481.535"/>
      <point x="110.507" y="531.563"/>
      <point x="184.809" y="531.563" type="curve" smooth="yes"/>
      <point x="261.795" y="531.563"/>
      <point x="333.193" y="474.899"/>
      <point x="333.193" y="365.563" type="curve" smooth="yes"/>
      <point x="333.193" y="351"/>
      <point x="330" y="325"/>
      <point x="325.944" y="306" type="curve"/>
      <point x="235.564" y="371.875" type="line"/>
      <point x="236.505" y="376.783"/>
      <point x="236.979" y="381.77"/>
      <point x="236.979" y="386.714" type="curve" smooth="yes"/>
      <point x="236.979" y="416.144"/>
      <point x="220.166" y="444"/>
      <point x="184.809" y="444" type="curve" smooth="yes"/>
      <point x="160.009" y="444"/>
      <point x="151.017" y="426.134"/>
      <point x="151.017" y="404.787" type="curve" smooth="yes"/>
      <point x="151.017" y="386.793"/>
      <point x="163.302" y="370.325"/>
      <point x="172" y="356" type="curve"/>
      <point x="92" y="318.563" type="line"/>
      <point x="72" y="351"/>
      <point x="61.5361" y="380.62"/>
    </contour>
  </outline>
</glyph>
<glyph name="si_Sha" format="1">
  <advance width="687"/>
  <unicode hex="0DC1"/>
  <outline>
    <contour>
      <point x="603" y="0" type="curve"/>
      <point x="665" y="48" type="line"/>
      <point x="638" y="86"/>
      <point x="662" y="101"/>
      <point x="662" y="286" type="curve" smooth="yes"/>
      <point x="662" y="520.375"/>
      <point x="555.999" y="584"/>
      <point x="449" y="584" type="curve" smooth="yes"/>
      <point x="369.093" y="584"/>
      <point x="266" y="527"/>
      <point x="266" y="401" type="curve" smooth="yes"/>
      <point x="266" y="369"/>
      <point x="262" y="344"/>
      <point x="210" y="311" type="curve"/>
      <point x="263" y="220" type="line"/>
      <point x="323" y="254"/>
      <point x="368" y="306.241"/>
      <point x="368" y="362" type="curve" smooth="yes"/>
      <point x="368" y="438"/>
      <point x="397.463" y="478"/>
      <point x="449" y="478" type="curve" smooth="yes"/>
      <point x="500.093" y="478"/>
      <point x="556" y="433.547"/>
      <point x="556" y="286" type="curve" smooth="yes"/>
      <point x="556" y="200.975"/>
      <point x="547" y="128"/>
      <point x="555" y="82" type="curve" smooth="yes"/>
      <point x="562.08" y="41.292"/>
      <point x="575" y="29"/>
    </contour>
    <contour>
      <point x="561" y="292" type="line"/>
      <point x="488.521" y="316.915"/>
      <point x="421.663" y="248.592"/>
      <point x="421.663" y="143.376" type="curve" smooth="yes"/>
      <point x="421.663" y="70.4092"/>
      <point x="445.599" y="0"/>
      <point x="515" y="0" type="curve" smooth="yes"/>
      <point x="571" y="0"/>
      <point x="566" y="28"/>
      <point x="603" y="0" type="curve"/>
      <point x="665" y="48" type="line"/>
      <point x="596" y="111"/>
      <point x="553" y="88"/>
      <point x="535" y="88" type="curve" smooth="yes"/>
      <point x="501" y="88"/>
      <point x="501" y="226"/>
      <point x="549.38" y="215.315" type="curve" smooth="yes"/>
      <point x="552.406" y="214.647"/>
      <point x="555.692" y="214.582"/>
      <point x="559" y="213" type="curve"/>
    </contour>
    <contour>
      <point x="227" y="106" type="curve" smooth="yes"/>
      <point x="177.415" y="106"/>
      <point x="128" y="136.453"/>
      <point x="128" y="284" type="curve" smooth="yes"/>
      <point x="128" y="425.659"/>
      <point x="167.27" y="480"/>
      <point x="210.372" y="480" type="curve" smooth="yes"/>
      <point x="252" y="480"/>
      <point x="266.823" y="442.586"/>
      <point x="272" y="426" type="curve"/>
      <point x="337" y="498" type="line"/>
      <point x="327.715" y="533.979"/>
      <point x="286.286" y="584"/>
      <point x="210.372" y="584" type="curve" smooth="yes"/>
      <point x="106.772" y="584"/>
      <point x="22" y="506.574"/>
      <point x="22" y="284" type="curve" smooth="yes"/>
      <point x="22" y="49.625"/>
      <point x="120.001" y="0"/>
      <point x="227" y="0" type="curve" smooth="yes"/>
      <point x="357.561" y="0"/>
      <point x="410.992" y="104.574"/>
      <point x="410.992" y="199" type="curve" smooth="yes"/>
      <point x="410.992" y="255.707"/>
      <point x="387" y="330"/>
      <point x="317" y="350" type="curve"/>
      <point x="250" y="280" type="line"/>
      <point x="262.263" y="275.095"/>
      <point x="308" y="249"/>
      <point x="308" y="199" type="curve" smooth="yes"/>
      <point x="308" y="155.278"/>
      <point x="288" y="106"/>
    </contour>
  </outline>
</glyph>
<glyph name="si_Ssa" format="1">
  <advance width="573"/>
  <unicode hex="0DC2"/>
  <outline>
    <contour>
      <point x="214.779" y="103.873" type="line"/>
      <point x="213.82" y="113.263"/>
      <point x="213.363" y="122.244"/>
      <point x="213.363" y="130.842" type="curve" smooth="yes"/>
      <point x="213.363" y="247.694"/>
      <point x="297.754" y="293.82"/>
      <point x="351.779" y="333.873" type="curve"/>
      <point x="415.779" y="360.873" type="line"/>
      <point x="437.219" y="297.437" type="line"/>
      <point x="383.126" y="245.177"/>
      <point x="311.381" y="209.729"/>
      <point x="311.381" y="124.816" type="curve" smooth="yes"/>
      <point x="311.381" y="117.113"/>
      <point x="311.971" y="109.003"/>
      <point x="313.219" y="100.437" type="curve"/>
      <point x="251" y="38.4365" type="line"/>
    </contour>
    <contour>
      <point x="254.82" y="467.354" type="curve" smooth="yes"/>
      <point x="254.82" y="473.071"/>
      <point x="255.385" y="478.329"/>
      <point x="256.636" y="483" type="curve" smooth="yes"/>
      <point x="276.262" y="556.277"/>
      <point x="335.354" y="594"/>
      <point x="398.173" y="594" type="curve" smooth="yes"/>
      <point x="484.732" y="594"/>
      <point x="536.832" y="532.137"/>
      <point x="536.832" y="456.407" type="curve" smooth="yes"/>
      <point x="536.832" y="428.149"/>
      <point x="525.584" y="394.649"/>
      <point x="505.446" y="369.03" type="curve"/>
      <point x="428.737" y="410.437" type="line"/>
      <point x="436.721" y="419.561"/>
      <point x="443.356" y="439.108"/>
      <point x="443.356" y="451.164" type="curve" smooth="yes"/>
      <point x="443.356" y="475"/>
      <point x="429.144" y="496"/>
      <point x="394" y="496" type="curve" smooth="yes"/>
      <point x="371.262" y="496"/>
      <point x="342.436" y="481.03"/>
      <point x="342.436" y="434.342" type="curve" smooth="yes"/>
      <point x="342.436" y="428.679"/>
      <point x="342.938" y="422.242"/>
      <point x="344" y="416" type="curve" smooth="yes"/>
      <point x="297.5" y="318.437" type="line"/>
      <point x="284.889" y="359.423"/>
      <point x="254.82" y="425.625"/>
    </contour>
    <contour>
      <point x="139.779" y="224" type="curve" smooth="yes"/>
      <point x="139.78" y="144.037"/>
      <point x="218.491" y="104.167"/>
      <point x="297.276" y="104.167" type="curve" smooth="yes"/>
      <point x="376.21" y="104.167"/>
      <point x="455.219" y="144.187"/>
      <point x="455.219" y="224" type="curve" smooth="yes"/>
      <point x="455.219" y="275.726"/>
      <point x="427.779" y="318"/>
      <point x="372.779" y="318" type="curve" smooth="yes"/>
      <point x="222.219" y="318" type="line" smooth="yes"/>
      <point x="167.223" y="318"/>
      <point x="139.779" y="276.868"/>
    </contour>
    <contour>
      <point x="32.7793" y="224" type="curve" smooth="yes"/>
      <point x="32.7793" y="329.377"/>
      <point x="93.8359" y="416"/>
      <point x="216.219" y="416" type="curve" smooth="yes"/>
      <point x="378.779" y="416" type="line" smooth="yes"/>
      <point x="501.162" y="416"/>
      <point x="562.219" y="329.652"/>
      <point x="562.219" y="224" type="curve" smooth="yes"/>
      <point x="562.219" y="66.501"/>
      <point x="429.859" y="-12.249"/>
      <point x="297.5" y="-12.249" type="curve" smooth="yes"/>
      <point x="165.14" y="-12.249"/>
      <point x="32.7793" y="66.502"/>
    </contour>
    <contour>
      <point x="58.168" y="456.407" type="curve" smooth="yes"/>
      <point x="58.168" y="532.137"/>
      <point x="110.268" y="594"/>
      <point x="196.827" y="594" type="curve" smooth="yes"/>
      <point x="259.646" y="594"/>
      <point x="318.738" y="556.277"/>
      <point x="338.364" y="483" type="curve" smooth="yes"/>
      <point x="339.615" y="478.329"/>
      <point x="340.18" y="473.071"/>
      <point x="340.18" y="467.354" type="curve" smooth="yes"/>
      <point x="340.18" y="425.625"/>
      <point x="310.111" y="359.422"/>
      <point x="297.5" y="318.437" type="curve"/>
      <point x="251" y="416" type="line" smooth="yes"/>
      <point x="252.062" y="422.242"/>
      <point x="252.564" y="428.679"/>
      <point x="252.564" y="434.342" type="curve" smooth="yes"/>
      <point x="252.564" y="481.03"/>
      <point x="223.738" y="496"/>
      <point x="201" y="496" type="curve" smooth="yes"/>
      <point x="165.856" y="496"/>
      <point x="151.644" y="475"/>
      <point x="151.644" y="451.164" type="curve" smooth="yes"/>
      <point x="151.644" y="439.108"/>
      <point x="158.279" y="419.561"/>
      <point x="166.263" y="410.437" type="curve"/>
      <point x="89.5537" y="369.03" type="line"/>
      <point x="69.4158" y="394.65"/>
      <point x="58.168" y="428.15"/>
    </contour>
  </outline>
</glyph>
<glyph name="si_Sa" format="1">
  <advance width="589"/>
  <unicode hex="0DC3"/>
  <outline>
    <contour>
      <point x="259.601" y="467.354" type="curve" smooth="yes"/>
      <point x="259.601" y="473.071"/>
      <point x="260.165" y="478.329"/>
      <point x="261.416" y="483" type="curve" smooth="yes"/>
      <point x="281.045" y="556.276"/>
      <point x="340.135" y="594"/>
      <point x="402.953" y="594" type="curve" smooth="yes"/>
      <point x="489.513" y="594"/>
      <point x="541.612" y="532.137"/>
      <point x="541.612" y="456.407" type="curve" smooth="yes"/>
      <point x="541.612" y="428.149"/>
      <point x="530.364" y="394.649"/>
      <point x="510.227" y="369.03" type="curve"/>
      <point x="433.518" y="410.437" type="line"/>
      <point x="441.501" y="419.561"/>
      <point x="448.137" y="439.108"/>
      <point x="448.137" y="451.164" type="curve" smooth="yes"/>
      <point x="448.137" y="475"/>
      <point x="433.924" y="496"/>
      <point x="398.78" y="496" type="curve" smooth="yes"/>
      <point x="376.042" y="496"/>
      <point x="347.216" y="481.03"/>
      <point x="347.216" y="434.342" type="curve" smooth="yes"/>
      <point x="347.216" y="428.679"/>
      <point x="347.719" y="422.242"/>
      <point x="348.78" y="416" type="curve" smooth="yes"/>
      <point x="302.28" y="318.437" type="line"/>
      <point x="289.669" y="359.423"/>
      <point x="259.601" y="425.625"/>
    </contour>
    <contour>
      <point x="144.561" y="207" type="curve" smooth="yes"/>
      <point x="144.561" y="157.265"/>
      <point x="158.749" y="115"/>
      <point x="194.043" y="115" type="curve" smooth="yes"/>
      <point x="240.743" y="115"/>
      <point x="256.674" y="176.75"/>
      <point x="256.674" y="249.5" type="curve"/>
      <point x="347.887" y="249.5" type="line"/>
      <point x="347.887" y="176.75"/>
      <point x="363.817" y="115"/>
      <point x="410.518" y="115" type="curve" smooth="yes"/>
      <point x="445.812" y="115"/>
      <point x="460" y="157.265"/>
      <point x="460" y="207" type="curve" smooth="yes"/>
      <point x="460" y="258.726"/>
      <point x="440.043" y="318"/>
      <point x="399.762" y="318" type="curve" smooth="yes"/>
      <point x="204.799" y="318" type="line" smooth="yes"/>
      <point x="164.043" y="318"/>
      <point x="144.561" y="258.09"/>
    </contour>
    <contour>
      <point x="37.5605" y="207" type="curve" smooth="yes"/>
      <point x="37.5605" y="248.301"/>
      <point x="49.043" y="294"/>
      <point x="63.043" y="319.563" type="curve"/>
      <point x="22.2266" y="319.667" type="line"/>
      <point x="22.2266" y="416" type="line"/>
      <point x="417.043" y="416" type="line" smooth="yes"/>
      <point x="451.227" y="416"/>
      <point x="482.003" y="400.31"/>
      <point x="505.227" y="380.399" type="curve" smooth="yes"/>
      <point x="547.661" y="344.021"/>
      <point x="567" y="287.785"/>
      <point x="567" y="207" type="curve" smooth="yes"/>
      <point x="567" y="95.0957"/>
      <point x="522.131" y="0"/>
      <point x="410.518" y="0" type="curve" smooth="yes"/>
      <point x="357.838" y="0"/>
      <point x="318.426" y="31.6025"/>
      <point x="302.28" y="79.0303" type="curve"/>
      <point x="286.135" y="31.6025"/>
      <point x="246.723" y="0"/>
      <point x="194.043" y="0" type="curve" smooth="yes"/>
      <point x="82.4297" y="0"/>
      <point x="37.5605" y="95.0957"/>
    </contour>
    <contour>
      <point x="65.9922" y="461.536" type="curve" smooth="yes"/>
      <point x="65.9922" y="532.132"/>
      <point x="113.992" y="594"/>
      <point x="201.607" y="594" type="curve" smooth="yes"/>
      <point x="264.426" y="594"/>
      <point x="323.519" y="556.277"/>
      <point x="343.145" y="483" type="curve" smooth="yes"/>
      <point x="344.396" y="478.329"/>
      <point x="344.96" y="473.071"/>
      <point x="344.96" y="467.354" type="curve" smooth="yes"/>
      <point x="344.96" y="425.625"/>
      <point x="314.892" y="359.423"/>
      <point x="302.28" y="318.437" type="curve"/>
      <point x="255.78" y="416" type="line" smooth="yes"/>
      <point x="256.842" y="422.253"/>
      <point x="257.345" y="428.669"/>
      <point x="257.345" y="434.342" type="curve" smooth="yes"/>
      <point x="257.345" y="481.03"/>
      <point x="228.519" y="496"/>
      <point x="205.78" y="496" type="curve" smooth="yes"/>
      <point x="173.738" y="496"/>
      <point x="158.838" y="474.293"/>
      <point x="158.838" y="450.723" type="curve" smooth="yes"/>
      <point x="158.838" y="437.757"/>
      <point x="163.347" y="424.227"/>
      <point x="171.992" y="413.437" type="curve"/>
      <point x="96.2812" y="375.437" type="line"/>
      <point x="75.2549" y="403.236"/>
      <point x="65.9922" y="433.095"/>
    </contour>
  </outline>
</glyph>
<glyph name="si_Ha" format="1">
  <advance width="661"/>
  <unicode hex="0DC4"/>
  <outline>
    <contour>
      <point x="196.372" y="255.156" type="line"/>
      <point x="236.2" y="282.183"/>
      <point x="247.828" y="331.57"/>
      <point x="256.934" y="384" type="curve" smooth="yes"/>
      <point x="273.434" y="479.008"/>
      <point x="281.65" y="584"/>
      <point x="434.372" y="584" type="curve" smooth="yes"/>
      <point x="541.371" y="584"/>
      <point x="639.372" y="526.375"/>
      <point x="639.372" y="292" type="curve" smooth="yes"/>
      <point x="639.372" y="69.4258"/>
      <point x="554.6" y="0"/>
      <point x="451" y="0" type="curve" smooth="yes"/>
      <point x="375.086" y="0"/>
      <point x="333.657" y="50.0215"/>
      <point x="324.372" y="86" type="curve"/>
      <point x="389.372" y="158" type="line"/>
      <point x="394.549" y="141.414"/>
      <point x="409.372" y="104"/>
      <point x="451" y="104" type="curve" smooth="yes"/>
      <point x="494.103" y="104"/>
      <point x="533.372" y="150.341"/>
      <point x="533.372" y="292" type="curve" smooth="yes"/>
      <point x="533.372" y="439.547"/>
      <point x="483.957" y="478"/>
      <point x="434.372" y="478" type="curve" smooth="yes"/>
      <point x="372.935" y="478"/>
      <point x="359.589" y="429.942"/>
      <point x="349.063" y="371" type="curve" smooth="yes"/>
      <point x="336.976" y="303.303"/>
      <point x="328.607" y="221.249"/>
      <point x="255.372" y="181.156" type="curve"/>
    </contour>
    <contour>
      <point x="19.1475" y="206.949" type="curve" smooth="yes"/>
      <point x="19.1475" y="278.302"/>
      <point x="34.2773" y="332.681"/>
      <point x="68.1045" y="368.188" type="curve" smooth="yes"/>
      <point x="92.1934" y="393.473"/>
      <point x="128.104" y="415.949"/>
      <point x="169.104" y="415.949" type="curve" smooth="yes"/>
      <point x="328.349" y="415.949" type="line"/>
      <point x="314.349" y="317.949" type="line"/>
      <point x="186.386" y="317.949" type="line" smooth="yes"/>
      <point x="140.983" y="317.949"/>
      <point x="118" y="264"/>
      <point x="118" y="216" type="curve" smooth="yes"/>
      <point x="118" y="166.36"/>
      <point x="140.595" y="107"/>
      <point x="216" y="107" type="curve" smooth="yes"/>
      <point x="282.658" y="107"/>
      <point x="299.372" y="140.956"/>
      <point x="299.372" y="170" type="curve" smooth="yes"/>
      <point x="299.372" y="180.209"/>
      <point x="297.521" y="195.969"/>
      <point x="285.104" y="195.969" type="curve" smooth="yes"/>
      <point x="279.372" y="195.969"/>
      <point x="275.372" y="194"/>
      <point x="272.372" y="192" type="curve"/>
      <point x="228.372" y="272" type="line"/>
      <point x="250.128" y="281.041"/>
      <point x="273.72" y="286.171"/>
      <point x="296.373" y="286.171" type="curve" smooth="yes"/>
      <point x="353.897" y="286.171"/>
      <point x="405.372" y="253.095"/>
      <point x="405.372" y="167" type="curve" smooth="yes"/>
      <point x="405.372" y="99"/>
      <point x="360.928" y="0"/>
      <point x="216" y="0" type="curve" smooth="yes"/>
      <point x="90.399" y="0"/>
      <point x="19.1475" y="101.996"/>
    </contour>
    <contour>
      <point x="44.2725" y="456.356" type="curve" smooth="yes"/>
      <point x="44.2725" y="532.114"/>
      <point x="96.3721" y="594"/>
      <point x="182.932" y="594" type="curve" smooth="yes"/>
      <point x="245.75" y="594"/>
      <point x="304.831" y="556.257"/>
      <point x="324.469" y="482.949" type="curve" smooth="yes"/>
      <point x="325.629" y="478.618"/>
      <point x="331.429" y="455.665"/>
      <point x="331.429" y="433.215" type="curve" smooth="yes"/>
      <point x="331.429" y="389.238"/>
      <point x="327.25" y="359.879"/>
      <point x="314.349" y="317.949" type="curve"/>
      <point x="237.104" y="415.949" type="line"/>
      <point x="238.166" y="422.191"/>
      <point x="238.669" y="428.628"/>
      <point x="238.669" y="434.291" type="curve" smooth="yes"/>
      <point x="238.669" y="481.018"/>
      <point x="209.843" y="496"/>
      <point x="187.104" y="496" type="curve" smooth="yes"/>
      <point x="151.961" y="496"/>
      <point x="137.748" y="474.976"/>
      <point x="137.748" y="451.113" type="curve" smooth="yes"/>
      <point x="137.748" y="439.058"/>
      <point x="144.384" y="419.51"/>
      <point x="152.367" y="410.386" type="curve"/>
      <point x="75.6582" y="368.979" type="line"/>
      <point x="55.5205" y="394.599"/>
      <point x="44.2725" y="428.099"/>
    </contour>
  </outline>
</glyph>
<glyph name="si_Lla" format="1">
  <advance width="605"/>
  <unicode hex="0DC5"/>
  <outline>
    <contour>
      <point x="255.798" y="594" type="curve" smooth="yes"/>
      <point x="138" y="594"/>
      <point x="124" y="478"/>
      <point x="150" y="386" type="curve" smooth="yes"/>
      <point x="164.686" y="334.035"/>
      <point x="167.526" y="351.206"/>
      <point x="161" y="299" type="curve" smooth="yes"/>
      <point x="149" y="203"/>
      <point x="219" y="115"/>
      <point x="332" y="115" type="curve" smooth="yes"/>
      <point x="451.697" y="115"/>
      <point x="508.432" y="184.958"/>
      <point x="515.289" y="257" type="curve" smooth="yes"/>
      <point x="515.764" y="261.998"/>
      <point x="516" y="267.005"/>
      <point x="516" y="272" type="curve"/>
      <point x="416" y="272" type="line"/>
      <point x="416" y="269.999"/>
      <point x="415.895" y="267.997"/>
      <point x="415.688" y="266" type="curve" smooth="yes"/>
      <point x="412.344" y="233.753"/>
      <point x="382.493" y="203"/>
      <point x="342" y="203" type="curve" smooth="yes"/>
      <point x="271.187" y="203"/>
      <point x="234" y="250"/>
      <point x="237" y="350" type="curve"/>
      <point x="235.452" y="378.218"/>
      <point x="237.544" y="394.78"/>
      <point x="233" y="416" type="curve"/>
      <point x="225.202" y="454"/>
      <point x="223" y="496"/>
      <point x="262" y="496" type="curve" smooth="yes"/>
      <point x="289" y="496"/>
      <point x="307" y="458"/>
      <point x="302" y="414" type="curve"/>
      <point x="302" y="348.864"/>
      <point x="302" y="322"/>
      <point x="302" y="322" type="curve"/>
      <point x="380.798" y="322" type="line"/>
      <point x="380.798" y="322"/>
      <point x="380.798" y="348.864"/>
      <point x="380.798" y="414" type="curve"/>
      <point x="377" y="456"/>
      <point x="384" y="496"/>
      <point x="418" y="496" type="curve" smooth="yes"/>
      <point x="452" y="496"/>
      <point x="456" y="454"/>
      <point x="448" y="416" type="curve"/>
      <point x="486" y="380" type="line"/>
      <point x="515" y="318" type="line"/>
      <point x="566" y="491"/>
      <point x="511" y="594"/>
      <point x="424" y="594" type="curve" smooth="yes"/>
      <point x="383" y="594"/>
      <point x="358" y="575"/>
      <point x="339" y="546" type="curve"/>
      <point x="321.798" y="575"/>
      <point x="296.798" y="594"/>
    </contour>
    <contour>
      <point x="38" y="133" type="curve" smooth="yes"/>
      <point x="38" y="-22.3154"/>
      <point x="122.838" y="-154"/>
      <point x="309" y="-154" type="curve" smooth="yes"/>
      <point x="456.084" y="-154"/>
      <point x="546.665" y="-57.1006"/>
      <point x="559" y="57" type="curve"/>
      <point x="445.563" y="73" type="line"/>
      <point x="436.736" y="9.42849"/>
      <point x="384.148" y="-39"/>
      <point x="309" y="-39" type="curve" smooth="yes"/>
      <point x="203.211" y="-39"/>
      <point x="152" y="39.9189"/>
      <point x="152" y="133" type="curve" smooth="yes"/>
      <point x="152" y="260"/>
      <point x="196" y="318"/>
      <point x="254" y="318" type="curve" smooth="yes"/>
      <point x="337.177" y="318"/>
      <point x="428.363" y="318"/>
      <point x="515" y="318" type="curve"/>
      <point x="512" y="416" type="line"/>
      <point x="375.764" y="416"/>
      <point x="289.202" y="416"/>
      <point x="225.202" y="416" type="curve" smooth="yes"/>
      <point x="160.426" y="416"/>
      <point x="38" y="328.27"/>
    </contour>
  </outline>
</glyph>
<glyph name="si_Fa" format="1">
  <advance width="587"/>
  <unicode hex="0DC6"/>
  <outline>
    <contour>
      <point x="19" y="295" type="curve" smooth="yes"/>
      <point x="19" y="426"/>
      <point x="38" y="594"/>
      <point x="184" y="594" type="curve" smooth="yes"/>
      <point x="236.68" y="594"/>
      <point x="276.092" y="562.397"/>
      <point x="292.237" y="514.97" type="curve"/>
      <point x="308.383" y="562.397"/>
      <point x="347.795" y="594"/>
      <point x="400.475" y="594" type="curve" smooth="yes"/>
      <point x="546.475" y="594"/>
      <point x="565.475" y="426"/>
      <point x="565.475" y="295" type="curve" smooth="yes"/>
      <point x="565.475" y="90"/>
      <point x="488.475" y="0"/>
      <point x="335.475" y="0" type="curve"/>
      <point x="335.475" y="115" type="line"/>
      <point x="458.475" y="115"/>
      <point x="458.475" y="243.274"/>
      <point x="458.475" y="295" type="curve" smooth="yes"/>
      <point x="458.475" y="344.735"/>
      <point x="458.475" y="479"/>
      <point x="400.475" y="479" type="curve" smooth="yes"/>
      <point x="353.774" y="479"/>
      <point x="337.844" y="417.25"/>
      <point x="337.844" y="344.5" type="curve"/>
      <point x="246.631" y="344.5" type="line"/>
      <point x="246.631" y="417.25"/>
      <point x="230.7" y="479"/>
      <point x="184" y="479" type="curve" smooth="yes"/>
      <point x="126" y="479"/>
      <point x="126" y="344.735"/>
      <point x="126" y="295" type="curve" smooth="yes"/>
      <point x="126" y="243.274"/>
      <point x="126" y="115"/>
      <point x="249" y="115" type="curve"/>
      <point x="249" y="0" type="line"/>
      <point x="96" y="0"/>
      <point x="19" y="90"/>
    </contour>
  </outline>
</glyph>
<glyph name="si_Halant" format="1">
  <advance width="-29"/>
  <unicode hex="0DCA"/>
  <outline>
    <contour>
      <point x="-83.6064" y="634.806" type="curve"/>
      <point x="-68.6064" y="706" type="line"/>
      <point x="-62.7871" y="704.738"/>
      <point x="-57.5088" y="704.159"/>
      <point x="-52.7344" y="704.159" type="curve" smooth="yes"/>
      <point x="-24.083" y="704.159"/>
      <point x="-13.6064" y="724.999"/>
      <point x="-13.6064" y="749" type="curve" smooth="yes"/>
      <point x="-13.6064" y="789.499"/>
      <point x="-45.2383" y="790.933"/>
      <point x="-58.7988" y="790.933" type="curve" smooth="yes"/>
      <point x="-61.8184" y="790.933"/>
      <point x="-64.498" y="790.603"/>
      <point x="-66.6064" y="790" type="curve"/>
      <point x="-87.6064" y="824" type="line"/>
      <point x="-57.6064" y="866" type="line"/>
      <point x="-21.6064" y="866"/>
      <point x="62.3936" y="862"/>
      <point x="62.3936" y="749" type="curve" smooth="yes"/>
      <point x="62.3936" y="673.727"/>
      <point x="12.6201" y="629"/>
      <point x="-44.9307" y="629" type="curve" smooth="yes"/>
      <point x="-57.5957" y="629"/>
      <point x="-70.6367" y="630.915"/>
    </contour>
    <contour>
      <point x="-140.606" y="866" type="line"/>
      <point x="-57.6064" y="866" type="line"/>
      <point x="-57.6064" y="812" type="line"/>
      <point x="-64.6064" y="796" type="line"/>
      <point x="-64.6064" y="767"/>
      <point x="-64.6064" y="735"/>
      <point x="-64.6064" y="704" type="curve"/>
      <point x="-57.6064" y="684" type="line"/>
      <point x="-57.6064" y="459" type="line"/>
      <point x="-140.606" y="459" type="line"/>
    </contour>
  </outline>
</glyph>
<glyph name="si_MatraAa" format="1">
  <advance width="244"/>
  <unicode hex="0DCF"/>
  <outline>
    <contour>
      <point x="-10" y="560.93" type="line"/>
      <point x="2.82715" y="563.47"/>
      <point x="16.1514" y="564.859"/>
      <point x="29.6406" y="564.859" type="curve" smooth="yes"/>
      <point x="122.361" y="564.859"/>
      <point x="222.841" y="499.185"/>
      <point x="222.841" y="289.93" type="curve" smooth="yes"/>
      <point x="222.841" y="80.6748"/>
      <point x="122.361" y="15"/>
      <point x="29.6406" y="15" type="curve" smooth="yes"/>
      <point x="16.1514" y="15"/>
      <point x="2.82715" y="16.3896"/>
      <point x="-10" y="18.9297" type="curve"/>
      <point x="8" y="119.93" type="line"/>
      <point x="12.7256" y="119.005"/>
      <point x="17.5332" y="118.501"/>
      <point x="22.3574" y="118.501" type="curve" smooth="yes"/>
      <point x="64.4932" y="118.501"/>
      <point x="107.841" y="156.975"/>
      <point x="107.841" y="289.93" type="curve" smooth="yes"/>
      <point x="107.841" y="422.885"/>
      <point x="64.4932" y="461.358"/>
      <point x="22.3574" y="461.358" type="curve" smooth="yes"/>
      <point x="17.5332" y="461.358"/>
      <point x="12.7256" y="460.854"/>
      <point x="8" y="459.93" type="curve"/>
    </contour>
  </outline>
</glyph>
<glyph name="si_MatraAe" format="1">
  <advance width="326"/>
  <unicode hex="0DD0"/>
  <outline>
    <contour>
      <point x="0" y="167" type="curve" smooth="yes"/>
      <point x="0" y="268"/>
      <point x="66" y="341"/>
      <point x="144" y="447" type="curve"/>
      <point x="108" y="447"/>
      <point x="36" y="447"/>
      <point x="36" y="447" type="curve"/>
      <point x="36" y="546" type="line"/>
      <point x="139" y="546"/>
      <point x="216.853" y="546"/>
      <point x="271" y="546" type="curve"/>
      <point x="271" y="522"/>
      <point x="271" y="491"/>
      <point x="271" y="451" type="curve"/>
      <point x="154" y="295"/>
      <point x="108" y="243"/>
      <point x="108" y="167" type="curve" smooth="yes"/>
      <point x="108" y="125"/>
      <point x="131" y="111"/>
      <point x="156" y="111" type="curve" smooth="yes"/>
      <point x="179" y="111"/>
      <point x="208" y="123"/>
      <point x="208" y="179" type="curve"/>
      <point x="304" y="179" type="line"/>
      <point x="304" y="101"/>
      <point x="274" y="0"/>
      <point x="152" y="0" type="curve" smooth="yes"/>
      <point x="33" y="0"/>
      <point x="0" y="104"/>
    </contour>
  </outline>
</glyph>
<glyph name="si_MatraAae" format="1">
  <advance width="326"/>
  <unicode hex="0DD1"/>
  <outline>
    <contour>
      <point x="14" y="286" type="curve"/>
      <point x="14" y="374" type="line"/>
      <point x="117" y="374"/>
      <point x="194.853" y="374"/>
      <point x="249" y="374" type="curve"/>
      <point x="249" y="350"/>
      <point x="249" y="326"/>
      <point x="249" y="286" type="curve"/>
      <point x="170.667" y="286"/>
      <point x="92.3333" y="286"/>
    </contour>
    <contour>
      <point x="0" y="157" type="curve" smooth="yes"/>
      <point x="0" y="274.719"/>
      <point x="107.524" y="356"/>
      <point x="227" y="356" type="curve"/>
      <point x="227" y="286" type="line"/>
      <point x="190" y="286"/>
      <point x="100" y="251"/>
      <point x="100" y="157" type="curve" smooth="yes"/>
      <point x="100" y="124.17"/>
      <point x="117" y="104"/>
      <point x="150" y="104" type="curve" smooth="yes"/>
      <point x="189" y="104"/>
      <point x="208" y="132.052"/>
      <point x="208" y="179" type="curve"/>
      <point x="304" y="179" type="line"/>
      <point x="304" y="101"/>
      <point x="274" y="0"/>
      <point x="152" y="0" type="curve" smooth="yes"/>
      <point x="33" y="0"/>
      <point x="0" y="94"/>
    </contour>
    <contour>
      <point x="14" y="546" type="line"/>
      <point x="117" y="546"/>
      <point x="194.853" y="546"/>
      <point x="249" y="546" type="curve"/>
      <point x="249" y="522"/>
      <point x="249" y="491"/>
      <point x="249" y="451" type="curve"/>
      <point x="132" y="374" type="line"/>
      <point x="14" y="374" type="line"/>
      <point x="105" y="447" type="line"/>
      <point x="69" y="447"/>
      <point x="14" y="447"/>
      <point x="14" y="447" type="curve"/>
    </contour>
  </outline>
</glyph>
<glyph name="si_MatraI" format="1">
  <advance width="0"/>
  <unicode hex="0DD2"/>
  <outline>
    <contour>
      <point x="-520" y="661" type="curve" smooth="yes"/>
      <point x="-520" y="806"/>
      <point x="-398" y="866"/>
      <point x="-260" y="866" type="curve" smooth="yes"/>
      <point x="-122" y="866"/>
      <point x="0" y="806"/>
      <point x="0" y="661" type="curve" smooth="yes"/>
      <point x="0" y="598"/>
      <point x="-39" y="527"/>
      <point x="-102" y="503" type="curve"/>
      <point x="-182.929" y="503" type="line"/>
      <point x="-183" y="559" type="line"/>
      <point x="-128.44" y="581"/>
      <point x="-113" y="619"/>
      <point x="-113" y="661" type="curve" smooth="yes"/>
      <point x="-113" y="719"/>
      <point x="-170.002" y="755"/>
      <point x="-260" y="755" type="curve" smooth="yes"/>
      <point x="-349.997" y="755"/>
      <point x="-407" y="718"/>
      <point x="-407" y="661" type="curve" smooth="yes"/>
      <point x="-407" y="619"/>
      <point x="-391.559" y="581"/>
      <point x="-337" y="559" type="curve"/>
      <point x="-336.929" y="503" type="line"/>
      <point x="-418" y="503" type="line"/>
      <point x="-481" y="527"/>
      <point x="-520" y="598"/>
    </contour>
  </outline>
</glyph>
